0
SECTION
2
HEADER
9
$INSUNITS
70
4
9
$ACADVER
1
AC1014
9
$HANDSEED
5
FFFF
0
ENDSEC
0
SECTION
2
TABLES
0
TABLE
2
VPORT
5
8
100
AcDbSymbolTable
0
ENDTAB
0
TABLE
2
LTYPE
5
5
100
AcDbSymbolTable
0
LTYPE
5
14
100
AcDbSymbolTableRecord
100
AcDbLinetypeTableRecord
2
BYBLOCK
70
0
0
LTYPE
5
15
100
AcDbSymbolTableRecord
100
AcDbLinetypeTableRecord
2
BYLAYER
70
0
0
LTYPE
5
16
100
AcDbSymbolTableRecord
100
AcDbLinetypeTableRecord
2
DASHED
70
0
3
Dashed __ __ __ __ __ __ __ __ __ __ __ __ __ _
72
65
73
2
40
0.75
49
0.5
74
0
49
-0.25
74
0
0
ENDTAB
0
TABLE
2
LAYER
5
2
100
AcDbSymbolTable
70
2
0
LAYER
5
50
100
AcDbSymbolTableRecord
100
AcDbLayerTableRecord
2
0
70
0
62
7
6
CONTINUOUS
0
ENDTAB
0
TABLE
2
STYLE
5
3
100
AcDbSymbolTable
70
1
0
STYLE
5
11
100
AcDbSymbolTableRecord
100
AcDbTextStyleTableRecord
2
STANDARD
70
0
0
ENDTAB
0
TABLE
2
VIEW
5
6
100
AcDbSymbolTable
70
0
0
ENDTAB
0
TABLE
2
UCS
5
7
100
AcDbSymbolTable
70
0
0
ENDTAB
0
TABLE
2
APPID
5
9
100
AcDbSymbolTable
70
2
0
APPID
5
12
100
AcDbSymbolTableRecord
100
AcDbRegAppTableRecord
2
ACAD
70
0
0
ENDTAB
0
TABLE
2
DIMSTYLE
5
A
100
AcDbSymbolTable
70
1
0
ENDTAB
0
TABLE
2
BLOCK_RECORD
5
1
100
AcDbSymbolTable
70
1
0
BLOCK_RECORD
5
1F
100
AcDbSymbolTableRecord
100
AcDbBlockTableRecord
2
*MODEL_SPACE
0
BLOCK_RECORD
5
1B
100
AcDbSymbolTableRecord
100
AcDbBlockTableRecord
2
*PAPER_SPACE
0
ENDTAB
0
ENDSEC
0
SECTION
2
BLOCKS
0
BLOCK
5
20
100
AcDbEntity
100
AcDbBlockBegin
2
*MODEL_SPACE
0
ENDBLK
5
21
100
AcDbEntity
100
AcDbBlockEnd
0
BLOCK
5
1C
100
AcDbEntity
100
AcDbBlockBegin
2
*PAPER_SPACE
0
ENDBLK
5
1D
100
AcDbEntity
100
AcDbBlockEnd
0
ENDSEC
0
SECTION
2
ENTITIES
0
POINT
5
100
100
AcDbEntity
8
0
100
AcDbPoint
10
0
20
0
30
0
0
POINT
5
101
100
AcDbEntity
8
0
100
AcDbPoint
10
101.1870581774928
20
24.588213756221663
30
0
0
LINE
5
102
100
AcDbEntity
8
0
100
AcDbLine
10
0
20
0
30
0
11
0
21
108.48051801807303
31
0
6
DASHED
0
LINE
5
103
100
AcDbEntity
8
0
100
AcDbLine
10
-128
20
-41.869201055458085
30
0
11
128
21
-41.869201055458085
31
0
6
DASHED
0
LINE
5
104
100
AcDbEntity
8
0
100
AcDbLine
10
0
20
0
30
0
11
-4.5771220953410922e-17
21
-41.869201055458085
31
0
6
DASHED
0
LINE
5
105
100
AcDbEntity
8
0
100
AcDbLine
10
-4.5771220953410922e-17
20
-41.869201055458085
30
0
11
8.1477873770697378e-15
21
-75.519481981926987
31
0
6
DASHED
0
LINE
5
106
100
AcDbEntity
8
0
100
AcDbLine
10
-62.877206549737927
20
-15.06489878990326
30
0
11
62.122793450262073
21
-15.06489878990326
31
0
6
DASHED
0
SPLINE
5
107
100
AcDbEntity
8
0
100
AcDbSpline
70
4
71
5
72
61
73
55
74
0
42
0.000000001
43
0.0000000001
44
0.0000000001
40
0
40
0
40
0
40
0
40
0
40
0
40
0.02
40
0.040000000000000001
40
0.059999999999999998
40
0.080000000000000002
40
0.10000000000000001
40
0.12000000000000001
40
0.14000000000000001
40
0.16
40
0.17999999999999999
40
0.19999999999999998
40
0.21999999999999997
40
0.23999999999999996
40
0.25999999999999995
40
0.27999999999999997
40
0.29999999999999999
40
0.32000000000000001
40
0.34000000000000002
40
0.36000000000000004
40
0.38000000000000006
40
0.40000000000000008
40
0.4200000000000001
40
0.44000000000000011
40
0.46000000000000013
40
0.48000000000000015
40
0.50000000000000011
40
0.52000000000000013
40
0.54000000000000015
40
0.56000000000000016
40
0.58000000000000018
40
0.6000000000000002
40
0.62000000000000022
40
0.64000000000000024
40
0.66000000000000025
40
0.68000000000000027
40
0.70000000000000029
40
0.72000000000000031
40
0.74000000000000032
40
0.76000000000000034
40
0.78000000000000036
40
0.80000000000000038
40
0.8200000000000004
40
0.84000000000000041
40
0.86000000000000043
40
0.88000000000000045
40
0.90000000000000047
40
0.92000000000000048
40
0.9400000000000005
40
0.96000000000000052
40
0.98000000000000054
40
1
40
1
40
1
40
1
40
1
40
1
41
1
41
1
41
1
41
1
41
1
41
1
41
1
41
1
41
1
41
1
41
1
41
1
41
1
41
1
41
1
41
1
41
1
41
1
41
1
41
1
41
1
41
1
41
1
41
1
41
1
41
1
41
1
41
1
41
1
41
1
41
1
41
1
41
1
41
1
41
1
41
1
41
1
41
1
41
1
41
1
41
1
41
1
41
1
41
1
41
1
41
1
41
1
41
1
41
1
41
1
41
1
41
1
41
1
41
1
41
1
10
8.1477873770697378e-15
20
-75.519481981926987
30
0
10
-0.52796182632734301
20
-75.926714517873918
30
0
10
-1.6676930018851956
20
-76.774536460388603
30
0
10
-3.628691811185325
20
-78.14631237071228
30
0
10
-6.7466666449717225
20
-80.175802960218135
30
0
10
-11.463065767731964
20
-83.021310271479877
30
0
10
-16.938648270911369
20
-86.102252881019936
30
0
10
-23.044852377797529
20
-89.26238798496037
30
0
10
-29.596279171944314
20
-92.282222214573636
30
0
10
-36.387874322016806
20
-94.932318709405024
30
0
10
-43.225921245762692
20
-97.019039988070858
30
0
10
-49.958385595662207
20
-98.427867132496715
30
0
10
-56.513768878638203
20
-99.182465476804239
30
0
10
-62.889057373513182
20
-99.4053101554954
30
0
10
-69.116035053573484
20
-99.220020064742926
30
0
10
-75.236497116082703
20
-98.704694548435512
30
0
10
-81.269794703860015
20
-97.749880556173764
30
0
10
-87.19633389109805
20
-96.203022021498867
30
0
10
-92.970749672169788
20
-93.959655014252974
30
0
10
-98.528030626212797
20
-90.950573738542346
30
0
10
-103.79231383734742
20
-87.170555794708818
30
0
10
-108.68469293283367
20
-82.692966277656481
30
0
10
-113.12966680183681
20
-77.647945087916185
30
0
10
-117.06144597114576
20
-72.190817552896235
30
0
10
-120.42978198451686
20
-66.475594353965306
30
0
10
-123.20739083125585
20
-60.623414347782685
30
0
10
-125.39255849684093
20
-54.702333260405084
30
0
10
-126.99740092966363
20
-48.739038944279756
30
0
10
-128.03842851683243
20
-42.724818577973032
30
0
10
-128.52680614928158
20
-36.623929488135865
30
0
10
-128.45725989571164
20
-30.380225051999954
30
0
10
-127.81402248181907
20
-23.932187708995283
30
0
10
-126.57967591895957
20
-17.229640399140511
30
0
10
-124.74245638279484
20
-10.248659078918674
30
0
10
-122.30543442312856
20
-3.0102065667707962
30
0
10
-119.29111401562611
20
4.4119485158258378
30
0
10
-115.73375361953913
20
11.913179535046174
30
0
10
-111.67406859696655
20
19.374066967158164
30
0
10
-107.15280574268385
20
26.679436950156749
30
0
10
-102.20533466683392
20
33.734510807633143
30
0
10
-96.854522166485225
20
40.48636612096054
30
0
10
-91.109821457117093
20
46.925994662115329
30
0
10
-84.971189903736132
20
53.075230895960786
30
0
10
-78.431570807162174
20
58.97823058262594
30
0
10
-71.480032851898756
20
64.690902150673409
30
0
10
-64.104446120757729
20
70.271850794873799
30
0
10
-56.294802448171389
20
75.771259744552211
30
0
10
-48.044696898130177
20
81.225798182291271
30
0
10
-39.350254592928458
20
86.661900238264096
30
0
10
-30.209690526660662
20
92.09700179539513
30
0
10
-20.622632097119684
20
97.541577706325953
30
0
10
-12.59617486254422
20
101.90896764383544
30
0
10
-6.3759592828397924
20
105.19187927052621
30
0
10
-2.1401524995077006
20
107.38375964808938
30
0
10
0
20
108.48051801807303
30
0
0
SPLINE
5
108
100
AcDbEntity
8
0
100
AcDbSpline
70
4
71
5
72
61
73
55
74
0
42
0.000000001
43
0.0000000001
44
0.0000000001
40
0
40
0
40
0
40
0
40
0
40
0
40
0.02
40
0.040000000000000001
40
0.059999999999999998
40
0.080000000000000002
40
0.10000000000000001
40
0.12000000000000001
40
0.14000000000000001
40
0.16
40
0.17999999999999999
40
0.19999999999999998
40
0.21999999999999997
40
0.23999999999999996
40
0.25999999999999995
40
0.27999999999999997
40
0.29999999999999999
40
0.32000000000000001
40
0.34000000000000002
40
0.36000000000000004
40
0.38000000000000006
40
0.40000000000000008
40
0.4200000000000001
40
0.44000000000000011
40
0.46000000000000013
40
0.48000000000000015
40
0.50000000000000011
40
0.52000000000000013
40
0.54000000000000015
40
0.56000000000000016
40
0.58000000000000018
40
0.6000000000000002
40
0.62000000000000022
40
0.64000000000000024
40
0.66000000000000025
40
0.68000000000000027
40
0.70000000000000029
40
0.72000000000000031
40
0.74000000000000032
40
0.76000000000000034
40
0.78000000000000036
40
0.80000000000000038
40
0.8200000000000004
40
0.84000000000000041
40
0.86000000000000043
40
0.88000000000000045
40
0.90000000000000047
40
0.92000000000000048
40
0.9400000000000005
40
0.96000000000000052
40
0.98000000000000054
40
1
40
1
40
1
40
1
40
1
40
1
41
1
41
1
41
1
41
1
41
1
41
1
41
1
41
1
41
1
41
1
41
1
41
1
41
1
41
1
41
1
41
1
41
1
41
1
41
1
41
1
41
1
41
1
41
1
41
1
41
1
41
1
41
1
41
1
41
1
41
1
41
1
41
1
41
1
41
1
41
1
41
1
41
1
41
1
41
1
41
1
41
1
41
1
41
1
41
1
41
1
41
1
41
1
41
1
41
1
41
1
41
1
41
1
41
1
41
1
41
1
10
8.1477873770697315e-15
20
-75.519481981926987
30
0
10
0.52796182632735955
20
-75.926714517873918
30
0
10
1.6676930018852127
20
-76.774536460388603
30
0
10
3.6286918111853428
20
-78.14631237071228
30
0
10
6.7466666449717412
20
-80.175802960218135
30
0
10
11.463065767731983
20
-83.021310271479877
30
0
10
16.938648270911393
20
-86.102252881019936
30
0
10
23.04485237779755
20
-89.262387984960355
30
0
10
29.596279171944335
20
-92.282222214573608
30
0
10
36.387874322016827
20
-94.932318709404996
30
0
10
43.22592124576272
20
-97.019039988070844
30
0
10
49.958385595662236
20
-98.427867132496687
30
0
10
56.513768878638231
20
-99.182465476804197
30
0
10
62.889057373513211
20
-99.405310155495371
30
0
10
69.116035053573512
20
-99.220020064742883
30
0
10
75.236497116082731
20
-98.704694548435469
30
0
10
81.269794703860043
20
-97.749880556173721
30
0
10
87.196333891098092
20
-96.203022021498839
30
0
10
92.970749672169831
20
-93.959655014252931
30
0
10
98.528030626212825
20
-90.950573738542303
30
0
10
103.79231383734745
20
-87.170555794708775
30
0
10
108.68469293283368
20
-82.692966277656424
30
0
10
113.12966680183683
20
-77.647945087916128
30
0
10
117.06144597114579
20
-72.190817552896192
30
0
10
120.42978198451689
20
-66.475594353965249
30
0
10
123.20739083125586
20
-60.623414347782621
30
0
10
125.39255849684093
20
-54.702333260405027
30
0
10
126.99740092966363
20
-48.739038944279692
30
0
10
128.03842851683243
20
-42.724818577972968
30
0
10
128.52680614928158
20
-36.623929488135801
30
0
10
128.45725989571164
20
-30.380225051999894
30
0
10
127.81402248181907
20
-23.932187708995222
30
0
10
126.57967591895955
20
-17.22964039914045
30
0
10
124.74245638279483
20
-10.248659078918614
30
0
10
122.30543442312853
20
-3.0102065667707367
30
0
10
119.29111401562609
20
4.4119485158258955
30
0
10
115.7337536195391
20
11.913179535046229
30
0
10
111.67406859696652
20
19.374066967158218
30
0
10
107.15280574268382
20
26.679436950156802
30
0
10
102.20533466683389
20
33.734510807633185
30
0
10
96.854522166485197
20
40.486366120960582
30
0
10
91.10982145711705
20
46.925994662115372
30
0
10
84.971189903736089
20
53.075230895960829
30
0
10
78.431570807162132
20
58.978230582625969
30
0
10
71.480032851898713
20
64.690902150673438
30
0
10
64.104446120757672
20
70.271850794873842
30
0
10
56.294802448171339
20
75.771259744552239
30
0
10
48.04469689813012
20
81.225798182291285
30
0
10
39.350254592928394
20
86.66190023826411
30
0
10
30.209690526660594
20
92.097001795395158
30
0
10
20.622632097119613
20
97.541577706325967
30
0
10
12.596174862544151
20
101.90896764383544
30
0
10
6.3759592828397214
20
105.19187927052621
30
0
10
2.1401524995076278
20
107.38375964808938
30
0
10
-7.3309310585785733e-14
20
108.48051801807303
30
0
0
CIRCLE
5
109
100
AcDbEntity
8
0
100
AcDbCircle
10
-62.877206549737927
20
-15.06489878990326
30
0
40
5.0000000000000009
210
0
220
0
230
1
0
CIRCLE
5
110
100
AcDbEntity
8
0
100
AcDbCircle
10
62.122793450262073
20
-15.06489878990326
30
0
40
5
210
0
220
0
230
1
0
CIRCLE
5
111
100
AcDbEntity
8
0
100
AcDbCircle
10
-72.612794842561229
20
-92.846263975990297
30
0
40
1.4999999999999967
210
0
220
0
230
1
0
CIRCLE
5
112
100
AcDbEntity
8
0
100
AcDbCircle
10
-118.0298222097918
20
-9.3155686670483178
30
0
40
1.4999999999999967
210
0
220
0
230
1
0
CIRCLE
5
113
100
AcDbEntity
8
0
100
AcDbCircle
10
-101.1870581774928
20
24.588213756221663
30
0
40
1.4999999999999967
210
0
220
0
230
1
0
CIRCLE
5
114
100
AcDbEntity
8
0
100
AcDbCircle
10
-73.249556407793506
20
55.378606368127421
30
0
40
1.4999999999999967
210
0
220
0
230
1
0
CIRCLE
5
115
100
AcDbEntity
8
0
100
AcDbCircle
10
-41.743343467418853
20
78.049661299286413
30
0
40
1.4999999999999967
210
0
220
0
230
1
0
SPLINE
5
116
100
AcDbEntity
8
0
100
AcDbSpline
70
0
71
3
72
56
73
52
74
0
42
0.000000001
43
0.0000000001
44
0.0000000001
40
-0.027763565335814325
40
-0.027763565335814325
40
-0.027763565335814325
40
-0.027763565335814325
40
0
40
0
40
0
40
0.0625
40
0.0625
40
0.0625
40
0.12109375
40
0.12109375
40
0.12109375
40
0.16421144878973204
40
0.16421144878973204
40
0.16421144878973204
40
0.22187623412642229
40
0.22187623412642229
40
0.22187623412642229
40
0.26861604960880459
40
0.26861604960880459
40
0.26861604960880459
40
0.32809880712504819
40
0.32809880712504819
40
0.32809880712504819
40
0.3786490095022596
40
0.3786490095022596
40
0.3786490095022596
40
0.44114737768887596
40
0.44114737768887596
40
0.44114737768887596
40
0.49960707667575299
40
0.49960707667575299
40
0.49960707667575299
40
0.57414263932908582
40
0.57414263932908582
40
0.57414263932908582
40
0.62850694085709435
40
0.62850694085709435
40
0.62850694085709435
40
0.72138020564282079
40
0.72138020564282079
40
0.72138020564282079
40
0.78136969378579424
40
0.78136969378579424
40
0.78136969378579424
40
0.87362469934677622
40
0.87362469934677622
40
0.87362469934677622
40
0.96946477336348713
40
0.96946477336348713
40
0.96946477336348713
40
0.99481682160225338
40
0.99481682160225338
40
0.99481682160225338
40
0.99481682160225338
10
1.7763568394002505e-14
20
-67.942004065220473
30
0
10
1.2215085550046199
20
-68.884189658439766
30
0
10
2.4430171100092259
20
-69.826375251659087
30
0
10
3.6645256650138318
20
-70.768560844878408
30
0
10
6.0465858621170785
20
-72.605914165652649
30
0
10
10.059378927390238
20
-75.242776764704814
30
0
10
15.286038164203912
20
-78.24957020901968
30
0
10
20.186031198716734
20
-81.068439063064886
30
0
10
26.155601201540613
20
-84.215664817511779
30
0
10
32.34173471630244
20
-86.810721216185073
30
0
10
36.893958145636923
20
-88.720359362580595
30
0
10
41.53138357613885
20
-90.301006868763309
30
0
10
46.012211812604818
20
-91.365985705759059
30
0
10
52.004785758780301
20
-92.7902680247891
30
0
10
57.759050267123591
20
-93.313904165522928
30
0
10
63.431976098302741
20
-93.303641378860519
30
0
10
68.030129113984671
20
-93.295322944097705
30
0
10
72.576725818958977
20
-92.982504054815607
30
0
10
76.889744331010775
20
-92.302958802199257
30
0
10
82.378645638551205
20
-91.43814525799668
30
0
10
87.533718604498603
20
-89.898094398124414
30
0
10
92.38896840354947
20
-87.33552260270848
30
0
10
96.515102937021851
20
-85.157773482233779
30
0
10
100.43690754813936
20
-82.219531896407091
30
0
10
104.00605097930091
20
-78.636470033341325
30
0
10
108.41880562283404
20
-74.206507164305194
30
0
10
112.24146557628167
20
-68.848516036142144
30
0
10
115.14574387284837
20
-63.319254016228143
30
0
10
117.86234656052889
20
-58.147295088619472
30
0
10
119.78989794039491
20
-52.85017764395748
30
0
10
120.97402474910956
20
-47.538287281904879
30
0
10
122.48377521772306
20
-40.765677368581805
30
0
10
122.83768944364937
20
-33.945511686407983
30
0
10
121.95768526362583
20
-26.487942288805073
30
0
10
121.31583309419609
20
-21.048585061665321
30
0
10
119.98886274395618
20
-15.225332566195178
30
0
10
117.9349650337856
20
-9.0280459789804208
30
0
10
114.42618849259901
20
1.5590897330621034
30
0
10
108.79850776566056
20
13.152939860342318
30
0
10
101.72306638014368
20
23.788332421997623
30
0
10
97.152837174978472
20
30.658035532416797
30
0
10
91.993005889768909
20
37.115356121961703
30
0
10
86.25525098633392
20
43.149753119631256
30
0
10
77.431428231547727
20
52.429767765703623
30
0
10
67.190618083905775
20
60.799749725610823
30
0
10
55.292746802779796
20
69.087385383815075
30
0
10
42.932519221733678
20
77.697082061799563
30
0
10
28.807957401458289
20
86.21824916702505
30
0
10
12.948372197345853
20
94.858156678299096
30
0
10
8.7531232551197053
20
97.143623945009523
30
0
10
4.4368194751127259
20
99.434757500272781
30
0
10
-2.886579864025407e-14
20
101.73147661466484
30
0
6
DASHED
0
SPLINE
5
117
100
AcDbEntity
8
0
100
AcDbSpline
70
0
71
3
72
56
73
52
74
0
42
0.000000001
43
0.0000000001
44
0.0000000001
40
-0.027763565335814214
40
-0.027763565335814214
40
-0.027763565335814214
40
-0.027763565335814214
40
0
40
0
40
0
40
0.0625
40
0.0625
40
0.0625
40
0.12109375
40
0.12109375
40
0.12109375
40
0.16421144878968799
40
0.16421144878968799
40
0.16421144878968799
40
0.22187623412645902
40
0.22187623412645902
40
0.22187623412645902
40
0.26861604960858571
40
0.26861604960858571
40
0.26861604960858571
40
0.32809880712498735
40
0.32809880712498735
40
0.32809880712498735
40
0.37864900950235486
40
0.37864900950235486
40
0.37864900950235486
40
0.44114737768872392
40
0.44114737768872392
40
0.44114737768872392
40
0.49960707667541365
40
0.49960707667541365
40
0.49960707667541365
40
0.57414263932906739
40
0.57414263932906739
40
0.57414263932906739
40
0.62850694085663372
40
0.62850694085663372
40
0.62850694085663372
40
0.72138020564247529
40
0.72138020564247529
40
0.72138020564247529
40
0.78136969378553722
40
0.78136969378553722
40
0.78136969378553722
40
0.87362469934437903
40
0.87362469934437903
40
0.87362469934437903
40
0.9694647733629691
40
0.9694647733629691
40
0.9694647733629691
40
0.99481682160225338
40
0.99481682160225338
40
0.99481682160225338
40
0.99481682160225338
10
-1.8318679906315083e-14
20
-67.942004065220459
30
0
10
-1.2215085550046136
20
-68.88418965843978
30
0
10
-2.4430171100092144
20
-69.826375251659101
30
0
10
-3.6645256650138154
20
-70.768560844878408
30
0
10
-6.0465858621170607
20
-72.605914165652649
30
0
10
-10.059378927390185
20
-75.242776764704786
30
0
10
-15.286038164203894
20
-78.24957020901968
30
0
10
-20.186031198716748
20
-81.068439063064915
30
0
10
-26.15560120154025
20
-84.215664817511779
30
0
10
-32.341734716302355
20
-86.810721216185115
30
0
10
-36.893958145632382
20
-88.720359362578705
30
0
10
-41.531383576129805
20
-90.30100686876024
30
0
10
-46.01221181259109
20
-91.365985705755833
30
0
10
-52.00478575877483
20
-92.7902680247891
30
0
10
-57.759050267126177
20
-93.313904165523681
30
0
10
-63.43197609831347
20
-93.303641378860533
30
0
10
-68.030129113970418
20
-93.295322944097165
30
0
10
-72.576725818919783
20
-92.982504054817795
30
0
10
-76.889744330950123
20
-92.302958802208849
30
0
10
-82.378645638507848
20
-91.43814525800866
30
0
10
-87.533718604470437
20
-89.898094398136834
30
0
10
-92.388968403534633
20
-87.33552260271631
30
0
10
-96.515102937020146
20
-85.157773482236777
30
0
10
-100.43690754814975
20
-82.219531896400312
30
0
10
-104.00605097932109
20
-78.636470033321089
30
0
10
-108.41880562283521
20
-74.206507164299552
30
0
10
-112.24146557626807
20
-68.848516036158401
30
0
10
-115.14574387282721
20
-63.319254016268374
30
0
10
-117.86234656050271
20
-58.147295088678241
30
0
10
-119.78989794036946
20
-52.850177644032556
30
0
10
-120.97402474908901
20
-47.538287281997327
30
0
10
-122.48377521772011
20
-40.765677368645548
30
0
10
-122.83768944365318
20
-33.945511686445073
30
0
10
-121.95768526362647
20
-26.487942288810697
30
0
10
-121.31583309420242
20
-21.048585061715663
30
0
10
-119.98886274397934
20
-15.225332566296075
30
0
10
-117.9349650338378
20
-9.0280459791379535
30
0
10
-114.42618849266795
20
1.5590897329070597
30
0
10
-108.7985077657375
20
13.152939860203833
30
0
10
-101.72306638022266
20
23.78833242187887
30
0
10
-97.152837175057698
20
30.658035532312407
30
0
10
-91.993005889846046
20
37.115356121871898
30
0
10
-86.255250986407702
20
43.149753119553658
30
0
10
-77.431428231834047
20
52.429767765415825
30
0
10
-67.190618084473272
20
60.79974972514993
30
0
10
-55.292746803707296
20
69.087385383169021
30
0
10
-42.93251922250608
20
77.697082061329709
30
0
10
-28.807957402008036
20
86.218249166716205
30
0
10
-12.948372197603074
20
94.858156678159006
30
0
10
-8.7531232552960851
20
97.143623944915987
30
0
10
-4.4368194752034409
20
99.434757500225857
30
0
10
-4.3853809472693683e-14
20
101.73147661466484
30
0
6
DASHED
0
CIRCLE
5
118
100
AcDbEntity
8
0
100
AcDbCircle
10
-7.6378136019085101
20
97.719784643016197
30
0
40
1.4999999999999967
210
0
220
0
230
1
0
CIRCLE
5
119
100
AcDbEntity
8
0
100
AcDbCircle
10
-7.637813601908511
20
87.333875255463468
30
0
40
1.4999999999999967
210
0
220
0
230
1
0
CIRCLE
5
120
100
AcDbEntity
8
0
100
AcDbCircle
10
7.6378136019085137
20
86.723258318056381
30
0
40
1.4999999999999967
210
0
220
0
230
1
0
CIRCLE
5
121
100
AcDbEntity
8
0
100
AcDbCircle
10
-7.6378136019085119
20
73.551378668275618
30
0
40
1.4999999999999967
210
0
220
0
230
1
0
CIRCLE
5
122
100
AcDbEntity
8
0
100
AcDbCircle
10
7.6378136019085137
20
72.940761730868545
30
0
40
1.4999999999999967
210
0
220
0
230
1
0
CIRCLE
5
123
100
AcDbEntity
8
0
100
AcDbCircle
10
7.6378136019085137
20
60.030575054262314
30
0
40
1.4999999999999967
210
0
220
0
230
1
0
CIRCLE
5
124
100
AcDbEntity
8
0
100
AcDbCircle
10
-7.6378136019085137
20
60.030575054262314
30
0
40
1.4999999999999967
210
0
220
0
230
1
0
LINE
5
125
100
AcDbEntity
8
0
100
AcDbLine
10
-7.6378136019085137
20
60.030575054262314
30
0
11
0
21
60.030575054262314
31
0
6
DASHED
0
LINE
5
126
100
AcDbEntity
8
0
100
AcDbLine
10
7.6378136019085137
20
60.030575054262314
30
0
11
0
21
60.030575054262314
31
0
6
DASHED
0
LINE
5
127
100
AcDbEntity
8
0
100
AcDbLine
10
7.6378136019085137
20
60.030575054262314
30
0
11
7.6378136019085137
21
97.719784643016197
31
0
6
DASHED
0
LINE
5
128
100
AcDbEntity
8
0
100
AcDbLine
10
-7.6378136019085101
20
97.719784643016197
30
0
11
-7.6378136019085137
21
60.030575054262314
31
0
6
DASHED
0
CIRCLE
5
129
100
AcDbEntity
8
0
100
AcDbCircle
10
7.6378136019085137
20
97.719784643016197
30
0
40
1.4999999999999967
210
0
220
0
230
1
0
CIRCLE
5
130
100
AcDbEntity
8
0
100
AcDbCircle
10
72.612794842561229
20
-92.846263975990297
30
0
40
1.4999999999999967
210
0
220
0
230
1
0
CIRCLE
5
131
100
AcDbEntity
8
0
100
AcDbCircle
10
118.0298222097918
20
-9.3155686670483178
30
0
40
1.4999999999999967
210
0
220
0
230
1
0
CIRCLE
5
132
100
AcDbEntity
8
0
100
AcDbCircle
10
73.249556407793506
20
55.378606368127421
30
0
40
1.4999999999999967
210
0
220
0
230
1
0
CIRCLE
5
133
100
AcDbEntity
8
0
100
AcDbCircle
10
41.743343467418853
20
78.049661299286413
30
0
40
1.4999999999999967
210
0
220
0
230
1
0
LINE
5
134
100
AcDbEntity
8
0
100
AcDbLine
10
-6.9660358467041021
20
-61.71473554327558
30
0
11
4.7878367936959876e-15
21
-61.71473554327558
31
0
6
DASHED
0
LINE
5
135
100
AcDbEntity
8
0
100
AcDbLine
10
6.966035846704111
20
-61.71473554327558
30
0
11
4.7878367936959876e-15
21
-61.71473554327558
31
0
6
DASHED
0
LINE
5
136
100
AcDbEntity
8
0
100
AcDbLine
10
-6.9660358467041021
20
-61.71473554327558
30
0
11
-6.9660358467041048
21
-41.86920105545812
31
0
6
DASHED
0
LINE
5
137
100
AcDbEntity
8
0
100
AcDbLine
10
6.966035846704111
20
-61.71473554327558
30
0
11
6.966035846704111
21
-41.869201055458085
31
0
6
DASHED
0
CIRCLE
5
138
100
AcDbEntity
8
0
100
AcDbCircle
10
-6.9660358467041021
20
-61.71473554327558
30
0
40
1.4999999999999967
210
0
220
0
230
1
0
CIRCLE
5
139
100
AcDbEntity
8
0
100
AcDbCircle
10
-6.9660358467041021
20
-53.386498221547214
30
0
40
1.4999999999999967
210
0
220
0
230
1
0
CIRCLE
5
140
100
AcDbEntity
8
0
100
AcDbCircle
10
-6.9660358467041021
20
-45.058260899818848
30
0
40
1.4999999999999967
210
0
220
0
230
1
0
CIRCLE
5
141
100
AcDbEntity
8
0
100
AcDbCircle
10
6.966035846704111
20
-61.714735543275566
30
0
40
1.4999999999999967
210
0
220
0
230
1
0
CIRCLE
5
142
100
AcDbEntity
8
0
100
AcDbCircle
10
6.9660358467041084
20
-53.386498221547214
30
0
40
1.4999999999999967
210
0
220
0
230
1
0
CIRCLE
5
143
100
AcDbEntity
8
0
100
AcDbCircle
10
6.9660358467041039
20
-45.058260899818848
30
0
40
1.4999999999999967
210
0
220
0
230
1
0
CIRCLE
5
144
100
AcDbEntity
8
0
100
AcDbCircle
10
-7.0000000000000009
20
20.67859210943281
30
0
40
1.5000000000000002
210
0
220
0
230
1
0
CIRCLE
5
145
100
AcDbEntity
8
0
100
AcDbCircle
10
7.0000000000000009
20
20.67859210943281
30
0
40
1.5000000000000002
210
0
220
0
230
1
0
ENDSEC
0
SECTION
2
OBJECTS
0
DICTIONARY
5
C
100
AcDbDictionary
3
ACAD_GROUP
350
D
3
ACAD_MLINESTYLE
350
17
0
DICTIONARY
5
D
100
AcDbDictionary
0
DICTIONARY
5
1A
330
C
100
AcDbDictionary
0
DICTIONARY
5
17
100
AcDbDictionary
0
ENDSEC
0
EOF
