0
SECTION
2
HEADER
9
$INSUNITS
70
4
9
$ACADVER
1
AC1014
9
$HANDSEED
5
FFFF
0
ENDSEC
0
SECTION
2
TABLES
0
TABLE
2
VPORT
5
8
100
AcDbSymbolTable
0
ENDTAB
0
TABLE
2
LTYPE
5
5
100
AcDbSymbolTable
0
LTYPE
5
14
100
AcDbSymbolTableRecord
100
AcDbLinetypeTableRecord
2
BYBLOCK
70
0
0
LTYPE
5
15
100
AcDbSymbolTableRecord
100
AcDbLinetypeTableRecord
2
BYLAYER
70
0
0
LTYPE
5
16
100
AcDbSymbolTableRecord
100
AcDbLinetypeTableRecord
2
DASHED
70
0
3
Dashed __ __ __ __ __ __ __ __ __ __ __ __ __ _
72
65
73
2
40
0.75
49
0.5
74
0
49
-0.25
74
0
0
ENDTAB
0
TABLE
2
LAYER
5
2
100
AcDbSymbolTable
70
2
0
LAYER
5
50
100
AcDbSymbolTableRecord
100
AcDbLayerTableRecord
2
0
70
0
62
7
6
CONTINUOUS
0
ENDTAB
0
TABLE
2
STYLE
5
3
100
AcDbSymbolTable
70
1
0
STYLE
5
11
100
AcDbSymbolTableRecord
100
AcDbTextStyleTableRecord
2
STANDARD
70
0
0
ENDTAB
0
TABLE
2
VIEW
5
6
100
AcDbSymbolTable
70
0
0
ENDTAB
0
TABLE
2
UCS
5
7
100
AcDbSymbolTable
70
0
0
ENDTAB
0
TABLE
2
APPID
5
9
100
AcDbSymbolTable
70
2
0
APPID
5
12
100
AcDbSymbolTableRecord
100
AcDbRegAppTableRecord
2
ACAD
70
0
0
ENDTAB
0
TABLE
2
DIMSTYLE
5
A
100
AcDbSymbolTable
70
1
0
ENDTAB
0
TABLE
2
BLOCK_RECORD
5
1
100
AcDbSymbolTable
70
1
0
BLOCK_RECORD
5
1F
100
AcDbSymbolTableRecord
100
AcDbBlockTableRecord
2
*MODEL_SPACE
0
BLOCK_RECORD
5
1B
100
AcDbSymbolTableRecord
100
AcDbBlockTableRecord
2
*PAPER_SPACE
0
ENDTAB
0
ENDSEC
0
SECTION
2
BLOCKS
0
BLOCK
5
20
100
AcDbEntity
100
AcDbBlockBegin
2
*MODEL_SPACE
0
ENDBLK
5
21
100
AcDbEntity
100
AcDbBlockEnd
0
BLOCK
5
1C
100
AcDbEntity
100
AcDbBlockBegin
2
*PAPER_SPACE
0
ENDBLK
5
1D
100
AcDbEntity
100
AcDbBlockEnd
0
ENDSEC
0
SECTION
2
ENTITIES
0
SPLINE
5
100
100
AcDbEntity
8
0
100
AcDbSpline
70
4
71
5
72
61
73
55
74
0
42
0.000000001
43
0.0000000001
44
0.0000000001
40
0
40
0
40
0
40
0
40
0
40
0
40
0.02
40
0.040000000000000001
40
0.059999999999999998
40
0.080000000000000002
40
0.10000000000000001
40
0.12000000000000001
40
0.14000000000000001
40
0.16
40
0.17999999999999999
40
0.19999999999999998
40
0.21999999999999997
40
0.23999999999999996
40
0.25999999999999995
40
0.27999999999999997
40
0.29999999999999999
40
0.32000000000000001
40
0.34000000000000002
40
0.36000000000000004
40
0.38000000000000006
40
0.40000000000000008
40
0.4200000000000001
40
0.44000000000000011
40
0.46000000000000013
40
0.48000000000000015
40
0.50000000000000011
40
0.52000000000000013
40
0.54000000000000015
40
0.56000000000000016
40
0.58000000000000018
40
0.6000000000000002
40
0.62000000000000022
40
0.64000000000000024
40
0.66000000000000025
40
0.68000000000000027
40
0.70000000000000029
40
0.72000000000000031
40
0.74000000000000032
40
0.76000000000000034
40
0.78000000000000036
40
0.80000000000000038
40
0.8200000000000004
40
0.84000000000000041
40
0.86000000000000043
40
0.88000000000000045
40
0.90000000000000047
40
0.92000000000000048
40
0.9400000000000005
40
0.96000000000000052
40
0.98000000000000054
40
1
40
1
40
1
40
1
40
1
40
1
41
1
41
1
41
1
41
1
41
1
41
1
41
1
41
1
41
1
41
1
41
1
41
1
41
1
41
1
41
1
41
1
41
1
41
1
41
1
41
1
41
1
41
1
41
1
41
1
41
1
41
1
41
1
41
1
41
1
41
1
41
1
41
1
41
1
41
1
41
1
41
1
41
1
41
1
41
1
41
1
41
1
41
1
41
1
41
1
41
1
41
1
41
1
41
1
41
1
41
1
41
1
41
1
41
1
41
1
41
1
10
8.1477873770697378e-15
20
-75.519481981926987
30
0
10
-0.52796182632734301
20
-75.926714517873918
30
0
10
-1.6676930018851956
20
-76.774536460388603
30
0
10
-3.628691811185325
20
-78.14631237071228
30
0
10
-6.7466666449717225
20
-80.175802960218135
30
0
10
-11.463065767731964
20
-83.021310271479877
30
0
10
-16.938648270911369
20
-86.102252881019936
30
0
10
-23.044852377797529
20
-89.26238798496037
30
0
10
-29.596279171944314
20
-92.282222214573636
30
0
10
-36.387874322016806
20
-94.932318709405024
30
0
10
-43.225921245762692
20
-97.019039988070858
30
0
10
-49.958385595662207
20
-98.427867132496715
30
0
10
-56.513768878638203
20
-99.182465476804239
30
0
10
-62.889057373513182
20
-99.4053101554954
30
0
10
-69.116035053573484
20
-99.220020064742926
30
0
10
-75.236497116082703
20
-98.704694548435512
30
0
10
-81.269794703860015
20
-97.749880556173764
30
0
10
-87.19633389109805
20
-96.203022021498867
30
0
10
-92.970749672169788
20
-93.959655014252974
30
0
10
-98.528030626212797
20
-90.950573738542346
30
0
10
-103.79231383734742
20
-87.170555794708818
30
0
10
-108.68469293283367
20
-82.692966277656481
30
0
10
-113.12966680183681
20
-77.647945087916185
30
0
10
-117.06144597114576
20
-72.190817552896235
30
0
10
-120.42978198451686
20
-66.475594353965306
30
0
10
-123.20739083125585
20
-60.623414347782685
30
0
10
-125.39255849684093
20
-54.702333260405084
30
0
10
-126.99740092966363
20
-48.739038944279756
30
0
10
-128.03842851683243
20
-42.724818577973032
30
0
10
-128.52680614928158
20
-36.623929488135865
30
0
10
-128.45725989571164
20
-30.380225051999954
30
0
10
-127.81402248181907
20
-23.932187708995283
30
0
10
-126.57967591895957
20
-17.229640399140511
30
0
10
-124.74245638279484
20
-10.248659078918674
30
0
10
-122.30543442312856
20
-3.0102065667707962
30
0
10
-119.29111401562611
20
4.4119485158258378
30
0
10
-115.73375361953913
20
11.913179535046174
30
0
10
-111.67406859696655
20
19.374066967158164
30
0
10
-107.15280574268385
20
26.679436950156749
30
0
10
-102.20533466683392
20
33.734510807633143
30
0
10
-96.854522166485225
20
40.48636612096054
30
0
10
-91.109821457117093
20
46.925994662115329
30
0
10
-84.971189903736132
20
53.075230895960786
30
0
10
-78.431570807162174
20
58.97823058262594
30
0
10
-71.480032851898756
20
64.690902150673409
30
0
10
-64.104446120757729
20
70.271850794873799
30
0
10
-56.294802448171389
20
75.771259744552211
30
0
10
-48.044696898130177
20
81.225798182291271
30
0
10
-39.350254592928458
20
86.661900238264096
30
0
10
-30.209690526660662
20
92.09700179539513
30
0
10
-20.622632097119684
20
97.541577706325953
30
0
10
-12.59617486254422
20
101.90896764383544
30
0
10
-6.3759592828397924
20
105.19187927052621
30
0
10
-2.1401524995077006
20
107.38375964808938
30
0
10
0
20
108.48051801807303
30
0
6
DASHED
0
SPLINE
5
101
100
AcDbEntity
8
0
100
AcDbSpline
70
4
71
5
72
61
73
55
74
0
42
0.000000001
43
0.0000000001
44
0.0000000001
40
0
40
0
40
0
40
0
40
0
40
0
40
0.02
40
0.040000000000000001
40
0.059999999999999998
40
0.080000000000000002
40
0.10000000000000001
40
0.12000000000000001
40
0.14000000000000001
40
0.16
40
0.17999999999999999
40
0.19999999999999998
40
0.21999999999999997
40
0.23999999999999996
40
0.25999999999999995
40
0.27999999999999997
40
0.29999999999999999
40
0.32000000000000001
40
0.34000000000000002
40
0.36000000000000004
40
0.38000000000000006
40
0.40000000000000008
40
0.4200000000000001
40
0.44000000000000011
40
0.46000000000000013
40
0.48000000000000015
40
0.50000000000000011
40
0.52000000000000013
40
0.54000000000000015
40
0.56000000000000016
40
0.58000000000000018
40
0.6000000000000002
40
0.62000000000000022
40
0.64000000000000024
40
0.66000000000000025
40
0.68000000000000027
40
0.70000000000000029
40
0.72000000000000031
40
0.74000000000000032
40
0.76000000000000034
40
0.78000000000000036
40
0.80000000000000038
40
0.8200000000000004
40
0.84000000000000041
40
0.86000000000000043
40
0.88000000000000045
40
0.90000000000000047
40
0.92000000000000048
40
0.9400000000000005
40
0.96000000000000052
40
0.98000000000000054
40
1
40
1
40
1
40
1
40
1
40
1
41
1
41
1
41
1
41
1
41
1
41
1
41
1
41
1
41
1
41
1
41
1
41
1
41
1
41
1
41
1
41
1
41
1
41
1
41
1
41
1
41
1
41
1
41
1
41
1
41
1
41
1
41
1
41
1
41
1
41
1
41
1
41
1
41
1
41
1
41
1
41
1
41
1
41
1
41
1
41
1
41
1
41
1
41
1
41
1
41
1
41
1
41
1
41
1
41
1
41
1
41
1
41
1
41
1
41
1
41
1
10
8.1477873770697315e-15
20
-75.519481981926987
30
0
10
0.52796182632735955
20
-75.926714517873918
30
0
10
1.6676930018852127
20
-76.774536460388603
30
0
10
3.6286918111853428
20
-78.14631237071228
30
0
10
6.7466666449717412
20
-80.175802960218135
30
0
10
11.463065767731983
20
-83.021310271479877
30
0
10
16.938648270911393
20
-86.102252881019936
30
0
10
23.04485237779755
20
-89.262387984960355
30
0
10
29.596279171944335
20
-92.282222214573608
30
0
10
36.387874322016827
20
-94.932318709404996
30
0
10
43.22592124576272
20
-97.019039988070844
30
0
10
49.958385595662236
20
-98.427867132496687
30
0
10
56.513768878638231
20
-99.182465476804197
30
0
10
62.889057373513211
20
-99.405310155495371
30
0
10
69.116035053573512
20
-99.220020064742883
30
0
10
75.236497116082731
20
-98.704694548435469
30
0
10
81.269794703860043
20
-97.749880556173721
30
0
10
87.196333891098092
20
-96.203022021498839
30
0
10
92.970749672169831
20
-93.959655014252931
30
0
10
98.528030626212825
20
-90.950573738542303
30
0
10
103.79231383734745
20
-87.170555794708775
30
0
10
108.68469293283368
20
-82.692966277656424
30
0
10
113.12966680183683
20
-77.647945087916128
30
0
10
117.06144597114579
20
-72.190817552896192
30
0
10
120.42978198451689
20
-66.475594353965249
30
0
10
123.20739083125586
20
-60.623414347782621
30
0
10
125.39255849684093
20
-54.702333260405027
30
0
10
126.99740092966363
20
-48.739038944279692
30
0
10
128.03842851683243
20
-42.724818577972968
30
0
10
128.52680614928158
20
-36.623929488135801
30
0
10
128.45725989571164
20
-30.380225051999894
30
0
10
127.81402248181907
20
-23.932187708995222
30
0
10
126.57967591895955
20
-17.22964039914045
30
0
10
124.74245638279483
20
-10.248659078918614
30
0
10
122.30543442312853
20
-3.0102065667707367
30
0
10
119.29111401562609
20
4.4119485158258955
30
0
10
115.7337536195391
20
11.913179535046229
30
0
10
111.67406859696652
20
19.374066967158218
30
0
10
107.15280574268382
20
26.679436950156802
30
0
10
102.20533466683389
20
33.734510807633185
30
0
10
96.854522166485197
20
40.486366120960582
30
0
10
91.10982145711705
20
46.925994662115372
30
0
10
84.971189903736089
20
53.075230895960829
30
0
10
78.431570807162132
20
58.978230582625969
30
0
10
71.480032851898713
20
64.690902150673438
30
0
10
64.104446120757672
20
70.271850794873842
30
0
10
56.294802448171339
20
75.771259744552239
30
0
10
48.04469689813012
20
81.225798182291285
30
0
10
39.350254592928394
20
86.66190023826411
30
0
10
30.209690526660594
20
92.097001795395158
30
0
10
20.622632097119613
20
97.541577706325967
30
0
10
12.596174862544151
20
101.90896764383544
30
0
10
6.3759592828397214
20
105.19187927052621
30
0
10
2.1401524995076278
20
107.38375964808938
30
0
10
-7.3309310585785733e-14
20
108.48051801807303
30
0
6
DASHED
0
ENDSEC
0
SECTION
2
OBJECTS
0
DICTIONARY
5
C
100
AcDbDictionary
3
ACAD_GROUP
350
D
3
ACAD_MLINESTYLE
350
17
0
DICTIONARY
5
D
100
AcDbDictionary
0
DICTIONARY
5
1A
330
C
100
AcDbDictionary
0
DICTIONARY
5
17
100
AcDbDictionary
0
ENDSEC
0
EOF
