ISO-10303-21;
HEADER;
/* Generated by software containing ST-Developer
 * from STEP Tools, Inc. (www.steptools.com) 
 */

FILE_DESCRIPTION(
/* description */ (''),
/* implementation_level */ '2;1');

FILE_NAME(
/* name */ 'Frame_portabilis.step',
/* time_stamp */ '2026-04-06T21:27:14-03:00',
/* author */ (''),
/* organization */ (''),
/* preprocessor_version */ 'ST-DEVELOPER v20.1',
/* originating_system */ 'Autodesk Translation Framework v14.24.0.0',
/* authorisation */ '');

FILE_SCHEMA (('AUTOMOTIVE_DESIGN { 1 0 10303 214 3 1 1 }'));
ENDSEC;

DATA;
#10=MECHANICAL_DESIGN_GEOMETRIC_PRESENTATION_REPRESENTATION('',(#13),#1471);
#11=SHAPE_REPRESENTATION_RELATIONSHIP('SRR','None',#1478,#12);
#12=ADVANCED_BREP_SHAPE_REPRESENTATION('',(#14),#1470);
#13=STYLED_ITEM('',(#1487),#14);
#14=MANIFOLD_SOLID_BREP('Controladora (1)',#829);
#15=(
BOUNDED_CURVE()
B_SPLINE_CURVE(2,(#1373,#1374,#1375),.UNSPECIFIED.,.F.,.F.)
B_SPLINE_CURVE_WITH_KNOTS((3,3),(0.751132478327738,1.50226495665712),
 .UNSPECIFIED.)
CURVE()
GEOMETRIC_REPRESENTATION_ITEM()
RATIONAL_B_SPLINE_CURVE((1.25833333333333,1.25833333333362,1.))
REPRESENTATION_ITEM('')
);
#16=(
BOUNDED_CURVE()
B_SPLINE_CURVE(2,(#1379,#1380,#1381),.UNSPECIFIED.,.F.,.F.)
B_SPLINE_CURVE_WITH_KNOTS((3,3),(0.833996447629577,2.23700692891193),
 .UNSPECIFIED.)
CURVE()
GEOMETRIC_REPRESENTATION_ITEM()
RATIONAL_B_SPLINE_CURVE((1.66225165563086,2.09166666666666,2.09166666666667))
REPRESENTATION_ITEM('')
);
#17=(
BOUNDED_CURVE()
B_SPLINE_CURVE(2,(#1389,#1390,#1391),.UNSPECIFIED.,.F.,.F.)
B_SPLINE_CURVE_WITH_KNOTS((3,3),(2.23700692891193,3.64001741019429),
 .UNSPECIFIED.)
CURVE()
GEOMETRIC_REPRESENTATION_ITEM()
RATIONAL_B_SPLINE_CURVE((2.09166666666666,2.09166666666666,1.66225165563085))
REPRESENTATION_ITEM('')
);
#18=(
BOUNDED_CURVE()
B_SPLINE_CURVE(2,(#1397,#1398,#1399),.UNSPECIFIED.,.F.,.F.)
B_SPLINE_CURVE_WITH_KNOTS((3,3),(0.,0.751132478329378),.UNSPECIFIED.)
CURVE()
GEOMETRIC_REPRESENTATION_ITEM()
RATIONAL_B_SPLINE_CURVE((1.,1.25833333333362,1.25833333333334))
REPRESENTATION_ITEM('')
);
#19=(
BOUNDED_CURVE()
B_SPLINE_CURVE(2,(#1417,#1418,#1419),.UNSPECIFIED.,.F.,.F.)
B_SPLINE_CURVE_WITH_KNOTS((3,3),(2.23701714906831,3.64001741019429),
 .UNSPECIFIED.)
CURVE()
GEOMETRIC_REPRESENTATION_ITEM()
RATIONAL_B_SPLINE_CURVE((2.09166666664388,2.09166353861551,1.66225165563086))
REPRESENTATION_ITEM('')
);
#20=(
BOUNDED_CURVE()
B_SPLINE_CURVE(2,(#1420,#1421,#1422),.UNSPECIFIED.,.F.,.F.)
B_SPLINE_CURVE_WITH_KNOTS((3,3),(0.000464588414333342,0.751916298135479),
 .UNSPECIFIED.)
CURVE()
GEOMETRIC_REPRESENTATION_ITEM()
RATIONAL_B_SPLINE_CURVE((1.00031963237796,1.25873553739242,1.25873553739242))
REPRESENTATION_ITEM('')
);
#21=(
BOUNDED_CURVE()
B_SPLINE_CURVE(2,(#1428,#1429,#1430),.UNSPECIFIED.,.F.,.F.)
B_SPLINE_CURVE_WITH_KNOTS((3,3),(0.751132478312723,1.50226495662544),
 .UNSPECIFIED.)
CURVE()
GEOMETRIC_REPRESENTATION_ITEM()
RATIONAL_B_SPLINE_CURVE((1.25833333331681,1.25833333331681,1.))
REPRESENTATION_ITEM('')
);
#22=(
BOUNDED_CURVE()
B_SPLINE_CURVE(2,(#1432,#1433,#1434),.UNSPECIFIED.,.F.,.F.)
B_SPLINE_CURVE_WITH_KNOTS((3,3),(0.833996447629579,2.23699670875904),
 .UNSPECIFIED.)
CURVE()
GEOMETRIC_REPRESENTATION_ITEM()
RATIONAL_B_SPLINE_CURVE((1.66225165563086,2.09166353861657,2.09166666664388))
REPRESENTATION_ITEM('')
);
#23=CONICAL_SURFACE('',#919,6.6,0.785398163397448);
#24=CONICAL_SURFACE('',#922,6.6,0.785398163397448);
#25=CONICAL_SURFACE('',#930,6.6,0.785398163397448);
#26=CONICAL_SURFACE('',#932,6.6,0.785398163397448);
#27=FACE_BOUND('',#126,.T.);
#28=FACE_BOUND('',#128,.T.);
#29=FACE_BOUND('',#130,.T.);
#30=FACE_BOUND('',#133,.T.);
#31=FACE_BOUND('',#135,.T.);
#32=FACE_BOUND('',#138,.T.);
#33=FACE_BOUND('',#140,.T.);
#34=FACE_BOUND('',#143,.T.);
#35=FACE_BOUND('',#148,.T.);
#36=FACE_BOUND('',#153,.T.);
#37=FACE_BOUND('',#154,.T.);
#38=FACE_BOUND('',#155,.T.);
#39=FACE_BOUND('',#156,.T.);
#40=FACE_BOUND('',#157,.T.);
#41=PLANE('',#852);
#42=PLANE('',#862);
#43=PLANE('',#866);
#44=PLANE('',#876);
#45=PLANE('',#895);
#46=PLANE('',#897);
#47=PLANE('',#899);
#48=PLANE('',#903);
#49=PLANE('',#905);
#50=PLANE('',#909);
#51=PLANE('',#911);
#52=PLANE('',#915);
#53=PLANE('',#926);
#54=PLANE('',#934);
#55=PLANE('',#935);
#56=PLANE('',#940);
#57=PLANE('',#942);
#58=PLANE('',#945);
#59=FACE_OUTER_BOUND('',#105,.T.);
#60=FACE_OUTER_BOUND('',#106,.T.);
#61=FACE_OUTER_BOUND('',#107,.T.);
#62=FACE_OUTER_BOUND('',#108,.T.);
#63=FACE_OUTER_BOUND('',#109,.T.);
#64=FACE_OUTER_BOUND('',#110,.T.);
#65=FACE_OUTER_BOUND('',#111,.T.);
#66=FACE_OUTER_BOUND('',#112,.T.);
#67=FACE_OUTER_BOUND('',#113,.T.);
#68=FACE_OUTER_BOUND('',#114,.T.);
#69=FACE_OUTER_BOUND('',#115,.T.);
#70=FACE_OUTER_BOUND('',#116,.T.);
#71=FACE_OUTER_BOUND('',#117,.T.);
#72=FACE_OUTER_BOUND('',#118,.T.);
#73=FACE_OUTER_BOUND('',#119,.T.);
#74=FACE_OUTER_BOUND('',#120,.T.);
#75=FACE_OUTER_BOUND('',#121,.T.);
#76=FACE_OUTER_BOUND('',#122,.T.);
#77=FACE_OUTER_BOUND('',#123,.T.);
#78=FACE_OUTER_BOUND('',#124,.T.);
#79=FACE_OUTER_BOUND('',#125,.T.);
#80=FACE_OUTER_BOUND('',#127,.T.);
#81=FACE_OUTER_BOUND('',#129,.T.);
#82=FACE_OUTER_BOUND('',#131,.T.);
#83=FACE_OUTER_BOUND('',#132,.T.);
#84=FACE_OUTER_BOUND('',#134,.T.);
#85=FACE_OUTER_BOUND('',#136,.T.);
#86=FACE_OUTER_BOUND('',#137,.T.);
#87=FACE_OUTER_BOUND('',#139,.T.);
#88=FACE_OUTER_BOUND('',#141,.T.);
#89=FACE_OUTER_BOUND('',#142,.T.);
#90=FACE_OUTER_BOUND('',#144,.T.);
#91=FACE_OUTER_BOUND('',#145,.T.);
#92=FACE_OUTER_BOUND('',#146,.T.);
#93=FACE_OUTER_BOUND('',#147,.T.);
#94=FACE_OUTER_BOUND('',#149,.T.);
#95=FACE_OUTER_BOUND('',#150,.T.);
#96=FACE_OUTER_BOUND('',#151,.T.);
#97=FACE_OUTER_BOUND('',#152,.T.);
#98=FACE_OUTER_BOUND('',#158,.T.);
#99=FACE_OUTER_BOUND('',#159,.T.);
#100=FACE_OUTER_BOUND('',#160,.T.);
#101=FACE_OUTER_BOUND('',#161,.T.);
#102=FACE_OUTER_BOUND('',#162,.T.);
#103=FACE_OUTER_BOUND('',#163,.T.);
#104=FACE_OUTER_BOUND('',#164,.T.);
#105=EDGE_LOOP('',(#523,#524,#525,#526));
#106=EDGE_LOOP('',(#527,#528,#529,#530));
#107=EDGE_LOOP('',(#531,#532,#533,#534));
#108=EDGE_LOOP('',(#535,#536,#537,#538));
#109=EDGE_LOOP('',(#539,#540,#541,#542));
#110=EDGE_LOOP('',(#543,#544,#545,#546));
#111=EDGE_LOOP('',(#547,#548,#549,#550));
#112=EDGE_LOOP('',(#551,#552,#553,#554));
#113=EDGE_LOOP('',(#555,#556,#557,#558));
#114=EDGE_LOOP('',(#559,#560,#561,#562));
#115=EDGE_LOOP('',(#563,#564,#565,#566));
#116=EDGE_LOOP('',(#567,#568,#569,#570));
#117=EDGE_LOOP('',(#571,#572,#573,#574));
#118=EDGE_LOOP('',(#575,#576,#577,#578));
#119=EDGE_LOOP('',(#579,#580,#581,#582));
#120=EDGE_LOOP('',(#583,#584,#585,#586));
#121=EDGE_LOOP('',(#587,#588,#589,#590));
#122=EDGE_LOOP('',(#591,#592,#593,#594));
#123=EDGE_LOOP('',(#595,#596,#597,#598));
#124=EDGE_LOOP('',(#599,#600,#601,#602));
#125=EDGE_LOOP('',(#603));
#126=EDGE_LOOP('',(#604));
#127=EDGE_LOOP('',(#605));
#128=EDGE_LOOP('',(#606));
#129=EDGE_LOOP('',(#607));
#130=EDGE_LOOP('',(#608));
#131=EDGE_LOOP('',(#609,#610,#611,#612));
#132=EDGE_LOOP('',(#613));
#133=EDGE_LOOP('',(#614));
#134=EDGE_LOOP('',(#615));
#135=EDGE_LOOP('',(#616));
#136=EDGE_LOOP('',(#617,#618,#619,#620));
#137=EDGE_LOOP('',(#621));
#138=EDGE_LOOP('',(#622));
#139=EDGE_LOOP('',(#623));
#140=EDGE_LOOP('',(#624));
#141=EDGE_LOOP('',(#625,#626,#627,#628));
#142=EDGE_LOOP('',(#629));
#143=EDGE_LOOP('',(#630));
#144=EDGE_LOOP('',(#631,#632,#633,#634));
#145=EDGE_LOOP('',(#635,#636,#637,#638,#639,#640,#641));
#146=EDGE_LOOP('',(#642,#643,#644,#645,#646,#647,#648,#649));
#147=EDGE_LOOP('',(#650,#651,#652,#653,#654,#655,#656,#657,#658,#659));
#148=EDGE_LOOP('',(#660,#661,#662,#663,#664,#665,#666,#667,#668,#669,#670,
#671,#672,#673,#674,#675));
#149=EDGE_LOOP('',(#676,#677,#678,#679,#680,#681,#682));
#150=EDGE_LOOP('',(#683,#684,#685,#686,#687,#688,#689,#690));
#151=EDGE_LOOP('',(#691,#692,#693,#694,#695,#696));
#152=EDGE_LOOP('',(#697,#698,#699,#700,#701,#702,#703,#704));
#153=EDGE_LOOP('',(#705,#706,#707,#708,#709,#710,#711,#712,#713,#714,#715,
#716,#717,#718,#719,#720));
#154=EDGE_LOOP('',(#721));
#155=EDGE_LOOP('',(#722));
#156=EDGE_LOOP('',(#723));
#157=EDGE_LOOP('',(#724));
#158=EDGE_LOOP('',(#725,#726,#727,#728,#729,#730));
#159=EDGE_LOOP('',(#731,#732,#733,#734));
#160=EDGE_LOOP('',(#735,#736,#737,#738,#739,#740));
#161=EDGE_LOOP('',(#741,#742,#743,#744));
#162=EDGE_LOOP('',(#745,#746,#747,#748));
#163=EDGE_LOOP('',(#749,#750,#751,#752,#753,#754));
#164=EDGE_LOOP('',(#755,#756,#757,#758));
#165=LINE('',#1215,#217);
#166=LINE('',#1218,#218);
#167=LINE('',#1223,#219);
#168=LINE('',#1230,#220);
#169=LINE('',#1233,#221);
#170=LINE('',#1235,#222);
#171=LINE('',#1236,#223);
#172=LINE('',#1242,#224);
#173=LINE('',#1245,#225);
#174=LINE('',#1253,#226);
#175=LINE('',#1257,#227);
#176=LINE('',#1259,#228);
#177=LINE('',#1260,#229);
#178=LINE('',#1266,#230);
#179=LINE('',#1269,#231);
#180=LINE('',#1271,#232);
#181=LINE('',#1272,#233);
#182=LINE('',#1277,#234);
#183=LINE('',#1283,#235);
#184=LINE('',#1289,#236);
#185=LINE('',#1293,#237);
#186=LINE('',#1295,#238);
#187=LINE('',#1296,#239);
#188=LINE('',#1301,#240);
#189=LINE('',#1310,#241);
#190=LINE('',#1316,#242);
#191=LINE('',#1322,#243);
#192=LINE('',#1328,#244);
#193=LINE('',#1342,#245);
#194=LINE('',#1352,#246);
#195=LINE('',#1362,#247);
#196=LINE('',#1369,#248);
#197=LINE('',#1383,#249);
#198=LINE('',#1394,#250);
#199=LINE('',#1402,#251);
#200=LINE('',#1406,#252);
#201=LINE('',#1411,#253);
#202=LINE('',#1412,#254);
#203=LINE('',#1423,#255);
#204=LINE('',#1431,#256);
#205=LINE('',#1437,#257);
#206=LINE('',#1439,#258);
#207=LINE('',#1440,#259);
#208=LINE('',#1445,#260);
#209=LINE('',#1449,#261);
#210=LINE('',#1453,#262);
#211=LINE('',#1456,#263);
#212=LINE('',#1457,#264);
#213=LINE('',#1459,#265);
#214=LINE('',#1461,#266);
#215=LINE('',#1464,#267);
#216=LINE('',#1466,#268);
#217=VECTOR('',#953,10.);
#218=VECTOR('',#956,10.);
#219=VECTOR('',#961,10.);
#220=VECTOR('',#968,10.);
#221=VECTOR('',#971,10.);
#222=VECTOR('',#974,10.);
#223=VECTOR('',#975,10.);
#224=VECTOR('',#980,10.);
#225=VECTOR('',#983,10.);
#226=VECTOR('',#994,10.);
#227=VECTOR('',#999,10.);
#228=VECTOR('',#1000,10.);
#229=VECTOR('',#1001,10.);
#230=VECTOR('',#1006,10.);
#231=VECTOR('',#1009,10.);
#232=VECTOR('',#1012,10.);
#233=VECTOR('',#1013,10.);
#234=VECTOR('',#1018,10.);
#235=VECTOR('',#1025,10.);
#236=VECTOR('',#1032,10.);
#237=VECTOR('',#1037,10.);
#238=VECTOR('',#1038,10.);
#239=VECTOR('',#1039,10.);
#240=VECTOR('',#1044,10.);
#241=VECTOR('',#1057,1.65);
#242=VECTOR('',#1064,1.65);
#243=VECTOR('',#1071,1.65);
#244=VECTOR('',#1078,1.65);
#245=VECTOR('',#1097,2.1);
#246=VECTOR('',#1110,2.1);
#247=VECTOR('',#1123,2.1);
#248=VECTOR('',#1132,2.1);
#249=VECTOR('',#1139,6.6);
#250=VECTOR('',#1146,6.6);
#251=VECTOR('',#1151,10.);
#252=VECTOR('',#1154,10.);
#253=VECTOR('',#1159,10.);
#254=VECTOR('',#1160,10.);
#255=VECTOR('',#1165,6.6);
#256=VECTOR('',#1170,6.6);
#257=VECTOR('',#1173,10.);
#258=VECTOR('',#1174,10.);
#259=VECTOR('',#1175,10.);
#260=VECTOR('',#1180,10.);
#261=VECTOR('',#1183,10.);
#262=VECTOR('',#1186,10.);
#263=VECTOR('',#1191,10.);
#264=VECTOR('',#1192,10.);
#265=VECTOR('',#1195,10.);
#266=VECTOR('',#1198,10.);
#267=VECTOR('',#1203,10.);
#268=VECTOR('',#1206,10.);
#269=CIRCLE('',#844,1.);
#270=CIRCLE('',#845,1.);
#271=CIRCLE('',#847,12.1);
#272=CIRCLE('',#848,12.1);
#273=CIRCLE('',#850,1.);
#274=CIRCLE('',#851,1.);
#275=CIRCLE('',#854,1.);
#276=CIRCLE('',#855,1.);
#277=CIRCLE('',#857,12.1);
#278=CIRCLE('',#858,12.1);
#279=CIRCLE('',#860,1.);
#280=CIRCLE('',#861,1.);
#281=CIRCLE('',#864,1.);
#282=CIRCLE('',#865,1.);
#283=CIRCLE('',#868,1.);
#284=CIRCLE('',#869,1.);
#285=CIRCLE('',#871,12.1);
#286=CIRCLE('',#872,12.1);
#287=CIRCLE('',#874,1.);
#288=CIRCLE('',#875,1.);
#289=CIRCLE('',#878,1.);
#290=CIRCLE('',#879,1.);
#291=CIRCLE('',#881,12.1);
#292=CIRCLE('',#882,12.1);
#293=CIRCLE('',#884,1.65);
#294=CIRCLE('',#885,1.65);
#295=CIRCLE('',#887,1.65);
#296=CIRCLE('',#888,1.65);
#297=CIRCLE('',#890,1.65);
#298=CIRCLE('',#891,1.65);
#299=CIRCLE('',#893,1.65);
#300=CIRCLE('',#894,1.65);
#301=CIRCLE('',#896,2.1);
#302=CIRCLE('',#898,2.1);
#303=CIRCLE('',#900,4.1);
#304=CIRCLE('',#901,2.1);
#305=CIRCLE('',#904,2.1);
#306=CIRCLE('',#906,4.1);
#307=CIRCLE('',#907,2.1);
#308=CIRCLE('',#910,2.1);
#309=CIRCLE('',#912,4.1);
#310=CIRCLE('',#913,2.1);
#311=CIRCLE('',#916,4.1);
#312=CIRCLE('',#917,2.1);
#313=CIRCLE('',#920,9.1);
#314=CIRCLE('',#921,6.);
#315=CIRCLE('',#923,6.00000000000001);
#316=CIRCLE('',#924,9.1);
#317=CIRCLE('',#925,9.1);
#318=CIRCLE('',#927,9.1);
#319=CIRCLE('',#928,9.1);
#320=CIRCLE('',#929,9.1);
#321=CIRCLE('',#931,6.00000000013072);
#322=CIRCLE('',#933,6.0000000001307);
#323=CIRCLE('',#936,6.00000000013072);
#324=CIRCLE('',#937,6.);
#325=CIRCLE('',#938,6.00000000000001);
#326=CIRCLE('',#939,6.0000000001307);
#327=VERTEX_POINT('',#1211);
#328=VERTEX_POINT('',#1212);
#329=VERTEX_POINT('',#1214);
#330=VERTEX_POINT('',#1216);
#331=VERTEX_POINT('',#1220);
#332=VERTEX_POINT('',#1222);
#333=VERTEX_POINT('',#1226);
#334=VERTEX_POINT('',#1227);
#335=VERTEX_POINT('',#1229);
#336=VERTEX_POINT('',#1231);
#337=VERTEX_POINT('',#1238);
#338=VERTEX_POINT('',#1239);
#339=VERTEX_POINT('',#1241);
#340=VERTEX_POINT('',#1243);
#341=VERTEX_POINT('',#1250);
#342=VERTEX_POINT('',#1252);
#343=VERTEX_POINT('',#1256);
#344=VERTEX_POINT('',#1258);
#345=VERTEX_POINT('',#1262);
#346=VERTEX_POINT('',#1263);
#347=VERTEX_POINT('',#1265);
#348=VERTEX_POINT('',#1267);
#349=VERTEX_POINT('',#1274);
#350=VERTEX_POINT('',#1276);
#351=VERTEX_POINT('',#1280);
#352=VERTEX_POINT('',#1282);
#353=VERTEX_POINT('',#1286);
#354=VERTEX_POINT('',#1288);
#355=VERTEX_POINT('',#1292);
#356=VERTEX_POINT('',#1294);
#357=VERTEX_POINT('',#1298);
#358=VERTEX_POINT('',#1300);
#359=VERTEX_POINT('',#1307);
#360=VERTEX_POINT('',#1309);
#361=VERTEX_POINT('',#1313);
#362=VERTEX_POINT('',#1315);
#363=VERTEX_POINT('',#1319);
#364=VERTEX_POINT('',#1321);
#365=VERTEX_POINT('',#1325);
#366=VERTEX_POINT('',#1327);
#367=VERTEX_POINT('',#1331);
#368=VERTEX_POINT('',#1334);
#369=VERTEX_POINT('',#1337);
#370=VERTEX_POINT('',#1339);
#371=VERTEX_POINT('',#1344);
#372=VERTEX_POINT('',#1347);
#373=VERTEX_POINT('',#1349);
#374=VERTEX_POINT('',#1354);
#375=VERTEX_POINT('',#1357);
#376=VERTEX_POINT('',#1359);
#377=VERTEX_POINT('',#1364);
#378=VERTEX_POINT('',#1366);
#379=VERTEX_POINT('',#1371);
#380=VERTEX_POINT('',#1372);
#381=VERTEX_POINT('',#1376);
#382=VERTEX_POINT('',#1378);
#383=VERTEX_POINT('',#1385);
#384=VERTEX_POINT('',#1386);
#385=VERTEX_POINT('',#1388);
#386=VERTEX_POINT('',#1392);
#387=VERTEX_POINT('',#1395);
#388=VERTEX_POINT('',#1401);
#389=VERTEX_POINT('',#1403);
#390=VERTEX_POINT('',#1405);
#391=VERTEX_POINT('',#1407);
#392=VERTEX_POINT('',#1409);
#393=VERTEX_POINT('',#1414);
#394=VERTEX_POINT('',#1415);
#395=VERTEX_POINT('',#1425);
#396=VERTEX_POINT('',#1426);
#397=VERTEX_POINT('',#1436);
#398=VERTEX_POINT('',#1438);
#399=VERTEX_POINT('',#1442);
#400=VERTEX_POINT('',#1444);
#401=VERTEX_POINT('',#1446);
#402=VERTEX_POINT('',#1448);
#403=VERTEX_POINT('',#1450);
#404=VERTEX_POINT('',#1452);
#405=EDGE_CURVE('',#327,#328,#269,.T.);
#406=EDGE_CURVE('',#328,#329,#165,.T.);
#407=EDGE_CURVE('',#329,#330,#270,.T.);
#408=EDGE_CURVE('',#330,#327,#166,.T.);
#409=EDGE_CURVE('',#331,#328,#271,.T.);
#410=EDGE_CURVE('',#332,#331,#167,.T.);
#411=EDGE_CURVE('',#329,#332,#272,.T.);
#412=EDGE_CURVE('',#333,#334,#273,.T.);
#413=EDGE_CURVE('',#334,#335,#168,.T.);
#414=EDGE_CURVE('',#335,#336,#274,.T.);
#415=EDGE_CURVE('',#336,#333,#169,.T.);
#416=EDGE_CURVE('',#335,#330,#170,.T.);
#417=EDGE_CURVE('',#327,#334,#171,.T.);
#418=EDGE_CURVE('',#337,#338,#275,.T.);
#419=EDGE_CURVE('',#338,#339,#172,.T.);
#420=EDGE_CURVE('',#339,#340,#276,.T.);
#421=EDGE_CURVE('',#340,#337,#173,.T.);
#422=EDGE_CURVE('',#339,#336,#277,.T.);
#423=EDGE_CURVE('',#333,#338,#278,.T.);
#424=EDGE_CURVE('',#331,#341,#279,.T.);
#425=EDGE_CURVE('',#341,#342,#174,.T.);
#426=EDGE_CURVE('',#342,#332,#280,.T.);
#427=EDGE_CURVE('',#343,#341,#175,.T.);
#428=EDGE_CURVE('',#344,#343,#176,.T.);
#429=EDGE_CURVE('',#342,#344,#177,.T.);
#430=EDGE_CURVE('',#345,#346,#281,.T.);
#431=EDGE_CURVE('',#346,#347,#178,.T.);
#432=EDGE_CURVE('',#347,#348,#282,.T.);
#433=EDGE_CURVE('',#348,#345,#179,.T.);
#434=EDGE_CURVE('',#347,#340,#180,.T.);
#435=EDGE_CURVE('',#337,#346,#181,.T.);
#436=EDGE_CURVE('',#343,#349,#283,.T.);
#437=EDGE_CURVE('',#349,#350,#182,.T.);
#438=EDGE_CURVE('',#350,#344,#284,.T.);
#439=EDGE_CURVE('',#351,#349,#285,.T.);
#440=EDGE_CURVE('',#352,#351,#183,.T.);
#441=EDGE_CURVE('',#350,#352,#286,.T.);
#442=EDGE_CURVE('',#351,#353,#287,.T.);
#443=EDGE_CURVE('',#353,#354,#184,.T.);
#444=EDGE_CURVE('',#354,#352,#288,.T.);
#445=EDGE_CURVE('',#355,#353,#185,.T.);
#446=EDGE_CURVE('',#356,#355,#186,.T.);
#447=EDGE_CURVE('',#354,#356,#187,.T.);
#448=EDGE_CURVE('',#355,#357,#289,.T.);
#449=EDGE_CURVE('',#357,#358,#188,.T.);
#450=EDGE_CURVE('',#358,#356,#290,.T.);
#451=EDGE_CURVE('',#358,#348,#291,.T.);
#452=EDGE_CURVE('',#345,#357,#292,.T.);
#453=EDGE_CURVE('',#359,#359,#293,.T.);
#454=EDGE_CURVE('',#359,#360,#189,.T.);
#455=EDGE_CURVE('',#360,#360,#294,.T.);
#456=EDGE_CURVE('',#361,#361,#295,.T.);
#457=EDGE_CURVE('',#361,#362,#190,.T.);
#458=EDGE_CURVE('',#362,#362,#296,.T.);
#459=EDGE_CURVE('',#363,#363,#297,.T.);
#460=EDGE_CURVE('',#363,#364,#191,.T.);
#461=EDGE_CURVE('',#364,#364,#298,.T.);
#462=EDGE_CURVE('',#365,#365,#299,.T.);
#463=EDGE_CURVE('',#365,#366,#192,.T.);
#464=EDGE_CURVE('',#366,#366,#300,.T.);
#465=EDGE_CURVE('',#367,#367,#301,.T.);
#466=EDGE_CURVE('',#368,#368,#302,.T.);
#467=EDGE_CURVE('',#369,#369,#303,.T.);
#468=EDGE_CURVE('',#370,#370,#304,.T.);
#469=EDGE_CURVE('',#370,#367,#193,.T.);
#470=EDGE_CURVE('',#371,#371,#305,.T.);
#471=EDGE_CURVE('',#372,#372,#306,.T.);
#472=EDGE_CURVE('',#373,#373,#307,.T.);
#473=EDGE_CURVE('',#373,#368,#194,.T.);
#474=EDGE_CURVE('',#374,#374,#308,.T.);
#475=EDGE_CURVE('',#375,#375,#309,.T.);
#476=EDGE_CURVE('',#376,#376,#310,.T.);
#477=EDGE_CURVE('',#376,#371,#195,.T.);
#478=EDGE_CURVE('',#377,#377,#311,.T.);
#479=EDGE_CURVE('',#378,#378,#312,.T.);
#480=EDGE_CURVE('',#378,#374,#196,.T.);
#481=EDGE_CURVE('',#379,#380,#15,.T.);
#482=EDGE_CURVE('',#380,#381,#313,.T.);
#483=EDGE_CURVE('',#382,#381,#16,.F.);
#484=EDGE_CURVE('',#382,#379,#314,.T.);
#485=EDGE_CURVE('',#379,#375,#197,.T.);
#486=EDGE_CURVE('',#383,#384,#315,.T.);
#487=EDGE_CURVE('',#385,#384,#17,.F.);
#488=EDGE_CURVE('',#385,#386,#316,.T.);
#489=EDGE_CURVE('',#386,#369,#198,.T.);
#490=EDGE_CURVE('',#386,#387,#317,.T.);
#491=EDGE_CURVE('',#387,#383,#18,.T.);
#492=EDGE_CURVE('',#380,#388,#199,.T.);
#493=EDGE_CURVE('',#389,#388,#318,.T.);
#494=EDGE_CURVE('',#390,#389,#200,.T.);
#495=EDGE_CURVE('',#391,#390,#319,.T.);
#496=EDGE_CURVE('',#392,#391,#320,.T.);
#497=EDGE_CURVE('',#392,#387,#201,.T.);
#498=EDGE_CURVE('',#385,#381,#202,.T.);
#499=EDGE_CURVE('',#393,#394,#321,.T.);
#500=EDGE_CURVE('',#389,#394,#19,.F.);
#501=EDGE_CURVE('',#388,#393,#20,.T.);
#502=EDGE_CURVE('',#393,#377,#203,.T.);
#503=EDGE_CURVE('',#395,#396,#322,.T.);
#504=EDGE_CURVE('',#396,#392,#21,.T.);
#505=EDGE_CURVE('',#391,#372,#204,.T.);
#506=EDGE_CURVE('',#395,#390,#22,.F.);
#507=EDGE_CURVE('',#394,#397,#205,.T.);
#508=EDGE_CURVE('',#398,#397,#206,.T.);
#509=EDGE_CURVE('',#395,#398,#207,.T.);
#510=EDGE_CURVE('',#397,#399,#323,.T.);
#511=EDGE_CURVE('',#399,#400,#208,.T.);
#512=EDGE_CURVE('',#400,#401,#324,.T.);
#513=EDGE_CURVE('',#401,#402,#209,.T.);
#514=EDGE_CURVE('',#402,#403,#325,.T.);
#515=EDGE_CURVE('',#403,#404,#210,.T.);
#516=EDGE_CURVE('',#404,#398,#326,.T.);
#517=EDGE_CURVE('',#382,#401,#211,.T.);
#518=EDGE_CURVE('',#384,#402,#212,.T.);
#519=EDGE_CURVE('',#403,#383,#213,.T.);
#520=EDGE_CURVE('',#404,#396,#214,.T.);
#521=EDGE_CURVE('',#399,#393,#215,.T.);
#522=EDGE_CURVE('',#400,#379,#216,.T.);
#523=ORIENTED_EDGE('',*,*,#405,.T.);
#524=ORIENTED_EDGE('',*,*,#406,.T.);
#525=ORIENTED_EDGE('',*,*,#407,.T.);
#526=ORIENTED_EDGE('',*,*,#408,.T.);
#527=ORIENTED_EDGE('',*,*,#406,.F.);
#528=ORIENTED_EDGE('',*,*,#409,.F.);
#529=ORIENTED_EDGE('',*,*,#410,.F.);
#530=ORIENTED_EDGE('',*,*,#411,.F.);
#531=ORIENTED_EDGE('',*,*,#412,.T.);
#532=ORIENTED_EDGE('',*,*,#413,.T.);
#533=ORIENTED_EDGE('',*,*,#414,.T.);
#534=ORIENTED_EDGE('',*,*,#415,.T.);
#535=ORIENTED_EDGE('',*,*,#408,.F.);
#536=ORIENTED_EDGE('',*,*,#416,.F.);
#537=ORIENTED_EDGE('',*,*,#413,.F.);
#538=ORIENTED_EDGE('',*,*,#417,.F.);
#539=ORIENTED_EDGE('',*,*,#418,.T.);
#540=ORIENTED_EDGE('',*,*,#419,.T.);
#541=ORIENTED_EDGE('',*,*,#420,.T.);
#542=ORIENTED_EDGE('',*,*,#421,.T.);
#543=ORIENTED_EDGE('',*,*,#415,.F.);
#544=ORIENTED_EDGE('',*,*,#422,.F.);
#545=ORIENTED_EDGE('',*,*,#419,.F.);
#546=ORIENTED_EDGE('',*,*,#423,.F.);
#547=ORIENTED_EDGE('',*,*,#424,.T.);
#548=ORIENTED_EDGE('',*,*,#425,.T.);
#549=ORIENTED_EDGE('',*,*,#426,.T.);
#550=ORIENTED_EDGE('',*,*,#410,.T.);
#551=ORIENTED_EDGE('',*,*,#425,.F.);
#552=ORIENTED_EDGE('',*,*,#427,.F.);
#553=ORIENTED_EDGE('',*,*,#428,.F.);
#554=ORIENTED_EDGE('',*,*,#429,.F.);
#555=ORIENTED_EDGE('',*,*,#430,.T.);
#556=ORIENTED_EDGE('',*,*,#431,.T.);
#557=ORIENTED_EDGE('',*,*,#432,.T.);
#558=ORIENTED_EDGE('',*,*,#433,.T.);
#559=ORIENTED_EDGE('',*,*,#421,.F.);
#560=ORIENTED_EDGE('',*,*,#434,.F.);
#561=ORIENTED_EDGE('',*,*,#431,.F.);
#562=ORIENTED_EDGE('',*,*,#435,.F.);
#563=ORIENTED_EDGE('',*,*,#436,.T.);
#564=ORIENTED_EDGE('',*,*,#437,.T.);
#565=ORIENTED_EDGE('',*,*,#438,.T.);
#566=ORIENTED_EDGE('',*,*,#428,.T.);
#567=ORIENTED_EDGE('',*,*,#437,.F.);
#568=ORIENTED_EDGE('',*,*,#439,.F.);
#569=ORIENTED_EDGE('',*,*,#440,.F.);
#570=ORIENTED_EDGE('',*,*,#441,.F.);
#571=ORIENTED_EDGE('',*,*,#442,.T.);
#572=ORIENTED_EDGE('',*,*,#443,.T.);
#573=ORIENTED_EDGE('',*,*,#444,.T.);
#574=ORIENTED_EDGE('',*,*,#440,.T.);
#575=ORIENTED_EDGE('',*,*,#443,.F.);
#576=ORIENTED_EDGE('',*,*,#445,.F.);
#577=ORIENTED_EDGE('',*,*,#446,.F.);
#578=ORIENTED_EDGE('',*,*,#447,.F.);
#579=ORIENTED_EDGE('',*,*,#448,.T.);
#580=ORIENTED_EDGE('',*,*,#449,.T.);
#581=ORIENTED_EDGE('',*,*,#450,.T.);
#582=ORIENTED_EDGE('',*,*,#446,.T.);
#583=ORIENTED_EDGE('',*,*,#433,.F.);
#584=ORIENTED_EDGE('',*,*,#451,.F.);
#585=ORIENTED_EDGE('',*,*,#449,.F.);
#586=ORIENTED_EDGE('',*,*,#452,.F.);
#587=ORIENTED_EDGE('',*,*,#453,.F.);
#588=ORIENTED_EDGE('',*,*,#454,.T.);
#589=ORIENTED_EDGE('',*,*,#455,.T.);
#590=ORIENTED_EDGE('',*,*,#454,.F.);
#591=ORIENTED_EDGE('',*,*,#456,.F.);
#592=ORIENTED_EDGE('',*,*,#457,.T.);
#593=ORIENTED_EDGE('',*,*,#458,.T.);
#594=ORIENTED_EDGE('',*,*,#457,.F.);
#595=ORIENTED_EDGE('',*,*,#459,.F.);
#596=ORIENTED_EDGE('',*,*,#460,.T.);
#597=ORIENTED_EDGE('',*,*,#461,.T.);
#598=ORIENTED_EDGE('',*,*,#460,.F.);
#599=ORIENTED_EDGE('',*,*,#462,.F.);
#600=ORIENTED_EDGE('',*,*,#463,.T.);
#601=ORIENTED_EDGE('',*,*,#464,.T.);
#602=ORIENTED_EDGE('',*,*,#463,.F.);
#603=ORIENTED_EDGE('',*,*,#465,.T.);
#604=ORIENTED_EDGE('',*,*,#455,.F.);
#605=ORIENTED_EDGE('',*,*,#466,.T.);
#606=ORIENTED_EDGE('',*,*,#458,.F.);
#607=ORIENTED_EDGE('',*,*,#467,.T.);
#608=ORIENTED_EDGE('',*,*,#468,.T.);
#609=ORIENTED_EDGE('',*,*,#468,.F.);
#610=ORIENTED_EDGE('',*,*,#469,.T.);
#611=ORIENTED_EDGE('',*,*,#465,.F.);
#612=ORIENTED_EDGE('',*,*,#469,.F.);
#613=ORIENTED_EDGE('',*,*,#470,.T.);
#614=ORIENTED_EDGE('',*,*,#461,.F.);
#615=ORIENTED_EDGE('',*,*,#471,.T.);
#616=ORIENTED_EDGE('',*,*,#472,.T.);
#617=ORIENTED_EDGE('',*,*,#472,.F.);
#618=ORIENTED_EDGE('',*,*,#473,.T.);
#619=ORIENTED_EDGE('',*,*,#466,.F.);
#620=ORIENTED_EDGE('',*,*,#473,.F.);
#621=ORIENTED_EDGE('',*,*,#474,.T.);
#622=ORIENTED_EDGE('',*,*,#464,.F.);
#623=ORIENTED_EDGE('',*,*,#475,.T.);
#624=ORIENTED_EDGE('',*,*,#476,.T.);
#625=ORIENTED_EDGE('',*,*,#476,.F.);
#626=ORIENTED_EDGE('',*,*,#477,.T.);
#627=ORIENTED_EDGE('',*,*,#470,.F.);
#628=ORIENTED_EDGE('',*,*,#477,.F.);
#629=ORIENTED_EDGE('',*,*,#478,.T.);
#630=ORIENTED_EDGE('',*,*,#479,.T.);
#631=ORIENTED_EDGE('',*,*,#479,.F.);
#632=ORIENTED_EDGE('',*,*,#480,.T.);
#633=ORIENTED_EDGE('',*,*,#474,.F.);
#634=ORIENTED_EDGE('',*,*,#480,.F.);
#635=ORIENTED_EDGE('',*,*,#481,.T.);
#636=ORIENTED_EDGE('',*,*,#482,.T.);
#637=ORIENTED_EDGE('',*,*,#483,.F.);
#638=ORIENTED_EDGE('',*,*,#484,.T.);
#639=ORIENTED_EDGE('',*,*,#485,.T.);
#640=ORIENTED_EDGE('',*,*,#475,.F.);
#641=ORIENTED_EDGE('',*,*,#485,.F.);
#642=ORIENTED_EDGE('',*,*,#486,.T.);
#643=ORIENTED_EDGE('',*,*,#487,.F.);
#644=ORIENTED_EDGE('',*,*,#488,.T.);
#645=ORIENTED_EDGE('',*,*,#489,.T.);
#646=ORIENTED_EDGE('',*,*,#467,.F.);
#647=ORIENTED_EDGE('',*,*,#489,.F.);
#648=ORIENTED_EDGE('',*,*,#490,.T.);
#649=ORIENTED_EDGE('',*,*,#491,.T.);
#650=ORIENTED_EDGE('',*,*,#492,.T.);
#651=ORIENTED_EDGE('',*,*,#493,.F.);
#652=ORIENTED_EDGE('',*,*,#494,.F.);
#653=ORIENTED_EDGE('',*,*,#495,.F.);
#654=ORIENTED_EDGE('',*,*,#496,.F.);
#655=ORIENTED_EDGE('',*,*,#497,.T.);
#656=ORIENTED_EDGE('',*,*,#490,.F.);
#657=ORIENTED_EDGE('',*,*,#488,.F.);
#658=ORIENTED_EDGE('',*,*,#498,.T.);
#659=ORIENTED_EDGE('',*,*,#482,.F.);
#660=ORIENTED_EDGE('',*,*,#452,.T.);
#661=ORIENTED_EDGE('',*,*,#448,.F.);
#662=ORIENTED_EDGE('',*,*,#445,.T.);
#663=ORIENTED_EDGE('',*,*,#442,.F.);
#664=ORIENTED_EDGE('',*,*,#439,.T.);
#665=ORIENTED_EDGE('',*,*,#436,.F.);
#666=ORIENTED_EDGE('',*,*,#427,.T.);
#667=ORIENTED_EDGE('',*,*,#424,.F.);
#668=ORIENTED_EDGE('',*,*,#409,.T.);
#669=ORIENTED_EDGE('',*,*,#405,.F.);
#670=ORIENTED_EDGE('',*,*,#417,.T.);
#671=ORIENTED_EDGE('',*,*,#412,.F.);
#672=ORIENTED_EDGE('',*,*,#423,.T.);
#673=ORIENTED_EDGE('',*,*,#418,.F.);
#674=ORIENTED_EDGE('',*,*,#435,.T.);
#675=ORIENTED_EDGE('',*,*,#430,.F.);
#676=ORIENTED_EDGE('',*,*,#499,.T.);
#677=ORIENTED_EDGE('',*,*,#500,.F.);
#678=ORIENTED_EDGE('',*,*,#493,.T.);
#679=ORIENTED_EDGE('',*,*,#501,.T.);
#680=ORIENTED_EDGE('',*,*,#502,.T.);
#681=ORIENTED_EDGE('',*,*,#478,.F.);
#682=ORIENTED_EDGE('',*,*,#502,.F.);
#683=ORIENTED_EDGE('',*,*,#503,.T.);
#684=ORIENTED_EDGE('',*,*,#504,.T.);
#685=ORIENTED_EDGE('',*,*,#496,.T.);
#686=ORIENTED_EDGE('',*,*,#505,.T.);
#687=ORIENTED_EDGE('',*,*,#471,.F.);
#688=ORIENTED_EDGE('',*,*,#505,.F.);
#689=ORIENTED_EDGE('',*,*,#495,.T.);
#690=ORIENTED_EDGE('',*,*,#506,.F.);
#691=ORIENTED_EDGE('',*,*,#507,.T.);
#692=ORIENTED_EDGE('',*,*,#508,.F.);
#693=ORIENTED_EDGE('',*,*,#509,.F.);
#694=ORIENTED_EDGE('',*,*,#506,.T.);
#695=ORIENTED_EDGE('',*,*,#494,.T.);
#696=ORIENTED_EDGE('',*,*,#500,.T.);
#697=ORIENTED_EDGE('',*,*,#510,.T.);
#698=ORIENTED_EDGE('',*,*,#511,.T.);
#699=ORIENTED_EDGE('',*,*,#512,.T.);
#700=ORIENTED_EDGE('',*,*,#513,.T.);
#701=ORIENTED_EDGE('',*,*,#514,.T.);
#702=ORIENTED_EDGE('',*,*,#515,.T.);
#703=ORIENTED_EDGE('',*,*,#516,.T.);
#704=ORIENTED_EDGE('',*,*,#508,.T.);
#705=ORIENTED_EDGE('',*,*,#451,.T.);
#706=ORIENTED_EDGE('',*,*,#432,.F.);
#707=ORIENTED_EDGE('',*,*,#434,.T.);
#708=ORIENTED_EDGE('',*,*,#420,.F.);
#709=ORIENTED_EDGE('',*,*,#422,.T.);
#710=ORIENTED_EDGE('',*,*,#414,.F.);
#711=ORIENTED_EDGE('',*,*,#416,.T.);
#712=ORIENTED_EDGE('',*,*,#407,.F.);
#713=ORIENTED_EDGE('',*,*,#411,.T.);
#714=ORIENTED_EDGE('',*,*,#426,.F.);
#715=ORIENTED_EDGE('',*,*,#429,.T.);
#716=ORIENTED_EDGE('',*,*,#438,.F.);
#717=ORIENTED_EDGE('',*,*,#441,.T.);
#718=ORIENTED_EDGE('',*,*,#444,.F.);
#719=ORIENTED_EDGE('',*,*,#447,.T.);
#720=ORIENTED_EDGE('',*,*,#450,.F.);
#721=ORIENTED_EDGE('',*,*,#462,.T.);
#722=ORIENTED_EDGE('',*,*,#459,.T.);
#723=ORIENTED_EDGE('',*,*,#456,.T.);
#724=ORIENTED_EDGE('',*,*,#453,.T.);
#725=ORIENTED_EDGE('',*,*,#517,.F.);
#726=ORIENTED_EDGE('',*,*,#483,.T.);
#727=ORIENTED_EDGE('',*,*,#498,.F.);
#728=ORIENTED_EDGE('',*,*,#487,.T.);
#729=ORIENTED_EDGE('',*,*,#518,.T.);
#730=ORIENTED_EDGE('',*,*,#513,.F.);
#731=ORIENTED_EDGE('',*,*,#486,.F.);
#732=ORIENTED_EDGE('',*,*,#519,.F.);
#733=ORIENTED_EDGE('',*,*,#514,.F.);
#734=ORIENTED_EDGE('',*,*,#518,.F.);
#735=ORIENTED_EDGE('',*,*,#491,.F.);
#736=ORIENTED_EDGE('',*,*,#497,.F.);
#737=ORIENTED_EDGE('',*,*,#504,.F.);
#738=ORIENTED_EDGE('',*,*,#520,.F.);
#739=ORIENTED_EDGE('',*,*,#515,.F.);
#740=ORIENTED_EDGE('',*,*,#519,.T.);
#741=ORIENTED_EDGE('',*,*,#503,.F.);
#742=ORIENTED_EDGE('',*,*,#509,.T.);
#743=ORIENTED_EDGE('',*,*,#516,.F.);
#744=ORIENTED_EDGE('',*,*,#520,.T.);
#745=ORIENTED_EDGE('',*,*,#499,.F.);
#746=ORIENTED_EDGE('',*,*,#521,.F.);
#747=ORIENTED_EDGE('',*,*,#510,.F.);
#748=ORIENTED_EDGE('',*,*,#507,.F.);
#749=ORIENTED_EDGE('',*,*,#501,.F.);
#750=ORIENTED_EDGE('',*,*,#492,.F.);
#751=ORIENTED_EDGE('',*,*,#481,.F.);
#752=ORIENTED_EDGE('',*,*,#522,.F.);
#753=ORIENTED_EDGE('',*,*,#511,.F.);
#754=ORIENTED_EDGE('',*,*,#521,.T.);
#755=ORIENTED_EDGE('',*,*,#484,.F.);
#756=ORIENTED_EDGE('',*,*,#517,.T.);
#757=ORIENTED_EDGE('',*,*,#512,.F.);
#758=ORIENTED_EDGE('',*,*,#522,.T.);
#759=CYLINDRICAL_SURFACE('',#843,1.);
#760=CYLINDRICAL_SURFACE('',#846,12.1);
#761=CYLINDRICAL_SURFACE('',#849,1.);
#762=CYLINDRICAL_SURFACE('',#853,1.);
#763=CYLINDRICAL_SURFACE('',#856,12.1);
#764=CYLINDRICAL_SURFACE('',#859,1.);
#765=CYLINDRICAL_SURFACE('',#863,1.);
#766=CYLINDRICAL_SURFACE('',#867,1.);
#767=CYLINDRICAL_SURFACE('',#870,12.1);
#768=CYLINDRICAL_SURFACE('',#873,1.);
#769=CYLINDRICAL_SURFACE('',#877,1.);
#770=CYLINDRICAL_SURFACE('',#880,12.1);
#771=CYLINDRICAL_SURFACE('',#883,1.65);
#772=CYLINDRICAL_SURFACE('',#886,1.65);
#773=CYLINDRICAL_SURFACE('',#889,1.65);
#774=CYLINDRICAL_SURFACE('',#892,1.65);
#775=CYLINDRICAL_SURFACE('',#902,2.1);
#776=CYLINDRICAL_SURFACE('',#908,2.1);
#777=CYLINDRICAL_SURFACE('',#914,2.1);
#778=CYLINDRICAL_SURFACE('',#918,2.1);
#779=CYLINDRICAL_SURFACE('',#941,6.00000000000001);
#780=CYLINDRICAL_SURFACE('',#943,6.0000000001307);
#781=CYLINDRICAL_SURFACE('',#944,6.00000000013072);
#782=CYLINDRICAL_SURFACE('',#946,6.);
#783=ADVANCED_FACE('',(#59),#759,.F.);
#784=ADVANCED_FACE('',(#60),#760,.T.);
#785=ADVANCED_FACE('',(#61),#761,.F.);
#786=ADVANCED_FACE('',(#62),#41,.F.);
#787=ADVANCED_FACE('',(#63),#762,.F.);
#788=ADVANCED_FACE('',(#64),#763,.T.);
#789=ADVANCED_FACE('',(#65),#764,.F.);
#790=ADVANCED_FACE('',(#66),#42,.F.);
#791=ADVANCED_FACE('',(#67),#765,.F.);
#792=ADVANCED_FACE('',(#68),#43,.F.);
#793=ADVANCED_FACE('',(#69),#766,.F.);
#794=ADVANCED_FACE('',(#70),#767,.T.);
#795=ADVANCED_FACE('',(#71),#768,.F.);
#796=ADVANCED_FACE('',(#72),#44,.F.);
#797=ADVANCED_FACE('',(#73),#769,.F.);
#798=ADVANCED_FACE('',(#74),#770,.T.);
#799=ADVANCED_FACE('',(#75),#771,.F.);
#800=ADVANCED_FACE('',(#76),#772,.F.);
#801=ADVANCED_FACE('',(#77),#773,.F.);
#802=ADVANCED_FACE('',(#78),#774,.F.);
#803=ADVANCED_FACE('',(#79,#27),#45,.F.);
#804=ADVANCED_FACE('',(#80,#28),#46,.F.);
#805=ADVANCED_FACE('',(#81,#29),#47,.F.);
#806=ADVANCED_FACE('',(#82),#775,.F.);
#807=ADVANCED_FACE('',(#83,#30),#48,.F.);
#808=ADVANCED_FACE('',(#84,#31),#49,.F.);
#809=ADVANCED_FACE('',(#85),#776,.F.);
#810=ADVANCED_FACE('',(#86,#32),#50,.F.);
#811=ADVANCED_FACE('',(#87,#33),#51,.F.);
#812=ADVANCED_FACE('',(#88),#777,.F.);
#813=ADVANCED_FACE('',(#89,#34),#52,.F.);
#814=ADVANCED_FACE('',(#90),#778,.F.);
#815=ADVANCED_FACE('',(#91),#23,.T.);
#816=ADVANCED_FACE('',(#92),#24,.T.);
#817=ADVANCED_FACE('',(#93,#35),#53,.F.);
#818=ADVANCED_FACE('',(#94),#25,.T.);
#819=ADVANCED_FACE('',(#95),#26,.T.);
#820=ADVANCED_FACE('',(#96),#54,.F.);
#821=ADVANCED_FACE('',(#97,#36,#37,#38,#39,#40),#55,.T.);
#822=ADVANCED_FACE('',(#98),#56,.T.);
#823=ADVANCED_FACE('',(#99),#779,.T.);
#824=ADVANCED_FACE('',(#100),#57,.F.);
#825=ADVANCED_FACE('',(#101),#780,.T.);
#826=ADVANCED_FACE('',(#102),#781,.T.);
#827=ADVANCED_FACE('',(#103),#58,.F.);
#828=ADVANCED_FACE('',(#104),#782,.T.);
#829=CLOSED_SHELL('',(#783,#784,#785,#786,#787,#788,#789,#790,#791,#792,
#793,#794,#795,#796,#797,#798,#799,#800,#801,#802,#803,#804,#805,#806,#807,
#808,#809,#810,#811,#812,#813,#814,#815,#816,#817,#818,#819,#820,#821,#822,
#823,#824,#825,#826,#827,#828));
#830=DERIVED_UNIT_ELEMENT(#832,1.);
#831=DERIVED_UNIT_ELEMENT(#1473,-3.);
#832=(
MASS_UNIT()
NAMED_UNIT(*)
SI_UNIT(.KILO.,.GRAM.)
);
#833=DERIVED_UNIT((#830,#831));
#834=MEASURE_REPRESENTATION_ITEM('density measure',
POSITIVE_RATIO_MEASURE(1060.),#833);
#835=PROPERTY_DEFINITION_REPRESENTATION(#840,#837);
#836=PROPERTY_DEFINITION_REPRESENTATION(#841,#838);
#837=REPRESENTATION('material name',(#839),#1470);
#838=REPRESENTATION('density',(#834),#1470);
#839=DESCRIPTIVE_REPRESENTATION_ITEM('ABS Plastic','ABS Plastic');
#840=PROPERTY_DEFINITION('material property','material name',#1480);
#841=PROPERTY_DEFINITION('material property','density of part',#1480);
#842=AXIS2_PLACEMENT_3D('',#1209,#947,#948);
#843=AXIS2_PLACEMENT_3D('',#1210,#949,#950);
#844=AXIS2_PLACEMENT_3D('',#1213,#951,#952);
#845=AXIS2_PLACEMENT_3D('',#1217,#954,#955);
#846=AXIS2_PLACEMENT_3D('',#1219,#957,#958);
#847=AXIS2_PLACEMENT_3D('',#1221,#959,#960);
#848=AXIS2_PLACEMENT_3D('',#1224,#962,#963);
#849=AXIS2_PLACEMENT_3D('',#1225,#964,#965);
#850=AXIS2_PLACEMENT_3D('',#1228,#966,#967);
#851=AXIS2_PLACEMENT_3D('',#1232,#969,#970);
#852=AXIS2_PLACEMENT_3D('',#1234,#972,#973);
#853=AXIS2_PLACEMENT_3D('',#1237,#976,#977);
#854=AXIS2_PLACEMENT_3D('',#1240,#978,#979);
#855=AXIS2_PLACEMENT_3D('',#1244,#981,#982);
#856=AXIS2_PLACEMENT_3D('',#1246,#984,#985);
#857=AXIS2_PLACEMENT_3D('',#1247,#986,#987);
#858=AXIS2_PLACEMENT_3D('',#1248,#988,#989);
#859=AXIS2_PLACEMENT_3D('',#1249,#990,#991);
#860=AXIS2_PLACEMENT_3D('',#1251,#992,#993);
#861=AXIS2_PLACEMENT_3D('',#1254,#995,#996);
#862=AXIS2_PLACEMENT_3D('',#1255,#997,#998);
#863=AXIS2_PLACEMENT_3D('',#1261,#1002,#1003);
#864=AXIS2_PLACEMENT_3D('',#1264,#1004,#1005);
#865=AXIS2_PLACEMENT_3D('',#1268,#1007,#1008);
#866=AXIS2_PLACEMENT_3D('',#1270,#1010,#1011);
#867=AXIS2_PLACEMENT_3D('',#1273,#1014,#1015);
#868=AXIS2_PLACEMENT_3D('',#1275,#1016,#1017);
#869=AXIS2_PLACEMENT_3D('',#1278,#1019,#1020);
#870=AXIS2_PLACEMENT_3D('',#1279,#1021,#1022);
#871=AXIS2_PLACEMENT_3D('',#1281,#1023,#1024);
#872=AXIS2_PLACEMENT_3D('',#1284,#1026,#1027);
#873=AXIS2_PLACEMENT_3D('',#1285,#1028,#1029);
#874=AXIS2_PLACEMENT_3D('',#1287,#1030,#1031);
#875=AXIS2_PLACEMENT_3D('',#1290,#1033,#1034);
#876=AXIS2_PLACEMENT_3D('',#1291,#1035,#1036);
#877=AXIS2_PLACEMENT_3D('',#1297,#1040,#1041);
#878=AXIS2_PLACEMENT_3D('',#1299,#1042,#1043);
#879=AXIS2_PLACEMENT_3D('',#1302,#1045,#1046);
#880=AXIS2_PLACEMENT_3D('',#1303,#1047,#1048);
#881=AXIS2_PLACEMENT_3D('',#1304,#1049,#1050);
#882=AXIS2_PLACEMENT_3D('',#1305,#1051,#1052);
#883=AXIS2_PLACEMENT_3D('',#1306,#1053,#1054);
#884=AXIS2_PLACEMENT_3D('',#1308,#1055,#1056);
#885=AXIS2_PLACEMENT_3D('',#1311,#1058,#1059);
#886=AXIS2_PLACEMENT_3D('',#1312,#1060,#1061);
#887=AXIS2_PLACEMENT_3D('',#1314,#1062,#1063);
#888=AXIS2_PLACEMENT_3D('',#1317,#1065,#1066);
#889=AXIS2_PLACEMENT_3D('',#1318,#1067,#1068);
#890=AXIS2_PLACEMENT_3D('',#1320,#1069,#1070);
#891=AXIS2_PLACEMENT_3D('',#1323,#1072,#1073);
#892=AXIS2_PLACEMENT_3D('',#1324,#1074,#1075);
#893=AXIS2_PLACEMENT_3D('',#1326,#1076,#1077);
#894=AXIS2_PLACEMENT_3D('',#1329,#1079,#1080);
#895=AXIS2_PLACEMENT_3D('',#1330,#1081,#1082);
#896=AXIS2_PLACEMENT_3D('',#1332,#1083,#1084);
#897=AXIS2_PLACEMENT_3D('',#1333,#1085,#1086);
#898=AXIS2_PLACEMENT_3D('',#1335,#1087,#1088);
#899=AXIS2_PLACEMENT_3D('',#1336,#1089,#1090);
#900=AXIS2_PLACEMENT_3D('',#1338,#1091,#1092);
#901=AXIS2_PLACEMENT_3D('',#1340,#1093,#1094);
#902=AXIS2_PLACEMENT_3D('',#1341,#1095,#1096);
#903=AXIS2_PLACEMENT_3D('',#1343,#1098,#1099);
#904=AXIS2_PLACEMENT_3D('',#1345,#1100,#1101);
#905=AXIS2_PLACEMENT_3D('',#1346,#1102,#1103);
#906=AXIS2_PLACEMENT_3D('',#1348,#1104,#1105);
#907=AXIS2_PLACEMENT_3D('',#1350,#1106,#1107);
#908=AXIS2_PLACEMENT_3D('',#1351,#1108,#1109);
#909=AXIS2_PLACEMENT_3D('',#1353,#1111,#1112);
#910=AXIS2_PLACEMENT_3D('',#1355,#1113,#1114);
#911=AXIS2_PLACEMENT_3D('',#1356,#1115,#1116);
#912=AXIS2_PLACEMENT_3D('',#1358,#1117,#1118);
#913=AXIS2_PLACEMENT_3D('',#1360,#1119,#1120);
#914=AXIS2_PLACEMENT_3D('',#1361,#1121,#1122);
#915=AXIS2_PLACEMENT_3D('',#1363,#1124,#1125);
#916=AXIS2_PLACEMENT_3D('',#1365,#1126,#1127);
#917=AXIS2_PLACEMENT_3D('',#1367,#1128,#1129);
#918=AXIS2_PLACEMENT_3D('',#1368,#1130,#1131);
#919=AXIS2_PLACEMENT_3D('',#1370,#1133,#1134);
#920=AXIS2_PLACEMENT_3D('',#1377,#1135,#1136);
#921=AXIS2_PLACEMENT_3D('',#1382,#1137,#1138);
#922=AXIS2_PLACEMENT_3D('',#1384,#1140,#1141);
#923=AXIS2_PLACEMENT_3D('',#1387,#1142,#1143);
#924=AXIS2_PLACEMENT_3D('',#1393,#1144,#1145);
#925=AXIS2_PLACEMENT_3D('',#1396,#1147,#1148);
#926=AXIS2_PLACEMENT_3D('',#1400,#1149,#1150);
#927=AXIS2_PLACEMENT_3D('',#1404,#1152,#1153);
#928=AXIS2_PLACEMENT_3D('',#1408,#1155,#1156);
#929=AXIS2_PLACEMENT_3D('',#1410,#1157,#1158);
#930=AXIS2_PLACEMENT_3D('',#1413,#1161,#1162);
#931=AXIS2_PLACEMENT_3D('',#1416,#1163,#1164);
#932=AXIS2_PLACEMENT_3D('',#1424,#1166,#1167);
#933=AXIS2_PLACEMENT_3D('',#1427,#1168,#1169);
#934=AXIS2_PLACEMENT_3D('',#1435,#1171,#1172);
#935=AXIS2_PLACEMENT_3D('',#1441,#1176,#1177);
#936=AXIS2_PLACEMENT_3D('',#1443,#1178,#1179);
#937=AXIS2_PLACEMENT_3D('',#1447,#1181,#1182);
#938=AXIS2_PLACEMENT_3D('',#1451,#1184,#1185);
#939=AXIS2_PLACEMENT_3D('',#1454,#1187,#1188);
#940=AXIS2_PLACEMENT_3D('',#1455,#1189,#1190);
#941=AXIS2_PLACEMENT_3D('',#1458,#1193,#1194);
#942=AXIS2_PLACEMENT_3D('',#1460,#1196,#1197);
#943=AXIS2_PLACEMENT_3D('',#1462,#1199,#1200);
#944=AXIS2_PLACEMENT_3D('',#1463,#1201,#1202);
#945=AXIS2_PLACEMENT_3D('',#1465,#1204,#1205);
#946=AXIS2_PLACEMENT_3D('',#1467,#1207,#1208);
#947=DIRECTION('axis',(0.,0.,1.));
#948=DIRECTION('refdir',(1.,0.,0.));
#949=DIRECTION('center_axis',(0.,1.,0.));
#950=DIRECTION('ref_axis',(0.759167885162822,0.,-0.650894862583358));
#951=DIRECTION('center_axis',(0.,-1.,0.));
#952=DIRECTION('ref_axis',(0.759167885162822,0.,-0.650894862583358));
#953=DIRECTION('',(0.,1.,0.));
#954=DIRECTION('center_axis',(0.,1.,0.));
#955=DIRECTION('ref_axis',(0.759167885162822,0.,-0.650894862583358));
#956=DIRECTION('',(0.,-1.,0.));
#957=DIRECTION('center_axis',(0.,1.,0.));
#958=DIRECTION('ref_axis',(0.247933884305933,0.,0.968776955244587));
#959=DIRECTION('center_axis',(0.,-1.,0.));
#960=DIRECTION('ref_axis',(0.247933884305933,0.,0.968776955244587));
#961=DIRECTION('',(0.,-1.,0.));
#962=DIRECTION('center_axis',(0.,1.,0.));
#963=DIRECTION('ref_axis',(0.247933884305933,0.,0.968776955244587));
#964=DIRECTION('center_axis',(0.,1.,0.));
#965=DIRECTION('ref_axis',(-0.759167885162824,0.,-0.650894862583356));
#966=DIRECTION('center_axis',(0.,-1.,0.));
#967=DIRECTION('ref_axis',(-0.759167885162824,0.,-0.650894862583356));
#968=DIRECTION('',(0.,1.,0.));
#969=DIRECTION('center_axis',(0.,1.,0.));
#970=DIRECTION('ref_axis',(-0.759167885162824,0.,-0.650894862583356));
#971=DIRECTION('',(0.,-1.,0.));
#972=DIRECTION('center_axis',(1.16185618257763E-16,0.,-1.));
#973=DIRECTION('ref_axis',(-1.,0.,-1.16185618257763E-16));
#974=DIRECTION('',(1.,0.,1.16185618257763E-16));
#975=DIRECTION('',(-1.,0.,-1.16185618257763E-16));
#976=DIRECTION('center_axis',(0.,1.,0.));
#977=DIRECTION('ref_axis',(-0.650894862581397,0.,-0.759167885164504));
#978=DIRECTION('center_axis',(0.,-1.,0.));
#979=DIRECTION('ref_axis',(-0.650894862581397,0.,-0.759167885164504));
#980=DIRECTION('',(0.,1.,0.));
#981=DIRECTION('center_axis',(0.,1.,0.));
#982=DIRECTION('ref_axis',(-0.650894862581397,0.,-0.759167885164504));
#983=DIRECTION('',(0.,-1.,0.));
#984=DIRECTION('center_axis',(0.,1.,0.));
#985=DIRECTION('ref_axis',(0.96877695524674,0.,-0.247933884297521));
#986=DIRECTION('center_axis',(0.,1.,0.));
#987=DIRECTION('ref_axis',(0.96877695524674,0.,-0.247933884297521));
#988=DIRECTION('center_axis',(0.,-1.,0.));
#989=DIRECTION('ref_axis',(0.96877695524674,0.,-0.247933884297521));
#990=DIRECTION('center_axis',(0.,1.,0.));
#991=DIRECTION('ref_axis',(0.650894862581395,0.,-0.759167885164505));
#992=DIRECTION('center_axis',(0.,-1.,0.));
#993=DIRECTION('ref_axis',(0.650894862581395,0.,-0.759167885164505));
#994=DIRECTION('',(0.,1.,0.));
#995=DIRECTION('center_axis',(0.,1.,0.));
#996=DIRECTION('ref_axis',(0.650894862581395,0.,-0.759167885164505));
#997=DIRECTION('center_axis',(1.,0.,2.46599381620222E-12));
#998=DIRECTION('ref_axis',(2.46599381620222E-12,0.,-1.));
#999=DIRECTION('',(2.46599381620222E-12,0.,-1.));
#1000=DIRECTION('',(0.,-1.,0.));
#1001=DIRECTION('',(-2.46599381620222E-12,0.,1.));
#1002=DIRECTION('center_axis',(0.,1.,0.));
#1003=DIRECTION('ref_axis',(-0.650894862581485,0.,0.759167885164428));
#1004=DIRECTION('center_axis',(0.,-1.,0.));
#1005=DIRECTION('ref_axis',(-0.650894862581485,0.,0.759167885164428));
#1006=DIRECTION('',(0.,1.,0.));
#1007=DIRECTION('center_axis',(0.,1.,0.));
#1008=DIRECTION('ref_axis',(-0.650894862581485,0.,0.759167885164428));
#1009=DIRECTION('',(0.,-1.,0.));
#1010=DIRECTION('center_axis',(-1.,0.,2.46614407173574E-12));
#1011=DIRECTION('ref_axis',(2.46614407173574E-12,0.,1.));
#1012=DIRECTION('',(-2.46614407173574E-12,0.,-1.));
#1013=DIRECTION('',(2.46614407173574E-12,0.,1.));
#1014=DIRECTION('center_axis',(0.,1.,0.));
#1015=DIRECTION('ref_axis',(0.65089486258148,0.,0.759167885164432));
#1016=DIRECTION('center_axis',(0.,-1.,0.));
#1017=DIRECTION('ref_axis',(0.65089486258148,0.,0.759167885164432));
#1018=DIRECTION('',(0.,1.,0.));
#1019=DIRECTION('center_axis',(0.,1.,0.));
#1020=DIRECTION('ref_axis',(0.65089486258148,0.,0.759167885164432));
#1021=DIRECTION('center_axis',(0.,1.,0.));
#1022=DIRECTION('ref_axis',(-0.96877695524674,0.,0.24793388429752));
#1023=DIRECTION('center_axis',(0.,-1.,0.));
#1024=DIRECTION('ref_axis',(-0.96877695524674,0.,0.24793388429752));
#1025=DIRECTION('',(0.,-1.,0.));
#1026=DIRECTION('center_axis',(0.,1.,0.));
#1027=DIRECTION('ref_axis',(-0.96877695524674,0.,0.24793388429752));
#1028=DIRECTION('center_axis',(0.,1.,0.));
#1029=DIRECTION('ref_axis',(0.759167885162825,0.,0.650894862583355));
#1030=DIRECTION('center_axis',(0.,-1.,0.));
#1031=DIRECTION('ref_axis',(0.759167885162825,0.,0.650894862583355));
#1032=DIRECTION('',(0.,1.,0.));
#1033=DIRECTION('center_axis',(0.,1.,0.));
#1034=DIRECTION('ref_axis',(0.759167885162825,0.,0.650894862583355));
#1035=DIRECTION('center_axis',(9.29484946062103E-16,0.,1.));
#1036=DIRECTION('ref_axis',(1.,0.,-9.29484946062103E-16));
#1037=DIRECTION('',(1.,0.,-9.29484946062103E-16));
#1038=DIRECTION('',(0.,-1.,0.));
#1039=DIRECTION('',(-1.,0.,9.29484946062103E-16));
#1040=DIRECTION('center_axis',(0.,1.,0.));
#1041=DIRECTION('ref_axis',(-0.759167885162829,0.,0.65089486258335));
#1042=DIRECTION('center_axis',(0.,-1.,0.));
#1043=DIRECTION('ref_axis',(-0.759167885162829,0.,0.65089486258335));
#1044=DIRECTION('',(0.,1.,0.));
#1045=DIRECTION('center_axis',(0.,1.,0.));
#1046=DIRECTION('ref_axis',(-0.759167885162829,0.,0.65089486258335));
#1047=DIRECTION('center_axis',(0.,1.,0.));
#1048=DIRECTION('ref_axis',(-0.247933884299909,0.,-0.968776955246129));
#1049=DIRECTION('center_axis',(0.,1.,0.));
#1050=DIRECTION('ref_axis',(-0.247933884299909,0.,-0.968776955246129));
#1051=DIRECTION('center_axis',(0.,-1.,0.));
#1052=DIRECTION('ref_axis',(-0.247933884299909,0.,-0.968776955246129));
#1053=DIRECTION('center_axis',(0.,1.,0.));
#1054=DIRECTION('ref_axis',(1.,0.,0.));
#1055=DIRECTION('center_axis',(0.,-1.,0.));
#1056=DIRECTION('ref_axis',(1.,0.,0.));
#1057=DIRECTION('',(0.,-1.,0.));
#1058=DIRECTION('center_axis',(0.,-1.,0.));
#1059=DIRECTION('ref_axis',(1.,0.,0.));
#1060=DIRECTION('center_axis',(0.,1.,0.));
#1061=DIRECTION('ref_axis',(1.,0.,0.));
#1062=DIRECTION('center_axis',(0.,-1.,0.));
#1063=DIRECTION('ref_axis',(1.,0.,0.));
#1064=DIRECTION('',(0.,-1.,0.));
#1065=DIRECTION('center_axis',(0.,-1.,0.));
#1066=DIRECTION('ref_axis',(1.,0.,0.));
#1067=DIRECTION('center_axis',(0.,1.,0.));
#1068=DIRECTION('ref_axis',(1.,0.,0.));
#1069=DIRECTION('center_axis',(0.,-1.,0.));
#1070=DIRECTION('ref_axis',(1.,0.,0.));
#1071=DIRECTION('',(0.,-1.,0.));
#1072=DIRECTION('center_axis',(0.,-1.,0.));
#1073=DIRECTION('ref_axis',(1.,0.,0.));
#1074=DIRECTION('center_axis',(0.,1.,0.));
#1075=DIRECTION('ref_axis',(1.,0.,0.));
#1076=DIRECTION('center_axis',(0.,-1.,0.));
#1077=DIRECTION('ref_axis',(1.,0.,0.));
#1078=DIRECTION('',(0.,-1.,0.));
#1079=DIRECTION('center_axis',(0.,-1.,0.));
#1080=DIRECTION('ref_axis',(1.,0.,0.));
#1081=DIRECTION('center_axis',(0.,1.,0.));
#1082=DIRECTION('ref_axis',(1.,0.,0.));
#1083=DIRECTION('center_axis',(0.,-1.,0.));
#1084=DIRECTION('ref_axis',(1.,0.,0.));
#1085=DIRECTION('center_axis',(0.,1.,0.));
#1086=DIRECTION('ref_axis',(1.,0.,0.));
#1087=DIRECTION('center_axis',(0.,-1.,0.));
#1088=DIRECTION('ref_axis',(1.,0.,0.));
#1089=DIRECTION('center_axis',(0.,1.,0.));
#1090=DIRECTION('ref_axis',(1.,0.,0.));
#1091=DIRECTION('center_axis',(0.,-1.,0.));
#1092=DIRECTION('ref_axis',(1.,0.,0.));
#1093=DIRECTION('center_axis',(0.,1.,0.));
#1094=DIRECTION('ref_axis',(1.,0.,0.));
#1095=DIRECTION('center_axis',(0.,-1.,0.));
#1096=DIRECTION('ref_axis',(1.,0.,0.));
#1097=DIRECTION('',(0.,1.,0.));
#1098=DIRECTION('center_axis',(0.,1.,0.));
#1099=DIRECTION('ref_axis',(1.,0.,0.));
#1100=DIRECTION('center_axis',(0.,-1.,0.));
#1101=DIRECTION('ref_axis',(1.,0.,0.));
#1102=DIRECTION('center_axis',(0.,1.,0.));
#1103=DIRECTION('ref_axis',(1.,0.,0.));
#1104=DIRECTION('center_axis',(0.,-1.,0.));
#1105=DIRECTION('ref_axis',(1.,0.,0.));
#1106=DIRECTION('center_axis',(0.,1.,0.));
#1107=DIRECTION('ref_axis',(1.,0.,0.));
#1108=DIRECTION('center_axis',(0.,-1.,0.));
#1109=DIRECTION('ref_axis',(1.,0.,0.));
#1110=DIRECTION('',(0.,1.,0.));
#1111=DIRECTION('center_axis',(0.,1.,0.));
#1112=DIRECTION('ref_axis',(1.,0.,0.));
#1113=DIRECTION('center_axis',(0.,-1.,0.));
#1114=DIRECTION('ref_axis',(1.,0.,0.));
#1115=DIRECTION('center_axis',(0.,1.,0.));
#1116=DIRECTION('ref_axis',(1.,0.,0.));
#1117=DIRECTION('center_axis',(0.,-1.,0.));
#1118=DIRECTION('ref_axis',(1.,0.,0.));
#1119=DIRECTION('center_axis',(0.,1.,0.));
#1120=DIRECTION('ref_axis',(1.,0.,0.));
#1121=DIRECTION('center_axis',(0.,-1.,0.));
#1122=DIRECTION('ref_axis',(1.,0.,0.));
#1123=DIRECTION('',(0.,1.,0.));
#1124=DIRECTION('center_axis',(0.,1.,0.));
#1125=DIRECTION('ref_axis',(1.,0.,0.));
#1126=DIRECTION('center_axis',(0.,-1.,0.));
#1127=DIRECTION('ref_axis',(1.,0.,0.));
#1128=DIRECTION('center_axis',(0.,1.,0.));
#1129=DIRECTION('ref_axis',(1.,0.,0.));
#1130=DIRECTION('center_axis',(0.,-1.,0.));
#1131=DIRECTION('ref_axis',(1.,0.,0.));
#1132=DIRECTION('',(0.,1.,0.));
#1133=DIRECTION('center_axis',(0.,1.,0.));
#1134=DIRECTION('ref_axis',(1.,0.,0.));
#1135=DIRECTION('center_axis',(0.,-1.,0.));
#1136=DIRECTION('ref_axis',(1.,0.,0.));
#1137=DIRECTION('center_axis',(0.,-1.,0.));
#1138=DIRECTION('ref_axis',(-1.,0.,3.69926311805102E-12));
#1139=DIRECTION('',(0.707106781186548,-0.707106781186548,-8.65956056235493E-17));
#1140=DIRECTION('center_axis',(0.,1.,0.));
#1141=DIRECTION('ref_axis',(1.,0.,0.));
#1142=DIRECTION('center_axis',(0.,-1.,0.));
#1143=DIRECTION('ref_axis',(0.,0.,1.));
#1144=DIRECTION('center_axis',(0.,-1.,0.));
#1145=DIRECTION('ref_axis',(1.,0.,0.));
#1146=DIRECTION('',(0.707106781186548,-0.707106781186548,-8.65956056235493E-17));
#1147=DIRECTION('center_axis',(0.,-1.,0.));
#1148=DIRECTION('ref_axis',(1.,0.,0.));
#1149=DIRECTION('center_axis',(0.,1.,0.));
#1150=DIRECTION('ref_axis',(1.,0.,0.));
#1151=DIRECTION('',(-2.4661195517557E-12,0.,-1.));
#1152=DIRECTION('center_axis',(0.,-1.,0.));
#1153=DIRECTION('ref_axis',(1.,0.,0.));
#1154=DIRECTION('',(-1.,0.,0.));
#1155=DIRECTION('center_axis',(0.,-1.,0.));
#1156=DIRECTION('ref_axis',(1.,0.,0.));
#1157=DIRECTION('center_axis',(0.,-1.,0.));
#1158=DIRECTION('ref_axis',(1.,0.,0.));
#1159=DIRECTION('',(-2.4661195517557E-12,0.,1.));
#1160=DIRECTION('',(-1.,0.,0.));
#1161=DIRECTION('center_axis',(0.,1.,0.));
#1162=DIRECTION('ref_axis',(1.,0.,0.));
#1163=DIRECTION('center_axis',(0.,-1.,0.));
#1164=DIRECTION('ref_axis',(6.60114077015397E-6,0.,-0.999999999978213));
#1165=DIRECTION('',(0.707106781186548,-0.707106781186548,-8.65956056235493E-17));
#1166=DIRECTION('center_axis',(0.,1.,0.));
#1167=DIRECTION('ref_axis',(1.,0.,0.));
#1168=DIRECTION('center_axis',(0.,-1.,0.));
#1169=DIRECTION('ref_axis',(1.,0.,2.46599037480953E-12));
#1170=DIRECTION('',(0.707106781186548,-0.707106781186548,-8.65956056235493E-17));
#1171=DIRECTION('center_axis',(0.,0.,1.));
#1172=DIRECTION('ref_axis',(1.,0.,0.));
#1173=DIRECTION('',(0.,1.,0.));
#1174=DIRECTION('',(-1.,0.,0.));
#1175=DIRECTION('',(0.,1.,0.));
#1176=DIRECTION('center_axis',(0.,1.,0.));
#1177=DIRECTION('ref_axis',(1.,0.,0.));
#1178=DIRECTION('center_axis',(0.,1.,0.));
#1179=DIRECTION('ref_axis',(6.60114077015397E-6,0.,-0.999999999978213));
#1180=DIRECTION('',(2.4661195517557E-12,0.,1.));
#1181=DIRECTION('center_axis',(0.,1.,0.));
#1182=DIRECTION('ref_axis',(-1.,0.,3.69926311805102E-12));
#1183=DIRECTION('',(1.,0.,0.));
#1184=DIRECTION('center_axis',(0.,1.,0.));
#1185=DIRECTION('ref_axis',(0.,0.,1.));
#1186=DIRECTION('',(2.4661195517557E-12,0.,-1.));
#1187=DIRECTION('center_axis',(0.,1.,0.));
#1188=DIRECTION('ref_axis',(1.,0.,2.46599037480953E-12));
#1189=DIRECTION('center_axis',(0.,0.,1.));
#1190=DIRECTION('ref_axis',(1.,0.,0.));
#1191=DIRECTION('',(0.,1.,0.));
#1192=DIRECTION('',(0.,1.,0.));
#1193=DIRECTION('center_axis',(0.,-1.,0.));
#1194=DIRECTION('ref_axis',(0.,0.,1.));
#1195=DIRECTION('',(0.,-1.,0.));
#1196=DIRECTION('center_axis',(-1.,0.,-2.4661195517557E-12));
#1197=DIRECTION('ref_axis',(2.4661195517557E-12,0.,-1.));
#1198=DIRECTION('',(0.,-1.,0.));
#1199=DIRECTION('center_axis',(0.,-1.,0.));
#1200=DIRECTION('ref_axis',(1.,0.,2.46599037480953E-12));
#1201=DIRECTION('center_axis',(0.,-1.,0.));
#1202=DIRECTION('ref_axis',(6.60114077015397E-6,0.,-0.999999999978213));
#1203=DIRECTION('',(0.,-1.,0.));
#1204=DIRECTION('center_axis',(1.,0.,-2.4661195517557E-12));
#1205=DIRECTION('ref_axis',(2.4661195517557E-12,0.,1.));
#1206=DIRECTION('',(0.,-1.,0.));
#1207=DIRECTION('center_axis',(0.,-1.,0.));
#1208=DIRECTION('ref_axis',(-1.,0.,3.69926311805102E-12));
#1209=CARTESIAN_POINT('',(0.,0.,0.));
#1210=CARTESIAN_POINT('Origin',(41.0035719211823,0.,4.));
#1211=CARTESIAN_POINT('',(41.0035719211823,0.,3.));
#1212=CARTESIAN_POINT('',(41.9918488737638,0.,4.15267175572519));
#1213=CARTESIAN_POINT('Origin',(41.0035719211823,0.,4.));
#1214=CARTESIAN_POINT('',(41.9918488737638,3.,4.15267175572519));
#1215=CARTESIAN_POINT('',(41.9918488737638,0.,4.15267175572519));
#1216=CARTESIAN_POINT('',(41.0035719211823,3.,3.));
#1217=CARTESIAN_POINT('Origin',(41.0035719211823,3.,4.));
#1218=CARTESIAN_POINT('',(41.0035719211823,0.,3.));
#1219=CARTESIAN_POINT('Origin',(53.95,0.,6.));
#1220=CARTESIAN_POINT('',(55.797328244366,0.,17.9581511262221));
#1221=CARTESIAN_POINT('Origin',(53.95,0.,6.));
#1222=CARTESIAN_POINT('',(55.797328244366,3.,17.9581511262221));
#1223=CARTESIAN_POINT('',(55.797328244366,0.,17.9581511262221));
#1224=CARTESIAN_POINT('Origin',(53.95,3.,6.));
#1225=CARTESIAN_POINT('Origin',(33.8964280788177,0.,4.));
#1226=CARTESIAN_POINT('',(32.9081511262362,0.,4.15267175572519));
#1227=CARTESIAN_POINT('',(33.8964280788177,0.,3.));
#1228=CARTESIAN_POINT('Origin',(33.8964280788177,0.,4.));
#1229=CARTESIAN_POINT('',(33.8964280788177,3.,3.));
#1230=CARTESIAN_POINT('',(33.8964280788177,0.,3.));
#1231=CARTESIAN_POINT('',(32.9081511262362,3.,4.15267175572519));
#1232=CARTESIAN_POINT('Origin',(33.8964280788177,3.,4.));
#1233=CARTESIAN_POINT('',(32.9081511262362,0.,4.15267175572519));
#1234=CARTESIAN_POINT('Origin',(42.2277988415144,0.,3.));
#1235=CARTESIAN_POINT('',(36.7593026900585,3.,3.));
#1236=CARTESIAN_POINT('',(36.7593026900585,0.,3.));
#1237=CARTESIAN_POINT('Origin',(18.9499999999012,0.,18.9464280788025));
#1238=CARTESIAN_POINT('',(17.9499999999012,0.,18.9464280788049));
#1239=CARTESIAN_POINT('',(19.102671755634,0.,17.9581511262221));
#1240=CARTESIAN_POINT('Origin',(18.9499999999012,0.,18.9464280788025));
#1241=CARTESIAN_POINT('',(19.102671755634,3.,17.9581511262221));
#1242=CARTESIAN_POINT('',(19.102671755634,0.,17.9581511262221));
#1243=CARTESIAN_POINT('',(17.9499999999012,3.,18.9464280788049));
#1244=CARTESIAN_POINT('Origin',(18.9499999999012,3.,18.9464280788025));
#1245=CARTESIAN_POINT('',(17.9499999999012,0.,18.9464280788049));
#1246=CARTESIAN_POINT('Origin',(20.95,0.,6.));
#1247=CARTESIAN_POINT('Origin',(20.95,3.,6.));
#1248=CARTESIAN_POINT('Origin',(20.95,0.,6.));
#1249=CARTESIAN_POINT('Origin',(55.9500000000988,0.,18.9464280788025));
#1250=CARTESIAN_POINT('',(56.9500000000988,0.,18.9464280788049));
#1251=CARTESIAN_POINT('Origin',(55.9500000000988,0.,18.9464280788025));
#1252=CARTESIAN_POINT('',(56.9500000000988,3.,18.9464280788049));
#1253=CARTESIAN_POINT('',(56.9500000000988,0.,18.9464280788049));
#1254=CARTESIAN_POINT('Origin',(55.9500000000988,3.,18.9464280788025));
#1255=CARTESIAN_POINT('Origin',(56.9500000000289,0.,47.2777988415218));
#1256=CARTESIAN_POINT('',(56.9500000000319,0.,46.0535719211897));
#1257=CARTESIAN_POINT('',(56.9500000000471,0.,39.8888994207926));
#1258=CARTESIAN_POINT('',(56.9500000000319,3.,46.0535719211897));
#1259=CARTESIAN_POINT('',(56.9500000000319,0.,46.0535719211897));
#1260=CARTESIAN_POINT('',(56.9500000000471,3.,39.8888994207926));
#1261=CARTESIAN_POINT('Origin',(18.9499999999681,0.,46.0535719211872));
#1262=CARTESIAN_POINT('',(19.1026717556957,0.,47.0418488737683));
#1263=CARTESIAN_POINT('',(17.9499999999681,0.,46.0535719211897));
#1264=CARTESIAN_POINT('Origin',(18.9499999999681,0.,46.0535719211872));
#1265=CARTESIAN_POINT('',(17.9499999999681,3.,46.0535719211897));
#1266=CARTESIAN_POINT('',(17.9499999999681,0.,46.0535719211897));
#1267=CARTESIAN_POINT('',(19.1026717556957,3.,47.0418488737683));
#1268=CARTESIAN_POINT('Origin',(18.9499999999681,3.,46.0535719211872));
#1269=CARTESIAN_POINT('',(19.1026717556957,0.,47.0418488737683));
#1270=CARTESIAN_POINT('Origin',(17.9499999998982,0.,17.7222011584595));
#1271=CARTESIAN_POINT('',(17.9499999999164,3.,25.1111005792462));
#1272=CARTESIAN_POINT('',(17.9499999999164,0.,25.1111005792462));
#1273=CARTESIAN_POINT('Origin',(55.9500000000319,0.,46.0535719211872));
#1274=CARTESIAN_POINT('',(55.7973282443043,0.,47.0418488737683));
#1275=CARTESIAN_POINT('Origin',(55.9500000000319,0.,46.0535719211872));
#1276=CARTESIAN_POINT('',(55.7973282443043,3.,47.0418488737683));
#1277=CARTESIAN_POINT('',(55.7973282443043,0.,47.0418488737683));
#1278=CARTESIAN_POINT('Origin',(55.9500000000319,3.,46.0535719211872));
#1279=CARTESIAN_POINT('Origin',(53.95,0.,59.));
#1280=CARTESIAN_POINT('',(41.9918488737638,0.,60.8473282442748));
#1281=CARTESIAN_POINT('Origin',(53.95,0.,59.));
#1282=CARTESIAN_POINT('',(41.9918488737638,3.,60.8473282442748));
#1283=CARTESIAN_POINT('',(41.9918488737638,0.,60.8473282442748));
#1284=CARTESIAN_POINT('Origin',(53.95,3.,59.));
#1285=CARTESIAN_POINT('Origin',(41.0035719211823,0.,61.));
#1286=CARTESIAN_POINT('',(41.0035719211823,0.,62.));
#1287=CARTESIAN_POINT('Origin',(41.0035719211823,0.,61.));
#1288=CARTESIAN_POINT('',(41.0035719211823,3.,62.));
#1289=CARTESIAN_POINT('',(41.0035719211823,0.,62.));
#1290=CARTESIAN_POINT('Origin',(41.0035719211823,3.,61.));
#1291=CARTESIAN_POINT('Origin',(32.6722011584856,0.,62.));
#1292=CARTESIAN_POINT('',(33.8964280788177,0.,62.));
#1293=CARTESIAN_POINT('',(31.9815038485441,0.,62.));
#1294=CARTESIAN_POINT('',(33.8964280788177,3.,62.));
#1295=CARTESIAN_POINT('',(33.8964280788177,0.,62.));
#1296=CARTESIAN_POINT('',(31.9815038485441,3.,62.));
#1297=CARTESIAN_POINT('Origin',(33.8964280788177,0.,61.));
#1298=CARTESIAN_POINT('',(32.9081511262362,0.,60.8473282442748));
#1299=CARTESIAN_POINT('Origin',(33.8964280788177,0.,61.));
#1300=CARTESIAN_POINT('',(32.9081511262362,3.,60.8473282442748));
#1301=CARTESIAN_POINT('',(32.9081511262362,0.,60.8473282442748));
#1302=CARTESIAN_POINT('Origin',(33.8964280788177,3.,61.));
#1303=CARTESIAN_POINT('Origin',(20.95,0.,59.));
#1304=CARTESIAN_POINT('Origin',(20.95,3.,59.));
#1305=CARTESIAN_POINT('Origin',(20.95,0.,59.));
#1306=CARTESIAN_POINT('Origin',(53.95,0.,59.));
#1307=CARTESIAN_POINT('',(52.3,3.,59.));
#1308=CARTESIAN_POINT('Origin',(53.95,3.,59.));
#1309=CARTESIAN_POINT('',(52.3,0.,59.));
#1310=CARTESIAN_POINT('',(52.3,0.,59.));
#1311=CARTESIAN_POINT('Origin',(53.95,0.,59.));
#1312=CARTESIAN_POINT('Origin',(53.95,0.,6.));
#1313=CARTESIAN_POINT('',(52.3,3.,6.));
#1314=CARTESIAN_POINT('Origin',(53.95,3.,6.));
#1315=CARTESIAN_POINT('',(52.3,0.,6.));
#1316=CARTESIAN_POINT('',(52.3,0.,6.));
#1317=CARTESIAN_POINT('Origin',(53.95,0.,6.));
#1318=CARTESIAN_POINT('Origin',(20.95,0.,59.));
#1319=CARTESIAN_POINT('',(19.3,3.,59.));
#1320=CARTESIAN_POINT('Origin',(20.95,3.,59.));
#1321=CARTESIAN_POINT('',(19.3,0.,59.));
#1322=CARTESIAN_POINT('',(19.3,0.,59.));
#1323=CARTESIAN_POINT('Origin',(20.95,0.,59.));
#1324=CARTESIAN_POINT('Origin',(20.95,0.,6.));
#1325=CARTESIAN_POINT('',(19.3,3.,6.));
#1326=CARTESIAN_POINT('Origin',(20.95,3.,6.));
#1327=CARTESIAN_POINT('',(19.3,0.,6.));
#1328=CARTESIAN_POINT('',(19.3,0.,6.));
#1329=CARTESIAN_POINT('Origin',(20.95,0.,6.));
#1330=CARTESIAN_POINT('Origin',(31.2908065386026,0.,32.5));
#1331=CARTESIAN_POINT('',(51.85,0.,59.));
#1332=CARTESIAN_POINT('Origin',(53.95,0.,59.));
#1333=CARTESIAN_POINT('Origin',(31.2908065386026,0.,32.5));
#1334=CARTESIAN_POINT('',(51.85,0.,6.));
#1335=CARTESIAN_POINT('Origin',(53.95,0.,6.));
#1336=CARTESIAN_POINT('Origin',(53.95,-5.,59.));
#1337=CARTESIAN_POINT('',(49.85,-5.,59.));
#1338=CARTESIAN_POINT('Origin',(53.95,-5.,59.));
#1339=CARTESIAN_POINT('',(51.85,-5.,59.));
#1340=CARTESIAN_POINT('Origin',(53.95,-5.,59.));
#1341=CARTESIAN_POINT('Origin',(53.95,0.,59.));
#1342=CARTESIAN_POINT('',(51.85,0.,59.));
#1343=CARTESIAN_POINT('Origin',(31.2908065386026,0.,32.5));
#1344=CARTESIAN_POINT('',(18.85,0.,59.));
#1345=CARTESIAN_POINT('Origin',(20.95,0.,59.));
#1346=CARTESIAN_POINT('Origin',(53.95,-5.,6.));
#1347=CARTESIAN_POINT('',(49.85,-5.,6.));
#1348=CARTESIAN_POINT('Origin',(53.95,-5.,6.));
#1349=CARTESIAN_POINT('',(51.85,-5.,6.));
#1350=CARTESIAN_POINT('Origin',(53.95,-5.,6.));
#1351=CARTESIAN_POINT('Origin',(53.95,0.,6.));
#1352=CARTESIAN_POINT('',(51.85,0.,6.));
#1353=CARTESIAN_POINT('Origin',(31.2908065386026,0.,32.5));
#1354=CARTESIAN_POINT('',(18.85,0.,6.));
#1355=CARTESIAN_POINT('Origin',(20.95,0.,6.));
#1356=CARTESIAN_POINT('Origin',(20.95,-5.,59.));
#1357=CARTESIAN_POINT('',(16.85,-5.,59.));
#1358=CARTESIAN_POINT('Origin',(20.95,-5.,59.));
#1359=CARTESIAN_POINT('',(18.85,-5.,59.));
#1360=CARTESIAN_POINT('Origin',(20.95,-5.,59.));
#1361=CARTESIAN_POINT('Origin',(20.95,0.,59.));
#1362=CARTESIAN_POINT('',(18.85,0.,59.));
#1363=CARTESIAN_POINT('Origin',(20.95,-5.,6.));
#1364=CARTESIAN_POINT('',(16.85,-5.,6.));
#1365=CARTESIAN_POINT('Origin',(20.95,-5.,6.));
#1366=CARTESIAN_POINT('',(18.85,-5.,6.));
#1367=CARTESIAN_POINT('Origin',(20.95,-5.,6.));
#1368=CARTESIAN_POINT('Origin',(20.95,0.,6.));
#1369=CARTESIAN_POINT('',(18.85,0.,6.));
#1370=CARTESIAN_POINT('Origin',(20.95,-2.5,59.));
#1371=CARTESIAN_POINT('',(14.95,-3.10000000000001,59.0000000000222));
#1372=CARTESIAN_POINT('',(14.9499999999831,0.,52.1582166067759));
#1373=CARTESIAN_POINT('Ctrl Pts',(14.95,-3.10000000000001,59.0000000000222));
#1374=CARTESIAN_POINT('Ctrl Pts',(14.9499999999933,-3.1000000000027,56.2814105722428));
#1375=CARTESIAN_POINT('Ctrl Pts',(14.9499999999831,-5.55111512312578E-16,
52.1582166067759));
#1376=CARTESIAN_POINT('',(27.7917833932389,0.,65.));
#1377=CARTESIAN_POINT('Origin',(20.95,0.,59.));
#1378=CARTESIAN_POINT('',(20.95,-3.1,65.));
#1379=CARTESIAN_POINT('Ctrl Pts',(27.7917833932182,-1.56062237059683E-11,
65.));
#1380=CARTESIAN_POINT('Ctrl Pts',(23.6685894277716,-3.09999999999999,65.));
#1381=CARTESIAN_POINT('Ctrl Pts',(20.95,-3.1,65.));
#1382=CARTESIAN_POINT('Origin',(20.95,-3.1,59.));
#1383=CARTESIAN_POINT('',(14.35,-2.5,59.));
#1384=CARTESIAN_POINT('Origin',(53.95,-2.5,59.));
#1385=CARTESIAN_POINT('',(59.95,-3.1,59.0000000000222));
#1386=CARTESIAN_POINT('',(53.95,-3.1,65.));
#1387=CARTESIAN_POINT('Origin',(53.95,-3.1,59.));
#1388=CARTESIAN_POINT('',(47.1082166067611,0.,65.));
#1389=CARTESIAN_POINT('Ctrl Pts',(53.95,-3.1,65.));
#1390=CARTESIAN_POINT('Ctrl Pts',(51.2314105722284,-3.1,65.));
#1391=CARTESIAN_POINT('Ctrl Pts',(47.1082166067818,-1.55875224193225E-11,
65.));
#1392=CARTESIAN_POINT('',(44.85,1.27675647831893E-14,59.));
#1393=CARTESIAN_POINT('Origin',(53.95,0.,59.));
#1394=CARTESIAN_POINT('',(47.35,-2.5,59.));
#1395=CARTESIAN_POINT('',(59.9500000000169,0.,52.1582166067759));
#1396=CARTESIAN_POINT('Origin',(53.95,0.,59.));
#1397=CARTESIAN_POINT('Ctrl Pts',(59.9500000000169,1.16573417585641E-14,
52.1582166067758));
#1398=CARTESIAN_POINT('Ctrl Pts',(59.9500000000067,-3.10000000000269,56.2814105722428));
#1399=CARTESIAN_POINT('Ctrl Pts',(59.95,-3.1,59.0000000000222));
#1400=CARTESIAN_POINT('Origin',(31.2908065386026,0.,32.5));
#1401=CARTESIAN_POINT('',(14.9499999998862,0.,12.8417833931391));
#1402=CARTESIAN_POINT('',(14.949999999902,0.,19.2500000000275));
#1403=CARTESIAN_POINT('',(27.7917833932389,0.,0.));
#1404=CARTESIAN_POINT('Origin',(20.95,0.,6.));
#1405=CARTESIAN_POINT('',(47.1082166067611,0.,0.));
#1406=CARTESIAN_POINT('',(60.95,0.,0.));
#1407=CARTESIAN_POINT('',(44.85,1.66533453693773E-15,6.));
#1408=CARTESIAN_POINT('Origin',(53.95,0.,6.));
#1409=CARTESIAN_POINT('',(59.9500000001138,0.,12.8417833931391));
#1410=CARTESIAN_POINT('Origin',(53.95,0.,6.));
#1411=CARTESIAN_POINT('',(59.9500000000327,0.,45.7500000000464));
#1412=CARTESIAN_POINT('',(3.83836891513024,0.,65.));
#1413=CARTESIAN_POINT('Origin',(20.95,-2.5,6.));
#1414=CARTESIAN_POINT('',(14.9499999998693,-3.09999999986929,6.00000000001479));
#1415=CARTESIAN_POINT('',(20.9500198034223,-3.09999999986928,5.55111512312578E-16));
#1416=CARTESIAN_POINT('Origin',(20.95,-3.09999999986928,6.));
#1417=CARTESIAN_POINT('Ctrl Pts',(20.9500396068446,-3.09999999986928,1.11022302462516E-15));
#1418=CARTESIAN_POINT('Ctrl Pts',(23.6686132968329,-3.09998205418165,1.11022302462516E-15));
#1419=CARTESIAN_POINT('Ctrl Pts',(27.7917833932182,-1.56195817678582E-11,
1.11022302462516E-15));
#1420=CARTESIAN_POINT('Ctrl Pts',(14.9499999998862,0.,12.8417833931391));
#1421=CARTESIAN_POINT('Ctrl Pts',(14.949999999876,-3.09999999986929,8.718589427782));
#1422=CARTESIAN_POINT('Ctrl Pts',(14.9499999998693,-3.09999999986929,6.00000000001479));
#1423=CARTESIAN_POINT('',(14.35,-2.5,6.));
#1424=CARTESIAN_POINT('Origin',(53.95,-2.5,6.));
#1425=CARTESIAN_POINT('',(53.9499801965844,-3.09999999986929,5.55111512312578E-16));
#1426=CARTESIAN_POINT('',(59.9500000001307,-3.0999999998693,6.0000000000148));
#1427=CARTESIAN_POINT('Origin',(53.95,-3.0999999998693,6.));
#1428=CARTESIAN_POINT('Ctrl Pts',(59.9500000001307,-3.0999999998693,6.0000000000148));
#1429=CARTESIAN_POINT('Ctrl Pts',(59.950000000124,-3.0999999998693,8.71858942778199));
#1430=CARTESIAN_POINT('Ctrl Pts',(59.9500000001138,-5.55111512312578E-16,
12.8417833931391));
#1431=CARTESIAN_POINT('',(47.35,-2.5,6.));
#1432=CARTESIAN_POINT('Ctrl Pts',(47.1082166067818,-1.56169101554803E-11,
1.11022302462516E-15));
#1433=CARTESIAN_POINT('Ctrl Pts',(51.2313867031752,-3.09998205418776,1.11022302462516E-15));
#1434=CARTESIAN_POINT('Ctrl Pts',(53.9499603931689,-3.09999999986928,1.11022302462516E-15));
#1435=CARTESIAN_POINT('Origin',(0.,0.,0.));
#1436=CARTESIAN_POINT('',(20.9500396068446,3.,0.));
#1437=CARTESIAN_POINT('',(20.95,3.,0.));
#1438=CARTESIAN_POINT('',(53.9499603931554,3.,2.55351295663786E-14));
#1439=CARTESIAN_POINT('',(60.95,3.,0.));
#1440=CARTESIAN_POINT('',(53.95,3.,0.));
#1441=CARTESIAN_POINT('Origin',(31.2908065386026,3.,32.5));
#1442=CARTESIAN_POINT('',(14.9499999998693,3.,6.00000000001479));
#1443=CARTESIAN_POINT('Origin',(20.95,3.,6.));
#1444=CARTESIAN_POINT('',(14.95,3.,59.0000000000222));
#1445=CARTESIAN_POINT('',(14.949999999902,3.,19.2500000000275));
#1446=CARTESIAN_POINT('',(20.95,3.,65.));
#1447=CARTESIAN_POINT('Origin',(20.95,3.,59.));
#1448=CARTESIAN_POINT('',(53.95,3.,65.));
#1449=CARTESIAN_POINT('',(3.83836891513024,3.,65.));
#1450=CARTESIAN_POINT('',(59.95,3.,59.0000000000222));
#1451=CARTESIAN_POINT('Origin',(53.95,3.,59.));
#1452=CARTESIAN_POINT('',(59.9500000001307,3.,6.0000000000148));
#1453=CARTESIAN_POINT('',(59.9500000000327,3.,45.7500000000464));
#1454=CARTESIAN_POINT('Origin',(53.95,3.,6.));
#1455=CARTESIAN_POINT('Origin',(0.,0.,65.));
#1456=CARTESIAN_POINT('',(20.95,3.,65.));
#1457=CARTESIAN_POINT('',(53.95,3.,65.));
#1458=CARTESIAN_POINT('Origin',(53.95,3.,59.));
#1459=CARTESIAN_POINT('',(59.95,3.,59.0000000000222));
#1460=CARTESIAN_POINT('Origin',(59.95,3.,59.0000000000222));
#1461=CARTESIAN_POINT('',(59.9500000001307,3.,6.0000000000148));
#1462=CARTESIAN_POINT('Origin',(53.95,3.,6.));
#1463=CARTESIAN_POINT('Origin',(20.95,3.,6.));
#1464=CARTESIAN_POINT('',(14.9499999998693,3.,6.00000000001479));
#1465=CARTESIAN_POINT('Origin',(14.9499999998693,3.,6.00000000001479));
#1466=CARTESIAN_POINT('',(14.95,3.,59.0000000000222));
#1467=CARTESIAN_POINT('Origin',(20.95,3.,59.));
#1468=UNCERTAINTY_MEASURE_WITH_UNIT(LENGTH_MEASURE(0.01),#1472,
'DISTANCE_ACCURACY_VALUE',
'Maximum model space distance between geometric entities at asserted c
onnectivities');
#1469=UNCERTAINTY_MEASURE_WITH_UNIT(LENGTH_MEASURE(0.01),#1472,
'DISTANCE_ACCURACY_VALUE',
'Maximum model space distance between geometric entities at asserted c
onnectivities');
#1470=(
GEOMETRIC_REPRESENTATION_CONTEXT(3)
GLOBAL_UNCERTAINTY_ASSIGNED_CONTEXT((#1468))
GLOBAL_UNIT_ASSIGNED_CONTEXT((#1472,#1474,#1475))
REPRESENTATION_CONTEXT('','3D')
);
#1471=(
GEOMETRIC_REPRESENTATION_CONTEXT(3)
GLOBAL_UNCERTAINTY_ASSIGNED_CONTEXT((#1469))
GLOBAL_UNIT_ASSIGNED_CONTEXT((#1472,#1474,#1475))
REPRESENTATION_CONTEXT('','3D')
);
#1472=(
LENGTH_UNIT()
NAMED_UNIT(*)
SI_UNIT(.MILLI.,.METRE.)
);
#1473=(
LENGTH_UNIT()
NAMED_UNIT(*)
SI_UNIT($,.METRE.)
);
#1474=(
NAMED_UNIT(*)
PLANE_ANGLE_UNIT()
SI_UNIT($,.RADIAN.)
);
#1475=(
NAMED_UNIT(*)
SI_UNIT($,.STERADIAN.)
SOLID_ANGLE_UNIT()
);
#1476=SHAPE_DEFINITION_REPRESENTATION(#1477,#1478);
#1477=PRODUCT_DEFINITION_SHAPE('',$,#1480);
#1478=SHAPE_REPRESENTATION('',(#842),#1470);
#1479=PRODUCT_DEFINITION_CONTEXT('part definition',#1484,'design');
#1480=PRODUCT_DEFINITION('Foice','Foice v1',#1481,#1479);
#1481=PRODUCT_DEFINITION_FORMATION('',$,#1486);
#1482=PRODUCT_RELATED_PRODUCT_CATEGORY('Foice v1','Foice v1',(#1486));
#1483=APPLICATION_PROTOCOL_DEFINITION('international standard',
'automotive_design',2009,#1484);
#1484=APPLICATION_CONTEXT(
'Core Data for Automotive Mechanical Design Process');
#1485=PRODUCT_CONTEXT('part definition',#1484,'mechanical');
#1486=PRODUCT('Foice','Foice v1',$,(#1485));
#1487=PRESENTATION_STYLE_ASSIGNMENT((#1488));
#1488=SURFACE_STYLE_USAGE(.BOTH.,#1489);
#1489=SURFACE_SIDE_STYLE('',(#1490));
#1490=SURFACE_STYLE_FILL_AREA(#1491);
#1491=FILL_AREA_STYLE('Paek (Beige)',(#1492));
#1492=FILL_AREA_STYLE_COLOUR('Paek (Beige)',#1493);
#1493=COLOUR_RGB('Paek (Beige)',0.898039215686275,0.792156862745098,0.619607843137255);
ENDSEC;
END-ISO-10303-21;
