0
SECTION
2
HEADER
9
$INSUNITS
70
4
9
$ACADVER
1
AC1014
9
$HANDSEED
5
FFFF
0
ENDSEC
0
SECTION
2
TABLES
0
TABLE
2
VPORT
5
8
100
AcDbSymbolTable
0
ENDTAB
0
TABLE
2
LTYPE
5
5
100
AcDbSymbolTable
0
LTYPE
5
14
100
AcDbSymbolTableRecord
100
AcDbLinetypeTableRecord
2
BYBLOCK
70
0
0
LTYPE
5
15
100
AcDbSymbolTableRecord
100
AcDbLinetypeTableRecord
2
BYLAYER
70
0
0
LTYPE
5
16
100
AcDbSymbolTableRecord
100
AcDbLinetypeTableRecord
2
DASHED
70
0
3
Dashed __ __ __ __ __ __ __ __ __ __ __ __ __ _
72
65
73
2
40
0.75
49
0.5
74
0
49
-0.25
74
0
0
ENDTAB
0
TABLE
2
LAYER
5
2
100
AcDbSymbolTable
70
2
0
LAYER
5
50
100
AcDbSymbolTableRecord
100
AcDbLayerTableRecord
2
0
70
0
62
7
6
CONTINUOUS
0
ENDTAB
0
TABLE
2
STYLE
5
3
100
AcDbSymbolTable
70
1
0
STYLE
5
11
100
AcDbSymbolTableRecord
100
AcDbTextStyleTableRecord
2
STANDARD
70
0
0
ENDTAB
0
TABLE
2
VIEW
5
6
100
AcDbSymbolTable
70
0
0
ENDTAB
0
TABLE
2
UCS
5
7
100
AcDbSymbolTable
70
0
0
ENDTAB
0
TABLE
2
APPID
5
9
100
AcDbSymbolTable
70
2
0
APPID
5
12
100
AcDbSymbolTableRecord
100
AcDbRegAppTableRecord
2
ACAD
70
0
0
ENDTAB
0
TABLE
2
DIMSTYLE
5
A
100
AcDbSymbolTable
70
1
0
ENDTAB
0
TABLE
2
BLOCK_RECORD
5
1
100
AcDbSymbolTable
70
1
0
BLOCK_RECORD
5
1F
100
AcDbSymbolTableRecord
100
AcDbBlockTableRecord
2
*MODEL_SPACE
0
BLOCK_RECORD
5
1B
100
AcDbSymbolTableRecord
100
AcDbBlockTableRecord
2
*PAPER_SPACE
0
ENDTAB
0
ENDSEC
0
SECTION
2
BLOCKS
0
BLOCK
5
20
100
AcDbEntity
100
AcDbBlockBegin
2
*MODEL_SPACE
0
ENDBLK
5
21
100
AcDbEntity
100
AcDbBlockEnd
0
BLOCK
5
1C
100
AcDbEntity
100
AcDbBlockBegin
2
*PAPER_SPACE
0
ENDBLK
5
1D
100
AcDbEntity
100
AcDbBlockEnd
0
ENDSEC
0
SECTION
2
ENTITIES
0
SPLINE
5
100
100
AcDbEntity
8
0
100
AcDbSpline
70
4
71
5
72
66
73
60
74
0
42
0.000000001
43
0.0000000001
44
0.0000000001
40
0
40
0
40
0
40
0
40
0
40
0
40
0.018181818181818181
40
0.036363636363636362
40
0.054545454545454543
40
0.072727272727272724
40
0.090909090909090912
40
0.1090909090909091
40
0.12727272727272729
40
0.14545454545454548
40
0.16363636363636366
40
0.18181818181818185
40
0.20000000000000004
40
0.21818181818181823
40
0.23636363636363641
40
0.25454545454545457
40
0.27272727272727276
40
0.29090909090909095
40
0.30909090909090914
40
0.32727272727272733
40
0.34545454545454551
40
0.3636363636363637
40
0.38181818181818189
40
0.40000000000000008
40
0.41818181818181827
40
0.43636363636363645
40
0.45454545454545464
40
0.47272727272727283
40
0.49090909090909102
40
0.50909090909090915
40
0.52727272727272734
40
0.54545454545454553
40
0.56363636363636371
40
0.5818181818181819
40
0.60000000000000009
40
0.61818181818181828
40
0.63636363636363646
40
0.65454545454545465
40
0.67272727272727284
40
0.69090909090909103
40
0.70909090909090922
40
0.7272727272727274
40
0.74545454545454559
40
0.76363636363636378
40
0.78181818181818197
40
0.80000000000000016
40
0.81818181818181834
40
0.83636363636363653
40
0.85454545454545472
40
0.87272727272727291
40
0.89090909090909109
40
0.90909090909090928
40
0.92727272727272747
40
0.94545454545454566
40
0.96363636363636385
40
0.98181818181818203
40
1
40
1
40
1
40
1
40
1
40
1
41
1
41
1
41
1
41
1
41
1
41
1
41
1
41
1
41
1
41
1
41
1
41
1
41
1
41
1
41
1
41
1
41
1
41
1
41
1
41
1
41
1
41
1
41
1
41
1
41
1
41
1
41
1
41
1
41
1
41
1
41
1
41
1
41
1
41
1
41
1
41
1
41
1
41
1
41
1
41
1
41
1
41
1
41
1
41
1
41
1
41
1
41
1
41
1
41
1
41
1
41
1
41
1
41
1
41
1
41
1
41
1
41
1
41
1
41
1
41
1
10
6.6410573143473994e-15
20
-69.331463761956542
30
0
10
-0.60758307299704362
20
-69.800110514954184
30
0
10
-1.9127975262183416
20
-70.781341179861585
30
0
10
-4.1407516871358832
20
-72.3849974977107
30
0
10
-7.6199387298958667
20
-74.764130093098871
30
0
10
-12.633268365079227
20
-77.999532109448751
30
0
10
-18.08076023551439
20
-81.303329363761492
30
0
10
-23.736711551487822
20
-84.459118465454438
30
0
10
-29.444774560408927
20
-87.257965031287341
30
0
10
-35.126993856701986
20
-89.524402108208463
30
0
10
-40.755707397257225
20
-91.138323830772862
30
0
10
-46.336396233763409
20
-92.059721071740753
30
0
10
-51.886614778809637
20
-92.349051363812578
30
0
10
-57.415032223983744
20
-92.19913073010602
30
0
10
-62.928221181649526
20
-91.848655796917797
30
0
10
-68.458616404872728
20
-91.438011485504489
30
0
10
-74.057240313320904
20
-90.948200302559869
30
0
10
-79.871244837809542
20
-89.947626051717862
30
0
10
-85.809571775215062
20
-88.216424932474411
30
0
10
-91.639673179849254
20
-85.70561997210018
30
0
10
-97.080319984552517
20
-82.474641210743741
30
0
10
-101.88398784750035
20
-78.646897248557636
30
0
10
-105.94503085437714
20
-74.350507149269589
30
0
10
-109.30220898345252
20
-69.696960789162318
30
0
10
-112.0678021022338
20
-64.782898633272609
30
0
10
-114.37907221819106
20
-59.685228758756196
30
0
10
-116.33961213824598
20
-54.458866554104823
30
0
10
-117.96774579751649
20
-49.133530416741671
30
0
10
-119.22631356306475
20
-43.718805942459433
30
0
10
-120.05160366883175
20
-38.208627791878556
30
0
10
-120.37998506356311
20
-32.58610765499246
30
0
10
-120.18165234562133
20
-26.82781998366222
30
0
10
-119.46292595120185
20
-20.909955913739363
30
0
10
-118.24889749981493
20
-14.815409318415274
30
0
10
-116.5715948462497
20
-8.5409412737064798
30
0
10
-114.45693474857421
20
-2.1035783141425304
30
0
10
-111.90952174671089
20
4.4506405373383151
30
0
10
-108.91846330519243
20
11.053697818206135
30
0
10
-105.46874889408826
20
17.626575627778056
30
0
10
-101.55073167765411
20
24.088875936621569
30
0
10
-97.170377167931889
20
30.36896589168888
30
0
10
-92.359324370533727
20
36.413994304871295
30
0
10
-87.184800037241416
20
42.199775903970803
30
0
10
-81.736839121446465
20
47.722891514759496
30
0
10
-76.115872764822697
20
52.993073878601116
30
0
10
-70.420268493227368
20
58.025576439037678
30
0
10
-64.733774605442306
20
62.833454661522183
30
0
10
-59.113274499383188
20
67.420166586529973
30
0
10
-53.575562144283197
20
71.771280073998099
30
0
10
-48.10452711566672
20
75.864290902752842
30
0
10
-42.659298748949567
20
79.679012498275426
30
0
10
-37.18208945080795
20
83.208463175834311
30
0
10
-31.605873222912429
20
86.467979169314304
30
0
10
-25.86271869981816
20
89.50907154267378
30
0
10
-19.88936884972826
20
92.415435231493589
30
0
10
-13.630220754243725
20
95.282270394306863
30
0
10
-8.3588798826032189
20
97.616658751485076
30
0
10
-4.2436250641322495
20
99.421162400716014
30
0
10
-1.4267674567831754
20
100.65185283271013
30
0
10
0
20
101.27411975581283
30
0
0
SPLINE
5
101
100
AcDbEntity
8
0
100
AcDbSpline
70
4
71
5
72
61
73
55
74
0
42
0.000000001
43
0.0000000001
44
0.0000000001
40
0
40
0
40
0
40
0
40
0
40
0
40
0.02
40
0.040000000000000001
40
0.059999999999999998
40
0.080000000000000002
40
0.10000000000000001
40
0.12000000000000001
40
0.14000000000000001
40
0.16
40
0.17999999999999999
40
0.19999999999999998
40
0.21999999999999997
40
0.23999999999999996
40
0.25999999999999995
40
0.27999999999999997
40
0.29999999999999999
40
0.32000000000000001
40
0.34000000000000002
40
0.36000000000000004
40
0.38000000000000006
40
0.40000000000000008
40
0.4200000000000001
40
0.44000000000000011
40
0.46000000000000013
40
0.48000000000000015
40
0.50000000000000011
40
0.52000000000000013
40
0.54000000000000015
40
0.56000000000000016
40
0.58000000000000018
40
0.6000000000000002
40
0.62000000000000022
40
0.64000000000000024
40
0.66000000000000025
40
0.68000000000000027
40
0.70000000000000029
40
0.72000000000000031
40
0.74000000000000032
40
0.76000000000000034
40
0.78000000000000036
40
0.80000000000000038
40
0.8200000000000004
40
0.84000000000000041
40
0.86000000000000043
40
0.88000000000000045
40
0.90000000000000047
40
0.92000000000000048
40
0.9400000000000005
40
0.96000000000000052
40
0.98000000000000054
40
1
40
1
40
1
40
1
40
1
40
1
41
1
41
1
41
1
41
1
41
1
41
1
41
1
41
1
41
1
41
1
41
1
41
1
41
1
41
1
41
1
41
1
41
1
41
1
41
1
41
1
41
1
41
1
41
1
41
1
41
1
41
1
41
1
41
1
41
1
41
1
41
1
41
1
41
1
41
1
41
1
41
1
41
1
41
1
41
1
41
1
41
1
41
1
41
1
41
1
41
1
41
1
41
1
41
1
41
1
41
1
41
1
41
1
41
1
41
1
41
1
10
6.6410573143473994e-15
20
-69.331463761956542
30
0
10
0.62900707782879917
20
-69.816635482068691
30
0
10
1.983531453671119
20
-70.834044876450946
30
0
10
4.304835934658187
20
-72.501355421845076
30
0
10
7.9425318997375172
20
-74.980816046283564
30
0
10
13.185782564783672
20
-78.348076733921957
30
0
10
18.867401368234315
20
-81.76540778101878
30
0
10
24.741842764721689
20
-84.991609133432263
30
0
10
30.651622485593442
20
-87.798575404670061
30
0
10
36.52302776010886
20
-90.000593684224157
30
0
10
42.33598722201247
20
-91.48197601938746
30
0
10
48.102338611607259
20
-92.224403899592858
30
0
10
53.841375294440226
20
-92.337109176917167
30
0
10
59.556151763499514
20
-92.07622685014681
30
0
10
65.267560012494272
20
-91.672956874936261
30
0
10
71.006115969367372
20
-91.248045844164807
30
0
10
76.894628749275824
20
-90.557603096838605
30
0
10
83.007552789394367
20
-89.143938203551699
30
0
10
89.130421274536573
20
-86.90933726976796
30
0
10
94.973795850295943
20
-83.857347722307779
30
0
10
100.23081518124212
20
-80.112318890074405
30
0
10
104.71138794336966
20
-75.819040354491676
30
0
10
108.40912603357056
20
-71.106163390313938
30
0
10
111.42470478417562
20
-66.083804226397817
30
0
10
113.90629604222809
20
-60.841767717202238
30
0
10
115.98734445051269
20
-55.447355446353257
30
0
10
117.71611505509705
20
-49.942718526372076
30
0
10
119.07022006912064
20
-44.347171008310546
30
0
10
119.99032564942276
20
-38.660227670283916
30
0
10
120.40503391846863
20
-32.864952030959749
30
0
10
120.26431603937243
20
-26.929654958068259
30
0
10
119.54897586073909
20
-20.816343736008495
30
0
10
118.26149816322703
20
-14.494659027126385
30
0
10
116.42216730172547
20
-7.9546789226815031
30
0
10
114.06311026467577
20
-1.2193313222686448
30
0
10
111.22323908819772
20
5.6405392939419485
30
0
10
107.94355522084858
20
12.522724926715831
30
0
10
104.26281619507807
20
19.313559482516268
30
0
10
100.21289532708032
20
25.907233567096839
30
0
10
95.814661589304308
20
32.223895909220438
30
0
10
91.072671036676255
20
38.231880354360669
30
0
10
85.973457015195876
20
43.956637158845922
30
0
10
80.492156474464096
20
49.458517247733027
30
0
10
74.597354189784511
20
54.817219705779152
30
0
10
68.256817161483212
20
60.113000703801056
30
0
10
61.442411980853471
20
65.410798021537005
30
0
10
54.136475627663543
20
70.739370724072586
30
0
10
46.333566422230021
20
76.086298881802918
30
0
10
38.036582471381053
20
81.412287140728267
30
0
10
29.254344518010249
20
86.660496555728884
30
0
10
19.99861612972888
20
91.767840247997839
30
0
10
12.224835014619448
20
95.693897756263326
30
0
10
6.1910589075375082
20
98.528782295526838
30
0
10
2.0786656262512455
20
100.36753553477723
30
0
10
0
20
101.27411975581283
30
0
0
CIRCLE
5
102
100
AcDbEntity
8
0
100
AcDbCircle
10
-60.924283927785289
20
-15.06489878990326
30
0
40
5.0000000000000009
210
0
220
0
230
1
0
CIRCLE
5
103
100
AcDbEntity
8
0
100
AcDbCircle
10
59.075716072214711
20
-15.06489878990326
30
0
40
5
210
0
220
0
230
1
0
CIRCLE
5
104
100
AcDbEntity
8
0
100
AcDbCircle
10
-68.918974818418008
20
-84.095100519876553
30
0
40
1.4999999999999967
210
0
220
0
230
1
0
CIRCLE
5
105
100
AcDbEntity
8
0
100
AcDbCircle
10
-108.35668730295778
20
-7.7206036595729355
30
0
40
1.4999999999999967
210
0
220
0
230
1
0
CIRCLE
5
106
100
AcDbEntity
8
0
100
AcDbCircle
10
-95.407325191786981
20
21.855706348633539
30
0
40
1.4999999999999967
210
0
220
0
230
1
0
CIRCLE
5
107
100
AcDbEntity
8
0
100
AcDbCircle
10
-69.674685390991996
20
51.069544221199706
30
0
40
1.4999999999999967
210
0
220
0
230
1
0
CIRCLE
5
108
100
AcDbEntity
8
0
100
AcDbCircle
10
-40.520504774912148
20
74.497731999954979
30
0
40
1.4999999999999967
210
0
220
0
230
1
0
CIRCLE
5
109
100
AcDbEntity
8
0
100
AcDbCircle
10
-7.683321726559277
20
94.96475910941065
30
0
40
1.4999999999999967
210
0
220
0
230
1
0
CIRCLE
5
110
100
AcDbEntity
8
0
100
AcDbCircle
10
-7.6833217265592735
20
80.950287515037346
30
0
40
1.4999999999999967
210
0
220
0
230
1
0
CIRCLE
5
111
100
AcDbEntity
8
0
100
AcDbCircle
10
7.6833217265592735
20
80.950287515037346
30
0
40
1.4999999999999967
210
0
220
0
230
1
0
CIRCLE
5
112
100
AcDbEntity
8
0
100
AcDbCircle
10
-7.6833217265592708
20
68.362592188991101
30
0
40
1.4999999999999967
210
0
220
0
230
1
0
CIRCLE
5
113
100
AcDbEntity
8
0
100
AcDbCircle
10
7.6833217265592708
20
68.362592188991101
30
0
40
1.4999999999999967
210
0
220
0
230
1
0
CIRCLE
5
114
100
AcDbEntity
8
0
100
AcDbCircle
10
7.6833217265592708
20
56.273990614884646
30
0
40
1.4999999999999967
210
0
220
0
230
1
0
CIRCLE
5
115
100
AcDbEntity
8
0
100
AcDbCircle
10
-7.683321726559269
20
56.273990614884653
30
0
40
1.4999999999999967
210
0
220
0
230
1
0
CIRCLE
5
116
100
AcDbEntity
8
0
100
AcDbCircle
10
7.683321726559277
20
94.96475910941065
30
0
40
1.4999999999999967
210
0
220
0
230
1
0
CIRCLE
5
117
100
AcDbEntity
8
0
100
AcDbCircle
10
68.918974818418008
20
-84.095100519876553
30
0
40
1.4999999999999967
210
0
220
0
230
1
0
CIRCLE
5
118
100
AcDbEntity
8
0
100
AcDbCircle
10
108.35668730295778
20
-7.7206036595729355
30
0
40
1.4999999999999967
210
0
220
0
230
1
0
CIRCLE
5
119
100
AcDbEntity
8
0
100
AcDbCircle
10
69.674685390991996
20
51.069544221199706
30
0
40
1.4999999999999967
210
0
220
0
230
1
0
CIRCLE
5
120
100
AcDbEntity
8
0
100
AcDbCircle
10
40.520504774912148
20
74.497731999954979
30
0
40
1.4999999999999967
210
0
220
0
230
1
0
CIRCLE
5
121
100
AcDbEntity
8
0
100
AcDbCircle
10
-6.9660358467041084
20
-58.689987061174008
30
0
40
1.4999999999999967
210
0
220
0
230
1
0
CIRCLE
5
122
100
AcDbEntity
8
0
100
AcDbCircle
10
-6.9660358467041092
20
-50.005314890462543
30
0
40
1.4999999999999967
210
0
220
0
230
1
0
CIRCLE
5
123
100
AcDbEntity
8
0
100
AcDbCircle
10
-6.9660358467041092
20
-42.181285907839623
30
0
40
1.4999999999999967
210
0
220
0
230
1
0
CIRCLE
5
124
100
AcDbEntity
8
0
100
AcDbCircle
10
6.9660358467041172
20
-58.689987061174008
30
0
40
1.4999999999999967
210
0
220
0
230
1
0
CIRCLE
5
125
100
AcDbEntity
8
0
100
AcDbCircle
10
6.9660358467041137
20
-50.005314890462543
30
0
40
1.4999999999999967
210
0
220
0
230
1
0
CIRCLE
5
126
100
AcDbEntity
8
0
100
AcDbCircle
10
6.9660358467041119
20
-42.181285907839623
30
0
40
1.4999999999999967
210
0
220
0
230
1
0
CIRCLE
5
127
100
AcDbEntity
8
0
100
AcDbCircle
10
-6.8207969513419062
20
19.223709866294449
30
0
40
1.5000000000000002
210
0
220
0
230
1
0
CIRCLE
5
128
100
AcDbEntity
8
0
100
AcDbCircle
10
6.8207969513419062
20
19.223709866294449
30
0
40
1.5000000000000002
210
0
220
0
230
1
0
CIRCLE
5
129
100
AcDbEntity
8
0
100
AcDbCircle
10
95.407325191786981
20
21.855706348633539
30
0
40
1.4999999999999967
210
0
220
0
230
1
0
CIRCLE
5
130
100
AcDbEntity
8
0
100
AcDbCircle
10
-45
20
-53.815614235719295
30
0
40
5.0000000000000018
210
0
220
0
230
1
0
CIRCLE
5
131
100
AcDbEntity
8
0
100
AcDbCircle
10
45
20
-53.815614235719295
30
0
40
5.0000000000000018
210
0
220
0
230
1
0
CIRCLE
5
132
100
AcDbEntity
8
0
100
AcDbCircle
10
45
20
16.184385764280709
30
0
40
5.0000000000000018
210
0
220
0
230
1
0
CIRCLE
5
133
100
AcDbEntity
8
0
100
AcDbCircle
10
-45
20
16.184385764280709
30
0
40
5.0000000000000018
210
0
220
0
230
1
0
ENDSEC
0
SECTION
2
OBJECTS
0
DICTIONARY
5
C
100
AcDbDictionary
3
ACAD_GROUP
350
D
3
ACAD_MLINESTYLE
350
17
0
DICTIONARY
5
D
100
AcDbDictionary
0
DICTIONARY
5
1A
330
C
100
AcDbDictionary
0
DICTIONARY
5
17
100
AcDbDictionary
0
ENDSEC
0
EOF
