0
SECTION
2
HEADER
9
$INSUNITS
70
4
9
$ACADVER
1
AC1014
9
$HANDSEED
5
FFFF
0
ENDSEC
0
SECTION
2
TABLES
0
TABLE
2
VPORT
5
8
100
AcDbSymbolTable
0
ENDTAB
0
TABLE
2
LTYPE
5
5
100
AcDbSymbolTable
0
LTYPE
5
14
100
AcDbSymbolTableRecord
100
AcDbLinetypeTableRecord
2
BYBLOCK
70
0
0
LTYPE
5
15
100
AcDbSymbolTableRecord
100
AcDbLinetypeTableRecord
2
BYLAYER
70
0
0
LTYPE
5
16
100
AcDbSymbolTableRecord
100
AcDbLinetypeTableRecord
2
DASHED
70
0
3
Dashed __ __ __ __ __ __ __ __ __ __ __ __ __ _
72
65
73
2
40
0.75
49
0.5
74
0
49
-0.25
74
0
0
ENDTAB
0
TABLE
2
LAYER
5
2
100
AcDbSymbolTable
70
2
0
LAYER
5
50
100
AcDbSymbolTableRecord
100
AcDbLayerTableRecord
2
0
70
0
62
7
6
CONTINUOUS
0
ENDTAB
0
TABLE
2
STYLE
5
3
100
AcDbSymbolTable
70
1
0
STYLE
5
11
100
AcDbSymbolTableRecord
100
AcDbTextStyleTableRecord
2
STANDARD
70
0
0
ENDTAB
0
TABLE
2
VIEW
5
6
100
AcDbSymbolTable
70
0
0
ENDTAB
0
TABLE
2
UCS
5
7
100
AcDbSymbolTable
70
0
0
ENDTAB
0
TABLE
2
APPID
5
9
100
AcDbSymbolTable
70
2
0
APPID
5
12
100
AcDbSymbolTableRecord
100
AcDbRegAppTableRecord
2
ACAD
70
0
0
ENDTAB
0
TABLE
2
DIMSTYLE
5
A
100
AcDbSymbolTable
70
1
0
ENDTAB
0
TABLE
2
BLOCK_RECORD
5
1
100
AcDbSymbolTable
70
1
0
BLOCK_RECORD
5
1F
100
AcDbSymbolTableRecord
100
AcDbBlockTableRecord
2
*MODEL_SPACE
0
BLOCK_RECORD
5
1B
100
AcDbSymbolTableRecord
100
AcDbBlockTableRecord
2
*PAPER_SPACE
0
ENDTAB
0
ENDSEC
0
SECTION
2
BLOCKS
0
BLOCK
5
20
100
AcDbEntity
100
AcDbBlockBegin
2
*MODEL_SPACE
0
ENDBLK
5
21
100
AcDbEntity
100
AcDbBlockEnd
0
BLOCK
5
1C
100
AcDbEntity
100
AcDbBlockBegin
2
*PAPER_SPACE
0
ENDBLK
5
1D
100
AcDbEntity
100
AcDbBlockEnd
0
ENDSEC
0
SECTION
2
ENTITIES
0
POINT
5
100
100
AcDbEntity
8
0
100
AcDbPoint
10
0
20
0
30
0
0
POINT
5
101
100
AcDbEntity
8
0
100
AcDbPoint
10
-60.924283927785289
20
-15.06489878990326
30
0
0
POINT
5
102
100
AcDbEntity
8
0
100
AcDbPoint
10
59.075716072214711
20
-15.06489878990326
30
0
0
POINT
5
103
100
AcDbEntity
8
0
100
AcDbPoint
10
-6.9660358467041084
20
-58.689987061174008
30
0
0
POINT
5
104
100
AcDbEntity
8
0
100
AcDbPoint
10
6.9660358467041172
20
-58.689987061174008
30
0
0
POINT
5
105
100
AcDbEntity
8
0
100
AcDbPoint
10
6.9660358467041137
20
-50.005314890462543
30
0
0
POINT
5
106
100
AcDbEntity
8
0
100
AcDbPoint
10
-6.9660358467041092
20
-50.005314890462543
30
0
0
POINT
5
107
100
AcDbEntity
8
0
100
AcDbPoint
10
-6.9660358467041092
20
-42.181285907839623
30
0
0
POINT
5
108
100
AcDbEntity
8
0
100
AcDbPoint
10
6.9660358467041119
20
-42.181285907839623
30
0
0
CIRCLE
5
109
100
AcDbEntity
8
0
100
AcDbCircle
10
-7.0000000000000027
20
78.284765042264482
30
0
40
2.5
210
0
220
0
230
1
0
CIRCLE
5
110
100
AcDbEntity
8
0
100
AcDbCircle
10
7.0000000000000009
20
78.284765042264496
30
0
40
2.5
210
0
220
0
230
1
0
CIRCLE
5
111
100
AcDbEntity
8
0
100
AcDbCircle
10
-7.0000000000000018
20
68.284765042264482
30
0
40
2.5
210
0
220
0
230
1
0
CIRCLE
5
112
100
AcDbEntity
8
0
100
AcDbCircle
10
7.0000000000000009
20
68.284765042264482
30
0
40
2.5
210
0
220
0
230
1
0
CIRCLE
5
113
100
AcDbEntity
8
0
100
AcDbCircle
10
7.0000000000000009
20
56.284765042264482
30
0
40
2.5
210
0
220
0
230
1
0
CIRCLE
5
114
100
AcDbEntity
8
0
100
AcDbCircle
10
-7.0000000000000018
20
56.284765042264482
30
0
40
2.5
210
0
220
0
230
1
0
SPLINE
5
115
100
AcDbEntity
8
0
100
AcDbSpline
70
4
71
5
72
61
73
55
74
0
42
0.000000001
43
0.0000000001
44
0.0000000001
40
0
40
0
40
0
40
0
40
0
40
0
40
0.02
40
0.040000000000000001
40
0.059999999999999998
40
0.080000000000000002
40
0.10000000000000001
40
0.12000000000000001
40
0.14000000000000001
40
0.16
40
0.17999999999999999
40
0.19999999999999998
40
0.21999999999999997
40
0.23999999999999996
40
0.25999999999999995
40
0.27999999999999997
40
0.29999999999999999
40
0.32000000000000001
40
0.34000000000000002
40
0.36000000000000004
40
0.38000000000000006
40
0.40000000000000008
40
0.4200000000000001
40
0.44000000000000011
40
0.46000000000000013
40
0.48000000000000015
40
0.50000000000000011
40
0.52000000000000013
40
0.54000000000000015
40
0.56000000000000016
40
0.58000000000000018
40
0.6000000000000002
40
0.62000000000000022
40
0.64000000000000024
40
0.66000000000000025
40
0.68000000000000027
40
0.70000000000000029
40
0.72000000000000031
40
0.74000000000000032
40
0.76000000000000034
40
0.78000000000000036
40
0.80000000000000038
40
0.8200000000000004
40
0.84000000000000041
40
0.86000000000000043
40
0.88000000000000045
40
0.90000000000000047
40
0.92000000000000048
40
0.9400000000000005
40
0.96000000000000052
40
0.98000000000000054
40
1
40
1
40
1
40
1
40
1
40
1
41
1
41
1
41
1
41
1
41
1
41
1
41
1
41
1
41
1
41
1
41
1
41
1
41
1
41
1
41
1
41
1
41
1
41
1
41
1
41
1
41
1
41
1
41
1
41
1
41
1
41
1
41
1
41
1
41
1
41
1
41
1
41
1
41
1
41
1
41
1
41
1
41
1
41
1
41
1
41
1
41
1
41
1
41
1
41
1
41
1
41
1
41
1
41
1
41
1
41
1
41
1
41
1
41
1
41
1
41
1
10
0
20
-67.69551079572112
30
0
10
-0.67085238746760101
20
-68.18693474210545
30
0
10
-2.0438144663903577
20
-69.17701246000675
30
0
10
-4.197035197694837
20
-70.683815497151713
30
0
10
-7.2556240896904436
20
-72.736313583707513
30
0
10
-11.396307499754457
20
-75.366705951376261
30
0
10
-15.866495952679266
20
-78.039230428102357
30
0
10
-20.69109213137628
20
-80.707453134529487
30
0
10
-25.905623903412
20
-83.296550163945881
30
0
10
-31.533502599237515
20
-85.711723519896509
30
0
10
-37.564701244194147
20
-87.843675115891358
30
0
10
-43.938332139940243
20
-89.576472404240718
30
0
10
-50.51228386078958
20
-90.791251870136961
30
0
10
-57.08578886153478
20
-91.385344434240849
30
0
10
-63.462258061843585
20
-91.304178774650978
30
0
10
-69.502193687759174
20
-90.568166101257788
30
0
10
-75.176206985699025
20
-89.304558657038257
30
0
10
-80.634419129440261
20
-87.782234200551727
30
0
10
-85.929107034981087
20
-85.910803455215401
30
0
10
-91.067467160609766
20
-83.465521348141678
30
0
10
-96.004147869876306
20
-80.167281923532499
30
0
10
-100.65671395168408
20
-75.822652157182517
30
0
10
-104.91155987107274
20
-70.428046562982658
30
0
10
-108.63993609873447
20
-64.114572004720344
30
0
10
-111.71147367296504
20
-57.100078430249887
30
0
10
-114.00933209544591
20
-49.637239096496359
30
0
10
-115.44336719535809
20
-41.967494908275256
30
0
10
-115.96752001380361
20
-34.262541951121477
30
0
10
-115.58218868178905
20
-26.611476395668028
30
0
10
-114.32280909566543
20
-19.050043909406757
30
0
10
-112.25244501559717
20
-11.577727360038601
30
0
10
-109.4526704829599
20
-4.180494236408931
30
0
10
-106.01566637710053
20
3.1507799393410076
30
0
10
-102.0348632438744
20
10.395477686892693
30
0
10
-97.600218651342701
20
17.499431316790698
30
0
10
-92.797693424183308
20
24.39050452599497
30
0
10
-87.707590470377411
20
30.988778685560629
30
0
10
-82.403341114279613
20
37.219004778031128
30
0
10
-76.950123657137567
20
43.021903735892586
30
0
10
-71.403460310790308
20
48.366462178681282
30
0
10
-65.808029399297141
20
53.260575671593159
30
0
10
-60.200513403364695
20
57.739209216490508
30
0
10
-54.612121620624364
20
61.854112922738608
30
0
10
-49.07135190761884
20
65.662633085102527
30
0
10
-43.606340791254247
20
69.217814497458107
30
0
10
-38.248121359550652
20
72.555817069390343
30
0
10
-33.030745757925835
20
75.692471346267794
30
0
10
-27.987761157283785
20
78.630597436134991
30
0
10
-23.149491013959857
20
81.364675172335552
30
0
10
-18.540259163804361
20
83.886249493217079
30
0
10
-14.17489895027531
20
86.189833407591891
30
0
10
-10.88319226945319
20
87.856546877420016
30
0
10
-8.5281474736025036
20
89.007260758304071
30
0
10
-7.0086301889959612
20
89.730293450668213
30
0
10
-6.2614998932560653
20
90.080782084558848
30
0
0
ARC
5
116
100
AcDbEntity
8
0
100
AcDbCircle
10
0
20
76.450168778960517
30
0
40
14.999999999999998
210
0
220
-0
230
1
100
AcDbArc
50
65.327351629240738
51
114.67264837075928
0
SPLINE
5
117
100
AcDbEntity
8
0
100
AcDbSpline
70
4
71
5
72
61
73
55
74
0
42
0.000000001
43
0.0000000001
44
0.0000000001
40
0
40
0
40
0
40
0
40
0
40
0
40
0.02
40
0.040000000000000001
40
0.059999999999999998
40
0.080000000000000002
40
0.10000000000000001
40
0.12000000000000001
40
0.14000000000000001
40
0.16
40
0.17999999999999999
40
0.19999999999999998
40
0.21999999999999997
40
0.23999999999999996
40
0.25999999999999995
40
0.27999999999999997
40
0.29999999999999999
40
0.32000000000000001
40
0.34000000000000002
40
0.36000000000000004
40
0.38000000000000006
40
0.40000000000000008
40
0.4200000000000001
40
0.44000000000000011
40
0.46000000000000013
40
0.48000000000000015
40
0.50000000000000011
40
0.52000000000000013
40
0.54000000000000015
40
0.56000000000000016
40
0.58000000000000018
40
0.6000000000000002
40
0.62000000000000022
40
0.64000000000000024
40
0.66000000000000025
40
0.68000000000000027
40
0.70000000000000029
40
0.72000000000000031
40
0.74000000000000032
40
0.76000000000000034
40
0.78000000000000036
40
0.80000000000000038
40
0.8200000000000004
40
0.84000000000000041
40
0.86000000000000043
40
0.88000000000000045
40
0.90000000000000047
40
0.92000000000000048
40
0.9400000000000005
40
0.96000000000000052
40
0.98000000000000054
40
1
40
1
40
1
40
1
40
1
40
1
41
1
41
1
41
1
41
1
41
1
41
1
41
1
41
1
41
1
41
1
41
1
41
1
41
1
41
1
41
1
41
1
41
1
41
1
41
1
41
1
41
1
41
1
41
1
41
1
41
1
41
1
41
1
41
1
41
1
41
1
41
1
41
1
41
1
41
1
41
1
41
1
41
1
41
1
41
1
41
1
41
1
41
1
41
1
41
1
41
1
41
1
41
1
41
1
41
1
41
1
41
1
41
1
41
1
41
1
41
1
10
0
20
-67.69551079572112
30
0
10
0.67085238746760101
20
-68.18693474210545
30
0
10
2.0438144663903577
20
-69.17701246000675
30
0
10
4.197035197694837
20
-70.683815497151713
30
0
10
7.2556240896904436
20
-72.736313583707513
30
0
10
11.396307499754457
20
-75.366705951376261
30
0
10
15.866495952679266
20
-78.039230428102357
30
0
10
20.69109213137628
20
-80.707453134529487
30
0
10
25.905623903412
20
-83.296550163945881
30
0
10
31.533502599237515
20
-85.711723519896509
30
0
10
37.564701244194147
20
-87.843675115891358
30
0
10
43.938332139940243
20
-89.576472404240718
30
0
10
50.51228386078958
20
-90.791251870136961
30
0
10
57.08578886153478
20
-91.385344434240849
30
0
10
63.462258061843585
20
-91.304178774650978
30
0
10
69.502193687759174
20
-90.568166101257788
30
0
10
75.176206985699025
20
-89.304558657038257
30
0
10
80.634419129440261
20
-87.782234200551727
30
0
10
85.929107034981087
20
-85.910803455215401
30
0
10
91.067467160609766
20
-83.465521348141678
30
0
10
96.004147869876306
20
-80.167281923532499
30
0
10
100.65671395168408
20
-75.822652157182517
30
0
10
104.91155987107274
20
-70.428046562982658
30
0
10
108.63993609873447
20
-64.114572004720344
30
0
10
111.71147367296504
20
-57.100078430249887
30
0
10
114.00933209544591
20
-49.637239096496359
30
0
10
115.44336719535809
20
-41.967494908275256
30
0
10
115.96752001380361
20
-34.262541951121477
30
0
10
115.58218868178905
20
-26.611476395668028
30
0
10
114.32280909566543
20
-19.050043909406757
30
0
10
112.25244501559717
20
-11.577727360038601
30
0
10
109.4526704829599
20
-4.180494236408931
30
0
10
106.01566637710053
20
3.1507799393410076
30
0
10
102.0348632438744
20
10.395477686892693
30
0
10
97.600218651342701
20
17.499431316790698
30
0
10
92.797693424183308
20
24.39050452599497
30
0
10
87.707590470377411
20
30.988778685560629
30
0
10
82.403341114279613
20
37.219004778031128
30
0
10
76.950123657137567
20
43.021903735892586
30
0
10
71.403460310790308
20
48.366462178681282
30
0
10
65.808029399297141
20
53.260575671593159
30
0
10
60.200513403364695
20
57.739209216490508
30
0
10
54.612121620624364
20
61.854112922738608
30
0
10
49.07135190761884
20
65.662633085102527
30
0
10
43.606340791254247
20
69.217814497458107
30
0
10
38.248121359550652
20
72.555817069390343
30
0
10
33.030745757925835
20
75.692471346267794
30
0
10
27.987761157283785
20
78.630597436134991
30
0
10
23.149491013959857
20
81.364675172335552
30
0
10
18.540259163804361
20
83.886249493217079
30
0
10
14.17489895027531
20
86.189833407591891
30
0
10
10.88319226945319
20
87.856546877420016
30
0
10
8.5281474736025036
20
89.007260758304071
30
0
10
7.0086301889959612
20
89.730293450668213
30
0
10
6.2614998932560653
20
90.080782084558848
30
0
0
CIRCLE
5
118
100
AcDbEntity
8
0
100
AcDbCircle
10
-7.0000000000000027
20
85.284765042264482
30
0
40
2.5000000000000067
210
0
220
0
230
1
0
CIRCLE
5
119
100
AcDbEntity
8
0
100
AcDbCircle
10
7.0000000000000009
20
85.284765042264482
30
0
40
2.5
210
0
220
0
230
1
0
CIRCLE
5
120
100
AcDbEntity
8
0
100
AcDbCircle
10
-37.820076957257861
20
68.098726400338961
30
0
40
2.5
210
0
220
0
230
1
0
CIRCLE
5
121
100
AcDbEntity
8
0
100
AcDbCircle
10
-67.038106278417416
20
46.800603768333445
30
0
40
2.5
210
0
220
0
230
1
0
CIRCLE
5
122
100
AcDbEntity
8
0
100
AcDbCircle
10
-92.644107403843151
20
17.522936683422131
30
0
40
2.5
210
0
220
0
230
1
0
CIRCLE
5
123
100
AcDbEntity
8
0
100
AcDbCircle
10
-108.02370716828322
20
-12.111083796897095
30
0
40
2.5
210
0
220
0
230
1
0
CIRCLE
5
124
100
AcDbEntity
8
0
100
AcDbCircle
10
-69.235666546610844
20
-86.40420474222671
30
0
40
2.5
210
0
220
0
230
1
0
CIRCLE
5
125
100
AcDbEntity
8
0
100
AcDbCircle
10
69.235666546610972
20
-86.40420474222671
30
0
40
2.5
210
0
220
0
230
1
0
CIRCLE
5
126
100
AcDbEntity
8
0
100
AcDbCircle
10
108.00741156566018
20
-12.062697254553825
30
0
40
2.5
210
0
220
0
230
1
0
CIRCLE
5
127
100
AcDbEntity
8
0
100
AcDbCircle
10
92.474823202766686
20
17.769599330890983
30
0
40
2.5
210
0
220
0
230
1
0
CIRCLE
5
128
100
AcDbEntity
8
0
100
AcDbCircle
10
67.441009956805487
20
46.439516271807619
30
0
40
2.5
210
0
220
0
230
1
0
CIRCLE
5
129
100
AcDbEntity
8
0
100
AcDbCircle
10
38.108737180196151
20
67.91924130461932
30
0
40
2.5
210
0
220
0
230
1
0
CIRCLE
5
130
100
AcDbEntity
8
0
100
AcDbCircle
10
-60.924283927785289
20
-15.06489878990326
30
0
40
2.5
210
0
220
0
230
1
0
CIRCLE
5
131
100
AcDbEntity
8
0
100
AcDbCircle
10
59.075716072214711
20
-15.06489878990326
30
0
40
2.5
210
0
220
0
230
1
0
CIRCLE
5
132
100
AcDbEntity
8
0
100
AcDbCircle
10
-6.9660358467041084
20
-58.689987061174008
30
0
40
2.5
210
0
220
0
230
1
0
CIRCLE
5
133
100
AcDbEntity
8
0
100
AcDbCircle
10
-6.9660358467041092
20
-50.005314890462543
30
0
40
2.5
210
0
220
0
230
1
0
CIRCLE
5
134
100
AcDbEntity
8
0
100
AcDbCircle
10
-6.9660358467041092
20
-42.181285907839623
30
0
40
2.5
210
0
220
0
230
1
0
CIRCLE
5
135
100
AcDbEntity
8
0
100
AcDbCircle
10
6.9660358467041119
20
-42.181285907839623
30
0
40
2.5
210
0
220
0
230
1
0
CIRCLE
5
136
100
AcDbEntity
8
0
100
AcDbCircle
10
6.9660358467041137
20
-50.005314890462543
30
0
40
2.5
210
0
220
0
230
1
0
CIRCLE
5
137
100
AcDbEntity
8
0
100
AcDbCircle
10
6.9660358467041172
20
-58.689987061174008
30
0
40
2.5
210
0
220
0
230
1
0
ENDSEC
0
SECTION
2
OBJECTS
0
DICTIONARY
5
C
100
AcDbDictionary
3
ACAD_GROUP
350
D
3
ACAD_MLINESTYLE
350
17
0
DICTIONARY
5
D
100
AcDbDictionary
0
DICTIONARY
5
1A
330
C
100
AcDbDictionary
0
DICTIONARY
5
17
100
AcDbDictionary
0
ENDSEC
0
EOF
