0
SECTION
2
HEADER
9
$INSUNITS
70
4
9
$ACADVER
1
AC1014
9
$HANDSEED
5
FFFF
0
ENDSEC
0
SECTION
2
TABLES
0
TABLE
2
VPORT
5
8
100
AcDbSymbolTable
0
ENDTAB
0
TABLE
2
LTYPE
5
5
100
AcDbSymbolTable
0
LTYPE
5
14
100
AcDbSymbolTableRecord
100
AcDbLinetypeTableRecord
2
BYBLOCK
70
0
0
LTYPE
5
15
100
AcDbSymbolTableRecord
100
AcDbLinetypeTableRecord
2
BYLAYER
70
0
0
LTYPE
5
16
100
AcDbSymbolTableRecord
100
AcDbLinetypeTableRecord
2
DASHED
70
0
3
Dashed __ __ __ __ __ __ __ __ __ __ __ __ __ _
72
65
73
2
40
0.75
49
0.5
74
0
49
-0.25
74
0
0
ENDTAB
0
TABLE
2
LAYER
5
2
100
AcDbSymbolTable
70
2
0
LAYER
5
50
100
AcDbSymbolTableRecord
100
AcDbLayerTableRecord
2
0
70
0
62
7
6
CONTINUOUS
0
ENDTAB
0
TABLE
2
STYLE
5
3
100
AcDbSymbolTable
70
1
0
STYLE
5
11
100
AcDbSymbolTableRecord
100
AcDbTextStyleTableRecord
2
STANDARD
70
0
0
ENDTAB
0
TABLE
2
VIEW
5
6
100
AcDbSymbolTable
70
0
0
ENDTAB
0
TABLE
2
UCS
5
7
100
AcDbSymbolTable
70
0
0
ENDTAB
0
TABLE
2
APPID
5
9
100
AcDbSymbolTable
70
2
0
APPID
5
12
100
AcDbSymbolTableRecord
100
AcDbRegAppTableRecord
2
ACAD
70
0
0
ENDTAB
0
TABLE
2
DIMSTYLE
5
A
100
AcDbSymbolTable
70
1
0
ENDTAB
0
TABLE
2
BLOCK_RECORD
5
1
100
AcDbSymbolTable
70
1
0
BLOCK_RECORD
5
1F
100
AcDbSymbolTableRecord
100
AcDbBlockTableRecord
2
*MODEL_SPACE
0
BLOCK_RECORD
5
1B
100
AcDbSymbolTableRecord
100
AcDbBlockTableRecord
2
*PAPER_SPACE
0
ENDTAB
0
ENDSEC
0
SECTION
2
BLOCKS
0
BLOCK
5
20
100
AcDbEntity
100
AcDbBlockBegin
2
*MODEL_SPACE
0
ENDBLK
5
21
100
AcDbEntity
100
AcDbBlockEnd
0
BLOCK
5
1C
100
AcDbEntity
100
AcDbBlockBegin
2
*PAPER_SPACE
0
ENDBLK
5
1D
100
AcDbEntity
100
AcDbBlockEnd
0
ENDSEC
0
SECTION
2
ENTITIES
0
SPLINE
5
100
100
AcDbEntity
8
0
100
AcDbSpline
70
0
71
3
72
62
73
58
74
0
42
0.000000001
43
0.0000000001
44
0.0000000001
40
-0.0019419631321493007
40
-0.0019419631321493007
40
-0.0019419631321493007
40
-0.0019419631321493007
40
0
40
0
40
0
40
0.044051802540379742
40
0.044051802540379742
40
0.044051802540379742
40
0.0993225923606533
40
0.0993225923606533
40
0.0993225923606533
40
0.14691821227895174
40
0.14691821227895174
40
0.14691821227895174
40
0.19198788312307216
40
0.19198788312307216
40
0.19198788312307216
40
0.23672629070380985
40
0.23672629070380985
40
0.23672629070380985
40
0.27903056562569317
40
0.27903056562569317
40
0.27903056562569317
40
0.32013161490344733
40
0.32013161490344733
40
0.32013161490344733
40
0.36491372864319815
40
0.36491372864319815
40
0.36491372864319815
40
0.41879732886327609
40
0.41879732886327609
40
0.41879732886327609
40
0.47127222097149518
40
0.47127222097149518
40
0.47127222097149518
40
0.54404146051276181
40
0.54404146051276181
40
0.54404146051276181
40
0.60644447784471767
40
0.60644447784471767
40
0.60644447784471767
40
0.67296908637602093
40
0.67296908637602093
40
0.67296908637602093
40
0.7315684172009117
40
0.7315684172009117
40
0.7315684172009117
40
0.79391229058964996
40
0.79391229058964996
40
0.79391229058964996
40
0.85776860961426094
40
0.85776860961426094
40
0.85776860961426094
40
0.92816966283472324
40
0.92816966283472324
40
0.92816966283472324
40
0.99961474339030654
40
0.99961474339030654
40
0.99961474339030654
40
0.99961474339030654
10
5.0098813986210189e-14
20
-68.700007268897735
30
0
10
0.10179237958374562
20
-68.778522734999285
30
0
10
0.20358475916745233
20
-68.857038201100892
30
0
10
0.30537713875115902
20
-68.935553667202498
30
0
10
2.5985884420069456
20
-70.704375214364859
30
0
10
5.7207685512903961
20
-72.893054806398709
30
0
10
9.3907620244117123
20
-75.285326098348605
30
0
10
13.995418955503903
20
-78.286854211738216
30
0
10
19.386821022533049
20
-81.576891284439029
30
0
10
24.78016635362021
20
-84.340341691516613
30
0
10
29.424565597801006
20
-86.720045974122826
30
0
10
34.081632730638233
20
-88.682672833527434
30
0
10
38.657877987145156
20
-89.931470485195717
30
0
10
42.991257146126145
20
-91.113993146066889
30
0
10
47.270702165162007
20
-91.644835157573127
30
0
10
51.549216681873943
20
-91.732220465202829
30
0
10
55.796284004615046
20
-91.818963488528382
30
0
10
60.037866449364437
20
-91.535921508215239
30
0
10
64.302097188195148
20
-91.233312977238143
30
0
10
68.334319148270254
20
-90.947168807599112
30
0
10
72.386155908518987
20
-90.668158103652729
30
0
10
76.572096254672033
20
-89.938566157282452
30
0
10
80.638979347661262
20
-89.229725393653013
30
0
10
84.857085196565748
20
-88.024257331090908
30
0
10
88.89679873499874
20
-86.231597805407489
30
0
10
93.298314373482299
20
-84.278385316030651
30
0
10
97.42911931144593
20
-81.65362245265969
30
0
10
100.87824662887563
20
-78.599821723632758
30
0
10
105.02837224734461
20
-74.92536860176935
30
0
10
108.19892029108658
20
-70.647992926094901
30
0
10
110.68533448225837
20
-66.096795237172287
30
0
10
113.10674500206747
20
-61.664581971652566
30
0
10
114.95841654640219
20
-56.973575093527899
30
0
10
116.43747226403904
20
-52.184799297500597
30
0
10
118.48854384298831
20
-45.543993399474765
30
0
10
119.75549119464345
20
-38.734487941389808
30
0
10
119.78225749222131
20
-31.639276526469832
30
0
10
119.80521084094654
20
-25.554801771885423
30
0
10
118.90632715925224
20
-19.210087845815902
30
0
10
117.10913412257287
20
-12.486483919429755
30
0
10
115.19324017494071
20
-5.3187997553288895
30
0
10
112.27449599846173
20
2.3048681684929639
30
0
10
108.59092617992212
20
9.8763160466932707
30
0
10
105.3461911686426
20
16.545754452021157
30
0
10
101.52037461886985
20
23.118219825622646
30
0
10
97.215711131721008
20
29.235180250659177
30
0
10
92.635976318265762
20
35.743019178069169
30
0
10
87.515646773996991
20
41.724974413004375
30
0
10
81.751010740044279
20
47.404624216450308
30
0
10
75.84652618308462
20
53.222060799760619
30
0
10
69.245923969389025
20
58.784467422413734
30
0
10
61.802348911404451
20
64.42697232045164
30
0
10
53.595870182091723
20
70.647786386955943
30
0
10
44.363326206924128
20
76.97042302611797
30
0
10
34.129665895023663
20
83.114501928016466
30
0
10
23.7442433492471
20
89.349695749781802
30
0
10
12.345806936069913
20
95.333733030017171
30
0
10
-8.6234758381702192e-05
20
100.72858856735061
30
0
0
SPLINE
5
101
100
AcDbEntity
8
0
100
AcDbSpline
70
0
71
3
72
65
73
61
74
0
42
0.000000001
43
0.0000000001
44
0.0000000001
40
-0.0018276715927153901
40
-0.0018276715927153901
40
-0.0018276715927153901
40
-0.0018276715927153901
40
0
40
0
40
0
40
0.041510872039770816
40
0.041510872039770816
40
0.041510872039770816
40
0.092731952135555629
40
0.092731952135555629
40
0.092731952135555629
40
0.1374932221713408
40
0.1374932221713408
40
0.1374932221713408
40
0.18110679552787368
40
0.18110679552787368
40
0.18110679552787368
40
0.2222279033778492
40
0.2222279033778492
40
0.2222279033778492
40
0.25894875990716565
40
0.25894875990716565
40
0.25894875990716565
40
0.29646841212838837
40
0.29646841212838837
40
0.29646841212838837
40
0.3404391363703641
40
0.3404391363703641
40
0.3404391363703641
40
0.38698774265475683
40
0.38698774265475683
40
0.38698774265475683
40
0.43624380539098723
40
0.43624380539098723
40
0.43624380539098723
40
0.50726994558857996
40
0.50726994558857996
40
0.50726994558857996
40
0.57198510723896567
40
0.57198510723896567
40
0.57198510723896567
40
0.63735787302487623
40
0.63735787302487623
40
0.63735787302487623
40
0.69480202601607488
40
0.69480202601607488
40
0.69480202601607488
40
0.76718544914999132
40
0.76718544914999132
40
0.76718544914999132
40
0.82295812128643542
40
0.82295812128643542
40
0.82295812128643542
40
0.88431814258450669
40
0.88431814258450669
40
0.88431814258450669
40
0.94983764975615492
40
0.94983764975615492
40
0.94983764975615492
40
0.99948988707504305
40
0.99948988707504305
40
0.99948988707504305
40
0.99948988707504305
10
-4.5449755070592346e-15
20
-68.700007268897679
30
0
10
-0.10179237958371531
20
-68.778522734999285
30
0
10
-0.20358475916742977
20
-68.857038201100892
30
0
10
-0.30537713875114425
20
-68.935553667202498
30
0
10
-2.6014607737854241
20
-70.706590728623496
30
0
10
-5.7286508754908017
20
-72.898839609996116
30
0
10
-9.4045128824286852
20
-75.294650065143344
30
0
10
-13.940231190105489
20
-78.250887628638594
30
0
10
-19.239359355220142
20
-81.485846807438833
30
0
10
-24.548362257384685
20
-84.220768014914
30
0
10
-29.187813672313176
20
-86.610771241426704
30
0
10
-33.844036293421311
20
-88.592510238320145
30
0
10
-38.418589752090554
20
-89.864071022598893
30
0
10
-42.87584984957099
20
-91.103028485112702
30
0
10
-47.275177405638843
20
-91.652800981183447
30
0
10
-51.673822068797406
20
-91.73594699531769
30
0
10
-55.821089253460897
20
-91.814341310467228
30
0
10
-59.962789585874823
20
-91.544311613604293
30
0
10
-64.127329326072427
20
-91.247930962087494
30
0
10
-67.846233662705544
20
-90.983265150501879
30
0
10
-71.57723141578353
20
-90.725493924929481
30
0
10
-75.419806232285453
20
-90.126509415166794
30
0
10
-79.345969300787942
20
-89.514495082814435
30
0
10
-83.419935609497955
20
-88.477398853542468
30
0
10
-87.380533086518341
20
-86.875000170861028
30
0
10
-92.022109678665458
20
-84.997087492287847
30
0
10
-96.440818243060917
20
-82.369283935092625
30
0
10
-100.12734208134027
20
-79.247429697058749
30
0
10
-104.02999662397974
20
-75.94254977277545
30
0
10
-107.11581659485022
20
-72.104715620051238
30
0
10
-109.57594071600285
20
-68.00591532254721
30
0
10
-112.17915567178633
20
-63.668712112559156
30
0
10
-114.15856083625813
20
-59.042344755923523
30
0
10
-115.77091032061814
20
-54.307537141585584
30
0
10
-118.0958821953887
20
-47.480050518761523
30
0
10
-119.58969360403947
20
-40.446293275568081
30
0
10
-119.7396883967632
20
-33.111370819051402
30
0
10
-119.87635550595468
20
-26.428187822678911
30
0
10
-118.89099791086424
20
-19.437196749181794
30
0
10
-116.93838089808312
20
-12.040208250464715
30
0
10
-114.96592233673822
20
-4.5680551364838307
30
0
10
-112.05409034244451
20
3.3303894469462705
30
0
10
-108.17861473602494
20
11.184737935447666
30
0
10
-104.77316889061137
20
18.086486558066074
30
0
10
-100.58380357674477
20
24.911579515863551
30
0
10
-95.67335805230924
20
31.319769168821555
30
0
10
-89.485872683246157
20
39.394510966189735
30
0
10
-82.16037868305294
20
46.79979367618224
30
0
10
-74.657923297100325
20
53.563525287763099
30
0
10
-68.877152419700764
20
58.775096794870279
30
0
10
-63.036124782012728
20
63.637441373324165
30
0
10
-57.360241852170105
20
68.134635277576024
30
0
10
-51.115744607919773
20
73.082361523708926
30
0
10
-45.05699816427547
20
77.551228935306256
30
0
10
-38.888705040691441
20
81.470156662884889
30
0
10
-32.302274381153914
20
85.654741477563405
30
0
10
-25.547283181508046
20
89.186198264219101
30
0
10
-18.122843997950095
20
92.649170031665989
30
0
10
-12.496427801993262
20
95.273492213690659
30
0
10
-6.4830600024258755
20
97.900570129938302
30
0
10
-8.6234758380245025e-05
20
100.7285885673506
30
0
0
ENDSEC
0
SECTION
2
OBJECTS
0
DICTIONARY
5
C
100
AcDbDictionary
3
ACAD_GROUP
350
D
3
ACAD_MLINESTYLE
350
17
0
DICTIONARY
5
D
100
AcDbDictionary
0
DICTIONARY
5
1A
330
C
100
AcDbDictionary
0
DICTIONARY
5
17
100
AcDbDictionary
0
ENDSEC
0
EOF
