0
SECTION
2
HEADER
9
$INSUNITS
70
4
9
$ACADVER
1
AC1014
9
$HANDSEED
5
FFFF
0
ENDSEC
0
SECTION
2
TABLES
0
TABLE
2
VPORT
5
8
100
AcDbSymbolTable
0
ENDTAB
0
TABLE
2
LTYPE
5
5
100
AcDbSymbolTable
0
LTYPE
5
14
100
AcDbSymbolTableRecord
100
AcDbLinetypeTableRecord
2
BYBLOCK
70
0
0
LTYPE
5
15
100
AcDbSymbolTableRecord
100
AcDbLinetypeTableRecord
2
BYLAYER
70
0
0
LTYPE
5
16
100
AcDbSymbolTableRecord
100
AcDbLinetypeTableRecord
2
DASHED
70
0
3
Dashed __ __ __ __ __ __ __ __ __ __ __ __ __ _
72
65
73
2
40
0.75
49
0.5
74
0
49
-0.25
74
0
0
ENDTAB
0
TABLE
2
LAYER
5
2
100
AcDbSymbolTable
70
2
0
LAYER
5
50
100
AcDbSymbolTableRecord
100
AcDbLayerTableRecord
2
0
70
0
62
7
6
CONTINUOUS
0
ENDTAB
0
TABLE
2
STYLE
5
3
100
AcDbSymbolTable
70
1
0
STYLE
5
11
100
AcDbSymbolTableRecord
100
AcDbTextStyleTableRecord
2
STANDARD
70
0
0
ENDTAB
0
TABLE
2
VIEW
5
6
100
AcDbSymbolTable
70
0
0
ENDTAB
0
TABLE
2
UCS
5
7
100
AcDbSymbolTable
70
0
0
ENDTAB
0
TABLE
2
APPID
5
9
100
AcDbSymbolTable
70
2
0
APPID
5
12
100
AcDbSymbolTableRecord
100
AcDbRegAppTableRecord
2
ACAD
70
0
0
ENDTAB
0
TABLE
2
DIMSTYLE
5
A
100
AcDbSymbolTable
70
1
0
ENDTAB
0
TABLE
2
BLOCK_RECORD
5
1
100
AcDbSymbolTable
70
1
0
BLOCK_RECORD
5
1F
100
AcDbSymbolTableRecord
100
AcDbBlockTableRecord
2
*MODEL_SPACE
0
BLOCK_RECORD
5
1B
100
AcDbSymbolTableRecord
100
AcDbBlockTableRecord
2
*PAPER_SPACE
0
ENDTAB
0
ENDSEC
0
SECTION
2
BLOCKS
0
BLOCK
5
20
100
AcDbEntity
100
AcDbBlockBegin
2
*MODEL_SPACE
0
ENDBLK
5
21
100
AcDbEntity
100
AcDbBlockEnd
0
BLOCK
5
1C
100
AcDbEntity
100
AcDbBlockBegin
2
*PAPER_SPACE
0
ENDBLK
5
1D
100
AcDbEntity
100
AcDbBlockEnd
0
ENDSEC
0
SECTION
2
ENTITIES
0
POINT
5
100
100
AcDbEntity
8
0
100
AcDbPoint
10
0
20
0
30
0
0
ARC
5
101
100
AcDbEntity
8
0
100
AcDbCircle
10
0
20
76.450168778960517
30
0
40
14.900003233781378
210
0
220
-0
230
1
100
AcDbArc
50
65.330433756999028
51
114.669566243001
0
SPLINE
5
102
100
AcDbEntity
8
0
100
AcDbSpline
70
0
71
3
72
56
73
52
74
0
42
0.000000001
43
0.0000000001
44
0.0000000001
40
-0.00035235509189369073
40
-0.00035235509189369073
40
-0.00035235509189369073
40
-0.00035235509189369073
40
0
40
0
40
0
40
0.07080929780920811
40
0.07080929780920811
40
0.07080929780920811
40
0.12962835779976833
40
0.12962835779976833
40
0.12962835779976833
40
0.182018063702617
40
0.182018063702617
40
0.182018063702617
40
0.23314193472120343
40
0.23314193472120343
40
0.23314193472120343
40
0.27493761732154126
40
0.27493761732154126
40
0.27493761732154126
40
0.31651050811145615
40
0.31651050811145615
40
0.31651050811145615
40
0.36112207553247033
40
0.36112207553247033
40
0.36112207553247033
40
0.40596873729155247
40
0.40596873729155247
40
0.40596873729155247
40
0.46683099018723928
40
0.46683099018723928
40
0.46683099018723928
40
0.51915435105175434
40
0.51915435105175434
40
0.51915435105175434
40
0.59373742698250176
40
0.59373742698250176
40
0.59373742698250176
40
0.67854168991191688
40
0.67854168991191688
40
0.67854168991191688
40
0.74139749455238346
40
0.74139749455238346
40
0.74139749455238346
40
0.83869816675755615
40
0.83869816675755615
40
0.83869816675755615
40
0.92860435476250203
40
0.92860435476250203
40
0.92860435476250203
40
1
40
1
40
1
40
1
10
-2.4806545706468341e-14
20
-67.571550725027606
30
0
10
-0.019698187886124843
20
-67.585980369176497
30
0
10
-0.039396375772228875
20
-67.600410013325416
30
0
10
-0.059094563658332912
20
-67.614839657474334
30
0
10
-4.0147494904158778
20
-70.512501782490901
30
0
10
-8.6116876054296334
20
-73.585578421341168
30
0
10
-13.906554382539856
20
-76.727082515508414
30
0
10
-18.304833933962982
20
-79.33663131054513
30
0
10
-23.203183395337135
20
-81.991915396180204
30
0
10
-28.705352856185421
20
-84.339083675680868
30
0
10
-33.606094893336966
20
-86.429689269977516
30
0
10
-39.012828296260182
20
-88.263175291569937
30
0
10
-44.661945832589566
20
-89.49453340196149
30
0
10
-50.174569950611854
20
-90.696139559668993
30
0
10
-55.868749915547212
20
-91.294922020257928
30
0
10
-61.231705326058396
20
-91.141506762787117
30
0
10
-65.616122579125943
20
-91.016084034039366
30
0
10
-69.758370594797867
20
-90.384930371135397
30
0
10
-73.680201970344001
20
-89.479647210520938
30
0
10
-77.581128030843928
20
-88.579189660154952
30
0
10
-81.313613729941096
20
-87.485171462138254
30
0
10
-84.940320856671093
20
-86.045532391456504
30
0
10
-88.832113956121304
20
-84.500666151863044
30
0
10
-92.600253732042887
20
-82.495709442102907
30
0
10
-96.137772131766241
20
-79.613285592744504
30
0
10
-99.693932569746991
20
-76.715671926796588
30
0
10
-103.01064252404629
20
-72.915988945810582
30
0
10
-105.85914822440228
20
-68.363809785438846
30
0
10
-109.72490918652697
20
-62.185961347725168
30
0
10
-112.69657718436301
20
-54.685160593456466
30
0
10
-114.28078112952328
20
-46.975006695019765
30
0
10
-115.64272339688688
20
-40.346576994261163
30
0
10
-115.97869440856914
20
-33.590357093039792
30
0
10
-115.29825002978478
20
-26.96542293656675
30
0
10
-114.32832696041366
20
-17.522069928187506
30
0
10
-111.30111662605535
20
-8.2816854330517646
30
0
10
-106.92142765175083
20
0.79997601915321215
30
0
10
-101.94152717579229
20
11.126227598584508
30
0
10
-95.264825611193857
20
21.275868062437574
30
0
10
-87.954016604854871
20
30.365971507817932
30
0
10
-82.535341095008349
20
37.103436660955616
30
0
10
-76.767125930847229
20
43.208086154436664
30
0
10
-70.934591779433092
20
48.536999998685609
30
0
10
-61.905839433673449
20
56.786149017375593
30
0
10
-52.711428498631285
20
63.239775352450081
30
0
10
-43.931491407550077
20
68.854148508264259
30
0
10
-35.818796429268318
20
74.041850474106553
30
0
10
-28.073098642974553
20
78.536323533719496
30
0
10
-21.14833798166616
20
82.334475710247702
30
0
10
-15.649297631938968
20
85.350636570482621
30
0
10
-10.661771088750223
20
87.906100428382189
30
0
10
-6.2190295542394036
20
89.990248829321828
30
0
0
SPLINE
5
103
100
AcDbEntity
8
0
100
AcDbSpline
70
0
71
3
72
56
73
52
74
0
42
0.000000001
43
0.0000000001
44
0.0000000001
40
-0.00035235509189366666
40
-0.00035235509189366666
40
-0.00035235509189366666
40
-0.00035235509189366666
40
0
40
0
40
0
40
0.07080929780920811
40
0.07080929780920811
40
0.07080929780920811
40
0.12962835779976833
40
0.12962835779976833
40
0.12962835779976833
40
0.182018063702617
40
0.182018063702617
40
0.182018063702617
40
0.23314193472120343
40
0.23314193472120343
40
0.23314193472120343
40
0.27493761732154126
40
0.27493761732154126
40
0.27493761732154126
40
0.31651050811145615
40
0.31651050811145615
40
0.31651050811145615
40
0.36112207553247033
40
0.36112207553247033
40
0.36112207553247033
40
0.40596873729155247
40
0.40596873729155247
40
0.40596873729155247
40
0.46683099018723928
40
0.46683099018723928
40
0.46683099018723928
40
0.51915435105175434
40
0.51915435105175434
40
0.51915435105175434
40
0.59373742698250176
40
0.59373742698250176
40
0.59373742698250176
40
0.67854168991191688
40
0.67854168991191688
40
0.67854168991191688
40
0.74139749455238346
40
0.74139749455238346
40
0.74139749455238346
40
0.83869816675755615
40
0.83869816675755615
40
0.83869816675755615
40
0.92860435476250203
40
0.92860435476250203
40
0.92860435476250203
40
1
40
1
40
1
40
1
10
2.7989763284885782e-14
20
-67.571550725027578
30
0
10
0.019698187886127538
20
-67.585980369176497
30
0
10
0.039396375772230229
20
-67.600410013325416
30
0
10
0.059094563658332912
20
-67.614839657474334
30
0
10
4.0147494904158778
20
-70.512501782490901
30
0
10
8.6116876054296334
20
-73.585578421341168
30
0
10
13.906554382539856
20
-76.727082515508414
30
0
10
18.304833933962982
20
-79.33663131054513
30
0
10
23.203183395337135
20
-81.991915396180204
30
0
10
28.705352856185421
20
-84.339083675680868
30
0
10
33.606094893336966
20
-86.429689269977516
30
0
10
39.012828296260182
20
-88.263175291569937
30
0
10
44.661945832589566
20
-89.49453340196149
30
0
10
50.174569950611854
20
-90.696139559668993
30
0
10
55.868749915547212
20
-91.294922020257928
30
0
10
61.231705326058396
20
-91.141506762787117
30
0
10
65.616122579125943
20
-91.016084034039366
30
0
10
69.758370594797867
20
-90.384930371135397
30
0
10
73.680201970344001
20
-89.479647210520938
30
0
10
77.581128030843928
20
-88.579189660154952
30
0
10
81.313613729941096
20
-87.485171462138254
30
0
10
84.940320856671093
20
-86.045532391456504
30
0
10
88.832113956121304
20
-84.500666151863044
30
0
10
92.600253732042887
20
-82.495709442102907
30
0
10
96.137772131766241
20
-79.613285592744504
30
0
10
99.693932569746991
20
-76.715671926796588
30
0
10
103.01064252404629
20
-72.915988945810582
30
0
10
105.85914822440228
20
-68.363809785438846
30
0
10
109.72490918652697
20
-62.185961347725168
30
0
10
112.69657718436301
20
-54.685160593456466
30
0
10
114.28078112952328
20
-46.975006695019765
30
0
10
115.64272339688688
20
-40.346576994261163
30
0
10
115.97869440856914
20
-33.590357093039792
30
0
10
115.29825002978478
20
-26.96542293656675
30
0
10
114.32832696041366
20
-17.522069928187506
30
0
10
111.30111662605535
20
-8.2816854330517646
30
0
10
106.92142765175083
20
0.79997601915321215
30
0
10
101.94152717579229
20
11.126227598584508
30
0
10
95.264825611193857
20
21.275868062437574
30
0
10
87.954016604854871
20
30.365971507817932
30
0
10
82.535341095008349
20
37.103436660955616
30
0
10
76.767125930847229
20
43.208086154436664
30
0
10
70.934591779433092
20
48.536999998685609
30
0
10
61.905839433673449
20
56.786149017375593
30
0
10
52.711428498631285
20
63.239775352450081
30
0
10
43.931491407550077
20
68.854148508264259
30
0
10
35.818796429268318
20
74.041850474106553
30
0
10
28.073098642974553
20
78.536323533719496
30
0
10
21.14833798166616
20
82.334475710247702
30
0
10
15.649297631938968
20
85.350636570482621
30
0
10
10.661771088750223
20
87.906100428382189
30
0
10
6.2190295542394036
20
89.990248829321828
30
0
0
ENDSEC
0
SECTION
2
OBJECTS
0
DICTIONARY
5
C
100
AcDbDictionary
3
ACAD_GROUP
350
D
3
ACAD_MLINESTYLE
350
17
0
DICTIONARY
5
D
100
AcDbDictionary
0
DICTIONARY
5
1A
330
C
100
AcDbDictionary
0
DICTIONARY
5
17
100
AcDbDictionary
0
ENDSEC
0
EOF
