0
SECTION
2
HEADER
9
$INSUNITS
70
4
9
$ACADVER
1
AC1014
9
$HANDSEED
5
FFFF
0
ENDSEC
0
SECTION
2
TABLES
0
TABLE
2
VPORT
5
8
100
AcDbSymbolTable
0
ENDTAB
0
TABLE
2
LTYPE
5
5
100
AcDbSymbolTable
0
LTYPE
5
14
100
AcDbSymbolTableRecord
100
AcDbLinetypeTableRecord
2
BYBLOCK
70
0
0
LTYPE
5
15
100
AcDbSymbolTableRecord
100
AcDbLinetypeTableRecord
2
BYLAYER
70
0
0
LTYPE
5
16
100
AcDbSymbolTableRecord
100
AcDbLinetypeTableRecord
2
DASHED
70
0
3
Dashed __ __ __ __ __ __ __ __ __ __ __ __ __ _
72
65
73
2
40
0.75
49
0.5
74
0
49
-0.25
74
0
0
ENDTAB
0
TABLE
2
LAYER
5
2
100
AcDbSymbolTable
70
2
0
LAYER
5
50
100
AcDbSymbolTableRecord
100
AcDbLayerTableRecord
2
0
70
0
62
7
6
CONTINUOUS
0
ENDTAB
0
TABLE
2
STYLE
5
3
100
AcDbSymbolTable
70
1
0
STYLE
5
11
100
AcDbSymbolTableRecord
100
AcDbTextStyleTableRecord
2
STANDARD
70
0
0
ENDTAB
0
TABLE
2
VIEW
5
6
100
AcDbSymbolTable
70
0
0
ENDTAB
0
TABLE
2
UCS
5
7
100
AcDbSymbolTable
70
0
0
ENDTAB
0
TABLE
2
APPID
5
9
100
AcDbSymbolTable
70
2
0
APPID
5
12
100
AcDbSymbolTableRecord
100
AcDbRegAppTableRecord
2
ACAD
70
0
0
ENDTAB
0
TABLE
2
DIMSTYLE
5
A
100
AcDbSymbolTable
70
1
0
ENDTAB
0
TABLE
2
BLOCK_RECORD
5
1
100
AcDbSymbolTable
70
1
0
BLOCK_RECORD
5
1F
100
AcDbSymbolTableRecord
100
AcDbBlockTableRecord
2
*MODEL_SPACE
0
BLOCK_RECORD
5
1B
100
AcDbSymbolTableRecord
100
AcDbBlockTableRecord
2
*PAPER_SPACE
0
ENDTAB
0
ENDSEC
0
SECTION
2
BLOCKS
0
BLOCK
5
20
100
AcDbEntity
100
AcDbBlockBegin
2
*MODEL_SPACE
0
ENDBLK
5
21
100
AcDbEntity
100
AcDbBlockEnd
0
BLOCK
5
1C
100
AcDbEntity
100
AcDbBlockBegin
2
*PAPER_SPACE
0
ENDBLK
5
1D
100
AcDbEntity
100
AcDbBlockEnd
0
ENDSEC
0
SECTION
2
ENTITIES
0
SPLINE
5
100
100
AcDbEntity
8
0
100
AcDbSpline
70
0
71
3
72
65
73
61
74
0
42
0.000000001
43
0.0000000001
44
0.0000000001
40
-0.0018276715927154161
40
-0.0018276715927154161
40
-0.0018276715927154161
40
-0.0018276715927154161
40
0
40
0
40
0
40
0.04150789458621866
40
0.04150789458621866
40
0.04150789458621866
40
0.092855642198635291
40
0.092855642198635291
40
0.092855642198635291
40
0.13762755190533479
40
0.13762755190533479
40
0.13762755190533479
40
0.18134713635444133
40
0.18134713635444133
40
0.18134713635444133
40
0.2225384639282432
40
0.2225384639282432
40
0.2225384639282432
40
0.25750644714852472
40
0.25750644714852472
40
0.25750644714852472
40
0.29452493364481935
40
0.29452493364481935
40
0.29452493364481935
40
0.33796258396356987
40
0.33796258396356987
40
0.33796258396356987
40
0.38491881298256231
40
0.38491881298256231
40
0.38491881298256231
40
0.43414223779793504
40
0.43414223779793504
40
0.43414223779793504
40
0.50550725364922078
40
0.50550725364922078
40
0.50550725364922078
40
0.57040610787932022
40
0.57040610787932022
40
0.57040610787932022
40
0.63406031542556807
40
0.63406031542556807
40
0.63406031542556807
40
0.69187283497393537
40
0.69187283497393537
40
0.69187283497393537
40
0.76058829346488832
40
0.76058829346488832
40
0.76058829346488832
40
0.81924583245094618
40
0.81924583245094618
40
0.81924583245094618
40
0.88114738446240681
40
0.88114738446240681
40
0.88114738446240681
40
0.94213755518375075
40
0.94213755518375075
40
0.94213755518375075
40
0.98952733874482779
40
0.98952733874482779
40
0.98952733874482779
40
0.98952733874482779
10
1.0755285551056204e-14
20
-68.70000726889765
30
0
10
-0.10179237958371251
20
-68.778522734999271
30
0
10
-0.20358475916742835
20
-68.857038201100892
30
0
10
-0.30537713875114425
20
-68.935553667202498
30
0
10
-2.6012960824156877
20
-70.706463697310241
30
0
10
-5.7281978614437854
20
-72.89852132408582
30
0
10
-9.4037219139012134
20
-75.294134534426917
30
0
10
-13.950564948710607
20
-78.257651323891054
30
0
10
-19.264413144149287
20
-81.50128585925205
30
0
10
-24.586824245000788
20
-84.240572442544391
30
0
10
-29.227621949078376
20
-86.629052897299132
30
0
10
-33.884483081852096
20
-88.607683910402471
30
0
10
-38.459773234775113
20
-89.875500774680859
30
0
10
-42.927525124973172
20
-91.113518693213521
30
0
10
-47.337241988564145
20
-91.658545601311715
30
0
10
-51.746540437744919
20
-91.737283514645483
30
0
10
-55.900853866828157
20
-91.811468098544822
30
0
10
-60.049619148460316
20
-91.539091400036469
30
0
10
-64.221690109615224
20
-91.241204542615492
30
0
10
-67.763428527783489
20
-90.9883235784568
30
0
10
-71.316341324411326
20
-90.738833911045532
30
0
10
-74.96751650759191
20
-90.19540953216891
30
0
10
-78.832794592482486
20
-89.620119047027799
30
0
10
-82.843038081941756
20
-88.64642569631998
30
0
10
-86.76399720824233
20
-87.119734652922119
30
0
10
-91.364867410199523
20
-85.328308855583757
30
0
10
-95.780958409815753
20
-82.799458626647692
30
0
10
-99.49798892357714
20
-79.770262042162543
30
0
10
-103.51610994978333
20
-76.495691536601967
30
0
10
-106.70908808114349
20
-72.660849735167389
30
0
10
-109.24437936804699
20
-68.550828205788264
30
0
10
-111.90208256639127
20
-64.242361789987953
30
0
10
-113.91559477942027
20
-59.63383224094045
30
0
10
-115.56226465720515
20
-54.912901085727093
30
0
10
-117.94963657150666
20
-48.068409301819131
30
0
10
-119.51015667606207
20
-41.00994788331937
30
0
10
-119.72610266459385
20
-33.656849043291572
30
0
10
-119.92248246026998
20
-26.969991567453437
30
0
10
-118.9910355774127
20
-19.980747565245633
30
0
10
-117.07960389913374
20
-12.580986381129531
30
0
10
-115.20483014229272
20
-5.3231396934766382
30
0
10
-112.4348751933137
20
2.3417762586072701
30
0
10
-108.75758944127304
20
9.9956553265998416
30
0
10
-105.41777636968112
20
16.947120913814476
30
0
10
-101.28978600398206
20
23.847470214097626
30
0
10
-96.419138453379247
20
30.336442416343189
30
0
10
-90.629929088312551
20
38.049178403213787
30
0
10
-83.790734395824245
20
45.170506138296496
30
0
10
-76.704463352618617
20
51.698754852553662
30
0
10
-70.655413704826017
20
57.27146020702115
30
0
10
-64.481953458277644
20
62.448846455548235
30
0
10
-58.495253687743194
20
67.231582419702377
30
0
10
-52.177463790168034
20
72.278824158100932
30
0
10
-46.053402921451287
20
76.850330888023947
30
0
10
-39.843892463358401
20
80.858442817820048
30
0
10
-33.72580510320725
20
84.8075430087694
30
0
10
-27.487983585425102
20
88.18550016242699
30
0
10
-20.714158542550489
20
91.425668870990776
30
0
10
-15.450849736135041
20
93.943302318874785
30
0
10
-9.8612551265905921
20
96.411966666860124
30
0
10
-3.8476666750522703
20
99.046742342644393
30
0
0
SPLINE
5
101
100
AcDbEntity
8
0
100
AcDbSpline
70
0
71
3
72
62
73
58
74
0
42
0.000000001
43
0.0000000001
44
0.0000000001
40
-0.0019419631321493293
40
-0.0019419631321493293
40
-0.0019419631321493293
40
-0.0019419631321493293
40
0
40
0
40
0
40
0.044039234778275316
40
0.044039234778275316
40
0.044039234778275316
40
0.099431677701021737
40
0.099431677701021737
40
0.099431677701021737
40
0.14703580075560546
40
0.14703580075560546
40
0.14703580075560546
40
0.19217891910546292
40
0.19217891910546292
40
0.19217891910546292
40
0.23699318361014737
40
0.23699318361014737
40
0.23699318361014737
40
0.27642283677974067
40
0.27642283677974067
40
0.27642283677974067
40
0.31619634332499119
40
0.31619634332499119
40
0.31619634332499119
40
0.36107130860307635
40
0.36107130860307635
40
0.36107130860307635
40
0.41137745651388058
40
0.41137745651388058
40
0.41137745651388058
40
0.46399783791281518
40
0.46399783791281518
40
0.46399783791281518
40
0.53494744784304471
40
0.53494744784304471
40
0.53494744784304471
40
0.59825229566395577
40
0.59825229566395577
40
0.59825229566395577
40
0.66001318838160739
40
0.66001318838160739
40
0.66001318838160739
40
0.72327566221105355
40
0.72327566221105355
40
0.72327566221105355
40
0.78176872710880252
40
0.78176872710880252
40
0.78176872710880252
40
0.84834837599903257
40
0.84834837599903257
40
0.84834837599903257
40
0.91386902406293968
40
0.91386902406293968
40
0.91386902406293968
40
0.99204901923130984
40
0.99204901923130984
40
0.99204901923130984
40
0.99204901923130984
10
2.2794266474335245e-14
20
-68.700007268897664
30
0
10
0.10179237958374263
20
-68.778522734999285
30
0
10
0.20358475916745084
20
-68.857038201100892
30
0
10
0.30537713875115902
20
-68.935553667202498
30
0
10
2.597934200126875
20
-70.703870578297142
30
0
10
5.7189696566317982
20
-72.89179097108655
30
0
10
9.387621057565152
20
-75.283278632014145
30
0
10
14.002041910987913
20
-78.29128602418011
30
0
10
19.406671812821379
20
-81.589225915905189
30
0
10
24.812100754230293
20
-84.356697880063635
30
0
10
29.45751249114381
20
-86.735056171927482
30
0
10
34.115018127268385
20
-88.695039328925532
30
0
10
38.691794777191213
20
-89.940713826203591
30
0
10
43.031964424501545
20
-91.121990313358793
30
0
10
47.318168686995925
20
-91.649164169384704
30
0
10
51.603622250540951
20
-91.73331017761916
30
0
10
55.857857592257353
20
-91.81684320785439
30
0
10
60.106642384201898
20
-91.531779294349619
30
0
10
64.378416480646635
20
-91.22789036977116
30
0
10
68.136920004096467
20
-90.960514902815603
30
0
10
71.911734046938491
20
-90.694954079821727
30
0
10
75.799376868937543
20
-90.068150537608531
30
0
10
79.720922578744023
20
-89.435880842473921
30
0
10
83.788790813267354
20
-88.362468632906086
30
0
10
87.731309937989465
20
-86.731194651954439
30
0
10
92.179507348715845
20
-84.890689008556777
30
0
10
96.412132473547274
20
-82.361399502468458
30
0
10
99.976493975275048
20
-79.37632932211433
30
0
10
103.97224741602614
20
-76.02997838710067
30
0
10
107.12467328818877
20
-72.130612723788403
30
0
10
109.62023104530984
20
-67.95993012057076
30
0
10
112.23059193431314
20
-63.597383624974732
30
0
10
114.19960020810379
20
-58.938869183614401
30
0
10
115.79834467731517
20
-54.169647198172505
30
0
10
117.95397892877949
20
-47.739164739817909
30
0
10
119.39663908258977
20
-41.127680778275234
30
0
10
119.71563490606988
20
-34.284668847119391
30
0
10
120.0002591919648
20
-28.178985822723696
30
0
10
119.3587545520769
20
-21.843065696226638
30
0
10
117.77132545857347
20
-15.116297120141018
30
0
10
116.2226125034756
20
-8.5535891022747919
30
0
10
113.78999353996564
20
-1.5916977132994714
30
0
10
110.65451760621224
20
5.447092305922455
30
0
10
107.44280942853493
20
12.65701511933942
30
0
10
103.50978979242804
20
19.884652677851161
30
0
10
99.013592887410056
20
26.613429133493554
30
0
10
94.856367893849011
20
32.834917704481704
30
0
10
90.220313393356193
20
38.612701200034721
30
0
10
85.046034072103382
20
44.052566933155639
30
0
10
79.156417908696483
20
50.244486456509641
30
0
10
72.549693565273842
20
56.059405209118616
30
0
10
65.04260775945842
20
61.932172060194624
30
0
10
57.654927961396851
20
67.711528010916609
30
0
10
49.389959894088946
20
73.565226434387299
30
0
10
40.242845651514514
20
79.347513532551289
30
0
10
29.328403129647391
20
86.2470053836646
30
0
10
17.177352321592068
20
92.968099275329834
30
0
10
3.8897595159491596
20
98.996550795839667
30
0
0
ARC
5
102
100
AcDbEntity
8
0
100
AcDbCircle
10
-0.035235750272478036
20
90.345302253399282
30
0
40
9.499983641193241
210
0
220
-0
230
1
100
AcDbArc
50
65.596622792197309
51
113.66004902799192
0
ENDSEC
0
SECTION
2
OBJECTS
0
DICTIONARY
5
C
100
AcDbDictionary
3
ACAD_GROUP
350
D
3
ACAD_MLINESTYLE
350
17
0
DICTIONARY
5
D
100
AcDbDictionary
0
DICTIONARY
5
1A
330
C
100
AcDbDictionary
0
DICTIONARY
5
17
100
AcDbDictionary
0
ENDSEC
0
EOF
