0
SECTION
2
HEADER
9
$INSUNITS
70
4
9
$ACADVER
1
AC1014
9
$HANDSEED
5
FFFF
0
ENDSEC
0
SECTION
2
TABLES
0
TABLE
2
VPORT
5
8
100
AcDbSymbolTable
0
ENDTAB
0
TABLE
2
LTYPE
5
5
100
AcDbSymbolTable
0
LTYPE
5
14
100
AcDbSymbolTableRecord
100
AcDbLinetypeTableRecord
2
BYBLOCK
70
0
0
LTYPE
5
15
100
AcDbSymbolTableRecord
100
AcDbLinetypeTableRecord
2
BYLAYER
70
0
0
LTYPE
5
16
100
AcDbSymbolTableRecord
100
AcDbLinetypeTableRecord
2
DASHED
70
0
3
Dashed __ __ __ __ __ __ __ __ __ __ __ __ __ _
72
65
73
2
40
0.75
49
0.5
74
0
49
-0.25
74
0
0
ENDTAB
0
TABLE
2
LAYER
5
2
100
AcDbSymbolTable
70
2
0
LAYER
5
50
100
AcDbSymbolTableRecord
100
AcDbLayerTableRecord
2
0
70
0
62
7
6
CONTINUOUS
0
ENDTAB
0
TABLE
2
STYLE
5
3
100
AcDbSymbolTable
70
1
0
STYLE
5
11
100
AcDbSymbolTableRecord
100
AcDbTextStyleTableRecord
2
STANDARD
70
0
0
ENDTAB
0
TABLE
2
VIEW
5
6
100
AcDbSymbolTable
70
0
0
ENDTAB
0
TABLE
2
UCS
5
7
100
AcDbSymbolTable
70
0
0
ENDTAB
0
TABLE
2
APPID
5
9
100
AcDbSymbolTable
70
2
0
APPID
5
12
100
AcDbSymbolTableRecord
100
AcDbRegAppTableRecord
2
ACAD
70
0
0
ENDTAB
0
TABLE
2
DIMSTYLE
5
A
100
AcDbSymbolTable
70
1
0
ENDTAB
0
TABLE
2
BLOCK_RECORD
5
1
100
AcDbSymbolTable
70
1
0
BLOCK_RECORD
5
1F
100
AcDbSymbolTableRecord
100
AcDbBlockTableRecord
2
*MODEL_SPACE
0
BLOCK_RECORD
5
1B
100
AcDbSymbolTableRecord
100
AcDbBlockTableRecord
2
*PAPER_SPACE
0
ENDTAB
0
ENDSEC
0
SECTION
2
BLOCKS
0
BLOCK
5
20
100
AcDbEntity
100
AcDbBlockBegin
2
*MODEL_SPACE
0
ENDBLK
5
21
100
AcDbEntity
100
AcDbBlockEnd
0
BLOCK
5
1C
100
AcDbEntity
100
AcDbBlockBegin
2
*PAPER_SPACE
0
ENDBLK
5
1D
100
AcDbEntity
100
AcDbBlockEnd
0
ENDSEC
0
SECTION
2
ENTITIES
0
LINE
5
100
100
AcDbEntity
8
0
100
AcDbLine
10
5.8589530043231983
20
24.842285414272546
30
0
11
15.101733882832132
21
24.842285414272546
31
0
0
LINE
5
101
100
AcDbEntity
8
0
100
AcDbLine
10
15.101733882832132
20
24.842285414272546
30
0
11
24.842285414272297
21
15.101733882832251
31
0
0
LINE
5
102
100
AcDbEntity
8
0
100
AcDbLine
10
24.842285414272297
20
15.101733882832251
30
0
11
24.842285414272297
21
5.8589530043228173
31
0
0
LWPOLYLINE
5
103
100
AcDbEntity
8
0
100
AcDbPolyline
90
4
70
1
43
0.0
10
4.2337120739138676
20
17.505167155021198
10
5.4570065272511545
20
18.728461608358597
10
18.728461608358501
20
5.457006527251278
10
17.505167155021052
20
4.2337120739139147
0
LINE
5
104
100
AcDbEntity
8
0
100
AcDbLine
10
14.773868481166396
20
20.110476026364132
30
0
11
20.110476026364058
21
14.773868481166346
31
0
0
LINE
5
105
100
AcDbEntity
8
0
100
AcDbLine
10
20.110476026364058
20
14.773868481166346
30
0
11
20.110476026363941
21
10.590762392231321
31
0
0
LINE
5
106
100
AcDbEntity
8
0
100
AcDbLine
10
0
20
30.701238418595938
30
0
11
5.8589530043231983
21
24.842285414272546
31
0
0
LINE
5
107
100
AcDbEntity
8
0
100
AcDbLine
10
10.609631204648988
20
20.110476026364132
30
0
11
15.369506285867478
21
15.369506285867615
31
0
0
LINE
5
108
100
AcDbEntity
8
0
100
AcDbLine
10
15.369506285867478
20
15.369506285867615
30
0
11
20.110476026363941
21
10.590762392231321
31
0
0
LINE
5
109
100
AcDbEntity
8
0
100
AcDbLine
10
24.842285414272297
20
5.8589530043228173
30
0
11
30.701238418595938
21
-1.1279453236749053e-14
31
0
0
LINE
5
110
100
AcDbEntity
8
0
100
AcDbLine
10
14.773868481166396
20
20.110476026364132
30
0
11
10.609631204648988
21
20.110476026364132
31
0
0
LINE
5
111
100
AcDbEntity
8
0
100
AcDbLine
10
-30.701238418595945
20
-6.8170443553663281e-15
30
0
11
-24.842285414272549
21
5.8589530043231939
31
0
0
LINE
5
112
100
AcDbEntity
8
0
100
AcDbLine
10
-24.842285414272549
20
5.8589530043231939
30
0
11
-24.842285414272553
21
15.101733882832132
31
0
0
LINE
5
113
100
AcDbEntity
8
0
100
AcDbLine
10
-24.842285414272553
20
15.101733882832132
30
0
11
-15.10173388283226
21
24.842285414272297
31
0
0
LINE
5
114
100
AcDbEntity
8
0
100
AcDbLine
10
-15.10173388283226
20
24.842285414272297
30
0
11
-5.8589530043228244
21
24.8422854142723
31
0
0
LINE
5
115
100
AcDbEntity
8
0
100
AcDbLine
10
-5.8589530043228244
20
24.8422854142723
30
0
11
0
21
30.701238418595938
31
0
0
LWPOLYLINE
5
116
100
AcDbEntity
8
0
100
AcDbPolyline
90
5
70
1
43
0.0
10
-20.11047602636414
20
10.609631204648986
10
-15.369506285867624
20
15.369506285867478
10
-10.590762392231328
20
20.110476026363941
10
-14.773868481166353
20
20.110476026364058
10
-20.11047602636414
20
14.773868481166394
0
LWPOLYLINE
5
117
100
AcDbEntity
8
0
100
AcDbPolyline
90
4
70
1
43
0.0
10
-18.728461608358597
20
5.4570065272511563
10
-5.457006527251278
20
18.728461608358497
10
-4.2337120739139138
20
17.505167155021052
10
-17.505167155021198
20
4.2337120739138685
0
LINE
5
118
100
AcDbEntity
8
0
100
AcDbLine
10
-3.759817335919326e-15
20
-30.701238418595938
30
0
11
-5.8589530043232019
21
-24.842285414272546
31
0
0
LINE
5
119
100
AcDbEntity
8
0
100
AcDbLine
10
-5.8589530043232019
20
-24.842285414272546
30
0
11
-15.101733882832134
21
-24.842285414272546
31
0
0
LINE
5
120
100
AcDbEntity
8
0
100
AcDbLine
10
-15.101733882832134
20
-24.842285414272546
30
0
11
-24.842285414272297
21
-15.101733882832249
31
0
0
LINE
5
121
100
AcDbEntity
8
0
100
AcDbLine
10
-24.842285414272297
20
-15.101733882832249
30
0
11
-24.842285414272297
21
-5.8589530043228146
31
0
0
LINE
5
122
100
AcDbEntity
8
0
100
AcDbLine
10
-24.842285414272297
20
-5.8589530043228146
30
0
11
-30.701238418595938
21
1.5039270572668377e-14
31
0
0
LWPOLYLINE
5
123
100
AcDbEntity
8
0
100
AcDbPolyline
90
5
70
1
43
0.0
10
-10.609631204648991
20
-20.110476026364132
10
-15.36950628586748
20
-15.369506285867613
10
-20.110476026363941
20
-10.590762392231319
10
-20.110476026364058
20
-14.773868481166343
10
-14.773868481166399
20
-20.110476026364132
0
LWPOLYLINE
5
124
100
AcDbEntity
8
0
100
AcDbPolyline
90
4
70
1
43
0.0
10
-5.4570065272511563
20
-18.728461608358597
10
-18.728461608358501
20
-5.4570065272512771
10
-17.505167155021052
20
-4.2337120739139138
10
-4.2337120739138694
20
-17.505167155021198
0
LINE
5
125
100
AcDbEntity
8
0
100
AcDbLine
10
30.701238418595938
20
-6.8170443553663281e-15
30
0
11
24.842285414272546
21
-5.8589530043232045
31
0
0
LINE
5
126
100
AcDbEntity
8
0
100
AcDbLine
10
24.842285414272546
20
-5.8589530043232045
30
0
11
24.842285414272538
21
-15.101733882832136
31
0
0
LINE
5
127
100
AcDbEntity
8
0
100
AcDbLine
10
24.842285414272538
20
-15.101733882832136
30
0
11
15.101733882832246
21
-24.8422854142723
31
0
0
LINE
5
128
100
AcDbEntity
8
0
100
AcDbLine
10
15.101733882832246
20
-24.8422854142723
30
0
11
5.858953004322812
21
-24.842285414272297
31
0
0
LINE
5
129
100
AcDbEntity
8
0
100
AcDbLine
10
5.858953004322812
20
-24.842285414272297
30
0
11
-1.6919179240628042e-14
21
-30.701238418595938
31
0
0
LWPOLYLINE
5
130
100
AcDbEntity
8
0
100
AcDbPolyline
90
5
70
1
43
0.0
10
20.110476026364129
20
-10.609631204648993
10
15.369506285867612
20
-15.369506285867482
10
10.590762392231316
20
-20.110476026363948
10
14.773868481166341
20
-20.110476026364061
10
20.110476026364129
20
-14.773868481166401
0
LWPOLYLINE
5
131
100
AcDbEntity
8
0
100
AcDbPolyline
90
4
70
1
43
0.0
10
18.728461608358597
20
-5.4570065272511572
10
5.4570065272512771
20
-18.728461608358501
10
4.233712073913912
20
-17.505167155021052
10
17.505167155021198
20
-4.2337120739138703
0
ENDSEC
0
SECTION
2
OBJECTS
0
DICTIONARY
5
C
100
AcDbDictionary
3
ACAD_GROUP
350
D
3
ACAD_MLINESTYLE
350
17
0
DICTIONARY
5
D
100
AcDbDictionary
0
DICTIONARY
5
1A
330
C
100
AcDbDictionary
0
DICTIONARY
5
17
100
AcDbDictionary
0
ENDSEC
0
EOF
