999
"DXF R12 Output" (www.mydxf.blogspot.com)
 0 
SECTION
 2 
HEADER
 9 
$ACADVER
 1 
AC1009
 9 
$EXTMIN
 10 
 0 
 20 
 0 
 9 
$EXTMAX
 10 
 8.5 
 20 
 11 
 0 
ENDSEC
 0 
SECTION
 2 
ENTITIES
0
POLYLINE
8
Layer 1
62
7
70
0
10
0.000000
20
0.000000
66
1
0
VERTEX
8
Layer 1
10
75.063676
20
93.770460
70
0
0
VERTEX
8
Layer 1
10
74.546091
20
94.410870
70
0
0
VERTEX
8
Layer 1
10
73.849217
20
95.755120
70
0
0
VERTEX
8
Layer 1
10
73.825167
20
95.903440
70
0
0
VERTEX
8
Layer 1
10
74.465294
20
95.903440
70
0
0
VERTEX
8
Layer 1
10
75.105425
20
95.925340
70
0
0
VERTEX
8
Layer 1
10
73.501194
20
101.788390
70
0
0
VERTEX
8
Layer 1
10
73.121248
20
103.226910
70
0
0
VERTEX
8
Layer 1
10
73.241099
20
103.243053
70
0
0
VERTEX
8
Layer 1
10
73.670047
20
102.858020
70
0
0
VERTEX
8
Layer 1
10
74.209035
20
102.233470
70
0
0
VERTEX
8
Layer 1
10
74.639242
20
101.407350
70
0
0
VERTEX
8
Layer 1
10
74.831206
20
100.978530
70
0
0
VERTEX
8
Layer 1
10
74.836206
20
99.522380
70
0
0
VERTEX
8
Layer 1
10
74.843780
20
98.552270
70
0
0
VERTEX
8
Layer 1
10
74.854916
20
98.264660
70
0
0
VERTEX
8
Layer 1
10
75.167617
20
101.062350
70
0
0
VERTEX
8
Layer 1
10
75.516141
20
103.228466
70
0
0
VERTEX
8
Layer 1
10
75.940575
20
104.993130
70
0
0
VERTEX
8
Layer 1
10
76.845742
20
107.653270
70
0
0
VERTEX
8
Layer 1
10
77.234225
20
108.411856
70
0
0
VERTEX
8
Layer 1
10
77.584477
20
108.799880
70
0
0
VERTEX
8
Layer 1
10
78.673630
20
109.174910
70
0
0
VERTEX
8
Layer 1
10
79.125210
20
109.246439
70
0
0
VERTEX
8
Layer 1
10
79.457214
20
109.154595
70
0
0
VERTEX
8
Layer 1
10
80.163490
20
108.225220
70
0
0
VERTEX
8
Layer 1
10
80.952156
20
106.662640
70
0
0
VERTEX
8
Layer 1
10
81.515712
20
104.906260
70
0
0
VERTEX
8
Layer 1
10
82.007562
20
102.625764
70
0
0
VERTEX
8
Layer 1
10
82.230035
20
100.764720
70
0
0
VERTEX
8
Layer 1
10
82.255095
20
100.288520
70
0
0
VERTEX
8
Layer 1
10
81.408522
20
99.447380
70
0
0
VERTEX
8
Layer 1
10
80.363530
20
98.514820
70
0
0
VERTEX
8
Layer 1
10
79.073816
20
98.426020
70
0
0
VERTEX
8
Layer 1
10
77.684894
20
98.539380
70
0
0
VERTEX
8
Layer 1
10
78.651968
20
99.432830
70
0
0
VERTEX
8
Layer 1
10
79.430968
20
99.593220
70
0
0
VERTEX
8
Layer 1
10
79.329034
20
99.398650
70
0
0
VERTEX
8
Layer 1
10
79.127085
20
98.852950
70
0
0
VERTEX
8
Layer 1
10
79.414861
20
98.976940
70
0
0
VERTEX
8
Layer 1
10
80.035777
20
99.475586
70
0
0
VERTEX
8
Layer 1
10
80.294351
20
100.132100
70
0
0
VERTEX
8
Layer 1
10
80.164430
20
100.682996
70
0
0
VERTEX
8
Layer 1
10
79.731939
20
100.854190
70
0
0
VERTEX
8
Layer 1
10
78.462392
20
100.315106
70
0
0
VERTEX
8
Layer 1
10
76.911064
20
99.276440
70
0
0
VERTEX
8
Layer 1
10
75.769670
20
98.242180
70
0
0
VERTEX
8
Layer 1
10
76.977524
20
97.812070
70
0
0
VERTEX
8
Layer 1
10
77.943078
20
97.576356
70
0
0
VERTEX
8
Layer 1
10
78.786109
20
97.520680
70
0
0
VERTEX
8
Layer 1
10
79.391285
20
97.476280
70
0
0
VERTEX
8
Layer 1
10
75.375267
20
93.443120
70
0
0
VERTEX
8
Layer 1
10
75.063737
20
93.770510
70
0
0
VERTEX
8
Layer 1
10
75.063676
20
93.770460
70
0
0
SEQEND
8
Layer 1
0
POLYLINE
8
Layer 1
62
7
70
0
10
0.000000
20
0.000000
66
1
0
VERTEX
8
Layer 1
10
77.337604
20
95.496690
70
0
0
VERTEX
8
Layer 1
10
79.271872
20
97.431260
70
0
0
VERTEX
8
Layer 1
10
78.726374
20
97.433260
70
0
0
VERTEX
8
Layer 1
10
77.755036
20
97.523260
70
0
0
VERTEX
8
Layer 1
10
75.632206
20
98.231790
70
0
0
VERTEX
8
Layer 1
10
77.573148
20
99.881760
70
0
0
VERTEX
8
Layer 1
10
78.367317
20
100.361740
70
0
0
VERTEX
8
Layer 1
10
79.694614
20
100.926805
70
0
0
VERTEX
8
Layer 1
10
80.068363
20
100.879378
70
0
0
VERTEX
8
Layer 1
10
80.307004
20
100.619710
70
0
0
VERTEX
8
Layer 1
10
80.374624
20
100.151880
70
0
0
VERTEX
8
Layer 1
10
80.258398
20
99.661805
70
0
0
VERTEX
8
Layer 1
10
79.959964
20
99.252220
70
0
0
VERTEX
8
Layer 1
10
79.153805
20
98.774620
70
0
0
VERTEX
8
Layer 1
10
79.021949
20
98.748220
70
0
0
VERTEX
8
Layer 1
10
79.048599
20
98.923050
70
0
0
VERTEX
8
Layer 1
10
79.190941
20
99.321660
70
0
0
VERTEX
8
Layer 1
10
79.219941
20
99.526270
70
0
0
VERTEX
8
Layer 1
10
78.538009
20
99.253040
70
0
0
VERTEX
8
Layer 1
10
77.824768
20
98.559110
70
0
0
VERTEX
8
Layer 1
10
77.942757
20
98.541010
70
0
0
VERTEX
8
Layer 1
10
78.815792
20
98.500210
70
0
0
VERTEX
8
Layer 1
10
79.886716
20
98.513407
70
0
0
VERTEX
8
Layer 1
10
80.438663
20
98.658290
70
0
0
VERTEX
8
Layer 1
10
81.375379
20
99.532440
70
0
0
VERTEX
8
Layer 1
10
82.149208
20
100.309620
70
0
0
VERTEX
8
Layer 1
10
82.139148
20
100.735500
70
0
0
VERTEX
8
Layer 1
10
81.802836
20
103.264429
70
0
0
VERTEX
8
Layer 1
10
81.110593
20
105.982920
70
0
0
VERTEX
8
Layer 1
10
80.543787
20
107.350849
70
0
0
VERTEX
8
Layer 1
10
79.825885
20
108.602040
70
0
0
VERTEX
8
Layer 1
10
79.334713
20
109.136908
70
0
0
VERTEX
8
Layer 1
10
78.649535
20
109.082620
70
0
0
VERTEX
8
Layer 1
10
77.741188
20
108.786328
70
0
0
VERTEX
8
Layer 1
10
77.314960
20
108.374040
70
0
0
VERTEX
8
Layer 1
10
76.453836
20
106.340080
70
0
0
VERTEX
8
Layer 1
10
75.555122
20
102.989097
70
0
0
VERTEX
8
Layer 1
10
74.985361
20
98.741160
70
0
0
VERTEX
8
Layer 1
10
74.884282
20
97.891280
70
0
0
VERTEX
8
Layer 1
10
74.867262
20
97.922880
70
0
0
VERTEX
8
Layer 1
10
74.833212
20
97.950480
70
0
0
VERTEX
8
Layer 1
10
74.748492
20
99.703530
70
0
0
VERTEX
8
Layer 1
10
74.748187
20
100.944170
70
0
0
VERTEX
8
Layer 1
10
74.557387
20
101.370240
70
0
0
VERTEX
8
Layer 1
10
74.203135
20
102.076040
70
0
0
VERTEX
8
Layer 1
10
73.361969
20
103.044190
70
0
0
VERTEX
8
Layer 1
10
73.210651
20
103.164030
70
0
0
VERTEX
8
Layer 1
10
73.301251
20
102.837320
70
0
0
VERTEX
8
Layer 1
10
73.774580
20
101.121680
70
0
0
VERTEX
8
Layer 1
10
74.349773
20
99.038300
70
0
0
VERTEX
8
Layer 1
10
74.687515
20
97.808110
70
0
0
VERTEX
8
Layer 1
10
75.143912
20
96.168540
70
0
0
VERTEX
8
Layer 1
10
75.205332
20
95.831230
70
0
0
VERTEX
8
Layer 1
10
74.547802
20
95.784230
70
0
0
VERTEX
8
Layer 1
10
73.917293
20
95.764430
70
0
0
VERTEX
8
Layer 1
10
74.069449
20
95.421260
70
0
0
VERTEX
8
Layer 1
10
74.742933
20
94.296130
70
0
0
VERTEX
8
Layer 1
10
75.382174
20
93.561990
70
0
0
VERTEX
8
Layer 1
10
77.337530
20
95.496560
70
0
0
VERTEX
8
Layer 1
10
77.337604
20
95.496690
70
0
0
SEQEND
8
Layer 1
0
POLYLINE
8
Layer 1
62
7
70
0
10
0.000000
20
0.000000
66
1
0
VERTEX
8
Layer 1
10
69.261935
20
99.544480
70
0
0
VERTEX
8
Layer 1
10
65.263896
20
103.590330
70
0
0
VERTEX
8
Layer 1
10
66.000641
20
103.819710
70
0
0
VERTEX
8
Layer 1
10
67.960639
20
104.036885
70
0
0
VERTEX
8
Layer 1
10
69.708448
20
103.839310
70
0
0
VERTEX
8
Layer 1
10
70.560362
20
103.475604
70
0
0
VERTEX
8
Layer 1
10
71.264066
20
102.940530
70
0
0
VERTEX
8
Layer 1
10
71.493481
20
102.460565
70
0
0
VERTEX
8
Layer 1
10
72.459848
20
98.978950
70
0
0
VERTEX
8
Layer 1
10
73.359329
20
95.593930
70
0
0
VERTEX
8
Layer 1
10
73.309649
20
95.546330
70
0
0
VERTEX
8
Layer 1
10
69.261932
20
99.544520
70
0
0
VERTEX
8
Layer 1
10
69.261935
20
99.544480
70
0
0
SEQEND
8
Layer 1
0
POLYLINE
8
Layer 1
62
7
70
0
10
0.000000
20
0.000000
66
1
0
VERTEX
8
Layer 1
10
73.226098
20
95.774470
70
0
0
VERTEX
8
Layer 1
10
72.943236
20
96.855850
70
0
0
VERTEX
8
Layer 1
10
72.566984
20
98.264610
70
0
0
VERTEX
8
Layer 1
10
72.248053
20
99.415430
70
0
0
VERTEX
8
Layer 1
10
71.409271
20
102.462570
70
0
0
VERTEX
8
Layer 1
10
71.106793
20
102.969730
70
0
0
VERTEX
8
Layer 1
10
70.717016
20
103.286890
70
0
0
VERTEX
8
Layer 1
10
69.890045
20
103.680666
70
0
0
VERTEX
8
Layer 1
10
68.847116
20
103.922200
70
0
0
VERTEX
8
Layer 1
10
66.672661
20
103.863900
70
0
0
VERTEX
8
Layer 1
10
65.384638
20
103.574860
70
0
0
VERTEX
8
Layer 1
10
73.232956
20
95.705030
70
0
0
VERTEX
8
Layer 1
10
73.226056
20
95.774430
70
0
0
VERTEX
8
Layer 1
10
73.226098
20
95.774470
70
0
0
SEQEND
8
Layer 1
0
POLYLINE
8
Layer 1
62
7
70
0
10
0.000000
20
0.000000
66
1
0
VERTEX
8
Layer 1
10
73.616964
20
96.389570
70
0
0
VERTEX
8
Layer 1
10
73.218579
20
97.828090
70
0
0
VERTEX
8
Layer 1
10
72.559510
20
100.228950
70
0
0
VERTEX
8
Layer 1
10
71.845292
20
102.828220
70
0
0
VERTEX
8
Layer 1
10
70.427795
20
107.987070
70
0
0
VERTEX
8
Layer 1
10
70.029010
20
109.434720
70
0
0
VERTEX
8
Layer 1
10
69.946550
20
109.881150
70
0
0
VERTEX
8
Layer 1
10
69.569952
20
111.429600
70
0
0
VERTEX
8
Layer 1
10
69.024304
20
113.457920
70
0
0
VERTEX
8
Layer 1
10
68.855254
20
114.087380
70
0
0
VERTEX
8
Layer 1
10
68.349289
20
114.341160
70
0
0
VERTEX
8
Layer 1
10
67.843325
20
114.648870
70
0
0
VERTEX
8
Layer 1
10
68.081426
20
115.163320
70
0
0
VERTEX
8
Layer 1
10
68.319527
20
115.664470
70
0
0
VERTEX
8
Layer 1
10
66.780175
20
116.459500
70
0
0
VERTEX
8
Layer 1
10
66.573453
20
116.086110
70
0
0
VERTEX
8
Layer 1
10
66.990003
20
115.859000
70
0
0
VERTEX
8
Layer 1
10
67.406680
20
115.595390
70
0
0
VERTEX
8
Layer 1
10
67.107281
20
114.991210
70
0
0
VERTEX
8
Layer 1
10
65.343264
20
115.908970
70
0
0
VERTEX
8
Layer 1
10
65.730178
20
116.720750
70
0
0
VERTEX
8
Layer 1
10
66.176618
20
117.489640
70
0
0
VERTEX
8
Layer 1
10
66.999944
20
117.099370
70
0
0
VERTEX
8
Layer 1
10
67.763745
20
116.710460
70
0
0
VERTEX
8
Layer 1
10
67.905075
20
116.967580
70
0
0
VERTEX
8
Layer 1
10
68.014310
20
117.253730
70
0
0
VERTEX
8
Layer 1
10
67.089338
20
117.827370
70
0
0
VERTEX
8
Layer 1
10
66.044070
20
118.470280
70
0
0
VERTEX
8
Layer 1
10
65.891680
20
118.568580
70
0
0
VERTEX
8
Layer 1
10
65.915780
20
119.289880
70
0
0
VERTEX
8
Layer 1
10
66.037376
20
123.860470
70
0
0
VERTEX
8
Layer 1
10
66.151066
20
125.585100
70
0
0
VERTEX
8
Layer 1
10
66.493905
20
125.079130
70
0
0
VERTEX
8
Layer 1
10
68.070432
20
122.538780
70
0
0
VERTEX
8
Layer 1
10
69.636301
20
120.517890
70
0
0
VERTEX
8
Layer 1
10
70.105283
20
119.878630
70
0
0
VERTEX
8
Layer 1
10
69.158668
20
117.927790
70
0
0
VERTEX
8
Layer 1
10
67.173856
20
119.141150
70
0
0
VERTEX
8
Layer 1
10
67.594856
20
120.694430
70
0
0
VERTEX
8
Layer 1
10
68.587389
20
120.041880
70
0
0
VERTEX
8
Layer 1
10
68.716360
20
119.900650
70
0
0
VERTEX
8
Layer 1
10
68.607231
20
119.644820
70
0
0
VERTEX
8
Layer 1
10
68.435480
20
119.444015
70
0
0
VERTEX
8
Layer 1
10
68.196264
20
119.558120
70
0
0
VERTEX
8
Layer 1
10
68.041741
20
119.680500
70
0
0
VERTEX
8
Layer 1
10
68.041741
20
119.544390
70
0
0
VERTEX
8
Layer 1
10
68.344002
20
119.223590
70
0
0
VERTEX
8
Layer 1
10
68.675478
20
119.038900
70
0
0
VERTEX
8
Layer 1
10
68.903186
20
119.465490
70
0
0
VERTEX
8
Layer 1
10
69.101679
20
119.892090
70
0
0
VERTEX
8
Layer 1
10
68.876931
20
120.169880
70
0
0
VERTEX
8
Layer 1
10
67.207888
20
122.558820
70
0
0
VERTEX
8
Layer 1
10
66.891195
20
123.106450
70
0
0
VERTEX
8
Layer 1
10
66.891057
20
120.979740
70
0
0
VERTEX
8
Layer 1
10
66.890919
20
118.853020
70
0
0
VERTEX
8
Layer 1
10
67.337359
20
118.583050
70
0
0
VERTEX
8
Layer 1
10
68.588803
20
117.822790
70
0
0
VERTEX
8
Layer 1
10
69.422156
20
117.333460
70
0
0
VERTEX
8
Layer 1
10
69.665150
20
117.641000
70
0
0
VERTEX
8
Layer 1
10
70.297166
20
118.441830
70
0
0
VERTEX
8
Layer 1
10
71.731406
20
117.398950
70
0
0
VERTEX
8
Layer 1
10
70.719852
20
116.030030
70
0
0
VERTEX
8
Layer 1
10
70.344231
20
116.313410
70
0
0
VERTEX
8
Layer 1
10
70.601327
20
116.715950
70
0
0
VERTEX
8
Layer 1
10
70.859269
20
117.083460
70
0
0
VERTEX
8
Layer 1
10
70.688690
20
117.243140
70
0
0
VERTEX
8
Layer 1
10
70.518110
20
117.365640
70
0
0
VERTEX
8
Layer 1
10
70.014098
20
116.694380
70
0
0
VERTEX
8
Layer 1
10
69.500137
20
115.980440
70
0
0
VERTEX
8
Layer 1
10
69.886631
20
115.632340
70
0
0
VERTEX
8
Layer 1
10
70.296415
20
115.257640
70
0
0
VERTEX
8
Layer 1
10
70.010637
20
114.777910
70
0
0
VERTEX
8
Layer 1
10
69.711517
20
114.367460
70
0
0
VERTEX
8
Layer 1
10
70.286242
20
112.228860
70
0
0
VERTEX
8
Layer 1
10
71.235245
20
108.701340
70
0
0
VERTEX
8
Layer 1
10
72.526163
20
103.899640
70
0
0
VERTEX
8
Layer 1
10
73.996320
20
98.428660
70
0
0
VERTEX
8
Layer 1
10
74.549834
20
96.355190
70
0
0
VERTEX
8
Layer 1
10
74.092230
20
96.339890
70
0
0
VERTEX
8
Layer 1
10
73.616963
20
96.389490
70
0
0
VERTEX
8
Layer 1
10
73.616964
20
96.389570
70
0
0
SEQEND
8
Layer 1
0
POLYLINE
8
Layer 1
62
7
70
0
10
0.000000
20
0.000000
66
1
0
VERTEX
8
Layer 1
10
74.430786
20
96.449870
70
0
0
VERTEX
8
Layer 1
10
74.348306
20
96.777260
70
0
0
VERTEX
8
Layer 1
10
73.612085
20
99.514620
70
0
0
VERTEX
8
Layer 1
10
73.399013
20
100.308290
70
0
0
VERTEX
8
Layer 1
10
73.186523
20
101.101960
70
0
0
VERTEX
8
Layer 1
10
72.723494
20
102.828200
70
0
0
VERTEX
8
Layer 1
10
72.207797
20
104.752850
70
0
0
VERTEX
8
Layer 1
10
71.216595
20
108.443410
70
0
0
VERTEX
8
Layer 1
10
70.422593
20
111.399830
70
0
0
VERTEX
8
Layer 1
10
69.849223
20
113.542740
70
0
0
VERTEX
8
Layer 1
10
69.654081
20
114.282580
70
0
0
VERTEX
8
Layer 1
10
69.911353
20
114.776350
70
0
0
VERTEX
8
Layer 1
10
70.211602
20
115.213660
70
0
0
VERTEX
8
Layer 1
10
69.810586
20
115.586030
70
0
0
VERTEX
8
Layer 1
10
69.390981
20
115.952360
70
0
0
VERTEX
8
Layer 1
10
70.512918
20
117.451570
70
0
0
VERTEX
8
Layer 1
10
70.760942
20
117.288690
70
0
0
VERTEX
8
Layer 1
10
70.937844
20
117.076665
70
0
0
VERTEX
8
Layer 1
10
70.648016
20
116.641710
70
0
0
VERTEX
8
Layer 1
10
70.409647
20
116.327900
70
0
0
VERTEX
8
Layer 1
10
70.538402
20
116.212860
70
0
0
VERTEX
8
Layer 1
10
70.700628
20
116.109990
70
0
0
VERTEX
8
Layer 1
10
71.625571
20
117.358910
70
0
0
VERTEX
8
Layer 1
10
71.013185
20
117.868060
70
0
0
VERTEX
8
Layer 1
10
70.328387
20
118.347150
70
0
0
VERTEX
8
Layer 1
10
69.887025
20
117.810470
70
0
0
VERTEX
8
Layer 1
10
69.430665
20
117.256570
70
0
0
VERTEX
8
Layer 1
10
68.101268
20
118.025050
70
0
0
VERTEX
8
Layer 1
10
66.831395
20
118.794580
70
0
0
VERTEX
8
Layer 1
10
66.821135
20
120.987660
70
0
0
VERTEX
8
Layer 1
10
66.859845
20
123.211000
70
0
0
VERTEX
8
Layer 1
10
67.025127
20
123.034970
70
0
0
VERTEX
8
Layer 1
10
67.815408
20
121.714709
70
0
0
VERTEX
8
Layer 1
10
68.722945
20
120.497550
70
0
0
VERTEX
8
Layer 1
10
69.152875
20
119.878390
70
0
0
VERTEX
8
Layer 1
10
68.953569
20
119.382070
70
0
0
VERTEX
8
Layer 1
10
68.682806
20
118.959540
70
0
0
VERTEX
8
Layer 1
10
68.004280
20
119.344840
70
0
0
VERTEX
8
Layer 1
10
68.036290
20
119.723820
70
0
0
VERTEX
8
Layer 1
10
68.222663
20
119.635620
70
0
0
VERTEX
8
Layer 1
10
68.420740
20
119.516200
70
0
0
VERTEX
8
Layer 1
10
68.552248
20
119.699960
70
0
0
VERTEX
8
Layer 1
10
68.570078
20
119.952080
70
0
0
VERTEX
8
Layer 1
10
67.605217
20
120.611720
70
0
0
VERTEX
8
Layer 1
10
67.426087
20
119.887740
70
0
0
VERTEX
8
Layer 1
10
67.297115
20
119.149380
70
0
0
VERTEX
8
Layer 1
10
67.426641
20
119.071580
70
0
0
VERTEX
8
Layer 1
10
69.063714
20
118.056020
70
0
0
VERTEX
8
Layer 1
10
69.248261
20
118.210790
70
0
0
VERTEX
8
Layer 1
10
69.700967
20
119.155580
70
0
0
VERTEX
8
Layer 1
10
70.058543
20
119.887390
70
0
0
VERTEX
8
Layer 1
10
69.814046
20
120.180830
70
0
0
VERTEX
8
Layer 1
10
67.543881
20
123.205630
70
0
0
VERTEX
8
Layer 1
10
66.472767
20
124.958560
70
0
0
VERTEX
8
Layer 1
10
66.148232
20
125.501130
70
0
0
VERTEX
8
Layer 1
10
66.121732
20
124.442670
70
0
0
VERTEX
8
Layer 1
10
66.057252
20
122.054810
70
0
0
VERTEX
8
Layer 1
10
66.008662
20
119.660350
70
0
0
VERTEX
8
Layer 1
10
65.998042
20
118.595280
70
0
0
VERTEX
8
Layer 1
10
67.048603
20
117.947190
70
0
0
VERTEX
8
Layer 1
10
68.112326
20
117.259620
70
0
0
VERTEX
8
Layer 1
10
67.806554
20
116.639820
70
0
0
VERTEX
8
Layer 1
10
66.974638
20
117.012830
70
0
0
VERTEX
8
Layer 1
10
66.181469
20
117.409790
70
0
0
VERTEX
8
Layer 1
10
66.058158
20
117.182640
70
0
0
VERTEX
8
Layer 1
10
65.429367
20
115.926070
70
0
0
VERTEX
8
Layer 1
10
66.259901
20
115.498080
70
0
0
VERTEX
8
Layer 1
10
67.077328
20
115.080710
70
0
0
VERTEX
8
Layer 1
10
67.204320
20
115.338230
70
0
0
VERTEX
8
Layer 1
10
67.319455
20
115.606360
70
0
0
VERTEX
8
Layer 1
10
66.900842
20
115.820310
70
0
0
VERTEX
8
Layer 1
10
66.494086
20
116.075020
70
0
0
VERTEX
8
Layer 1
10
66.596844
20
116.332600
70
0
0
VERTEX
8
Layer 1
10
66.776614
20
116.538800
70
0
0
VERTEX
8
Layer 1
10
68.391949
20
115.687890
70
0
0
VERTEX
8
Layer 1
10
68.160521
20
115.146170
70
0
0
VERTEX
8
Layer 1
10
67.929365
20
114.654990
70
0
0
VERTEX
8
Layer 1
10
68.425090
20
114.401900
70
0
0
VERTEX
8
Layer 1
10
68.948896
20
114.030310
70
0
0
VERTEX
8
Layer 1
10
69.268283
20
112.868080
70
0
0
VERTEX
8
Layer 1
10
69.768842
20
111.022800
70
0
0
VERTEX
8
Layer 1
10
70.013251
20
109.971190
70
0
0
VERTEX
8
Layer 1
10
70.841185
20
106.796510
70
0
0
VERTEX
8
Layer 1
10
71.955394
20
102.748790
70
0
0
VERTEX
8
Layer 1
10
72.367646
20
101.260660
70
0
0
VERTEX
8
Layer 1
10
73.122662
20
98.523160
70
0
0
VERTEX
8
Layer 1
10
73.702366
20
96.449690
70
0
0
VERTEX
8
Layer 1
10
74.430785
20
96.449830
70
0
0
VERTEX
8
Layer 1
10
74.430786
20
96.449870
70
0
0
SEQEND
8
Layer 1
0
POLYLINE
8
Layer 1
62
7
70
0
10
0.000000
20
0.000000
66
1
0
VERTEX
8
Layer 1
10
82.592616
20
100.734890
70
0
0
VERTEX
8
Layer 1
10
82.570126
20
101.399590
70
0
0
VERTEX
8
Layer 1
10
82.521056
20
102.601770
70
0
0
VERTEX
8
Layer 1
10
82.500576
20
103.192760
70
0
0
VERTEX
8
Layer 1
10
82.575836
20
103.173760
70
0
0
VERTEX
8
Layer 1
10
83.846650
20
104.219720
70
0
0
VERTEX
8
Layer 1
10
85.118846
20
105.308430
70
0
0
VERTEX
8
Layer 1
10
86.091840
20
104.206850
70
0
0
VERTEX
8
Layer 1
10
84.385623
20
102.425640
70
0
0
VERTEX
8
Layer 1
10
82.637876
20
100.705150
70
0
0
VERTEX
8
Layer 1
10
82.592636
20
100.734950
70
0
0
VERTEX
8
Layer 1
10
82.592616
20
100.734890
70
0
0
SEQEND
8
Layer 1
0
POLYLINE
8
Layer 1
62
7
70
0
10
0.000000
20
0.000000
66
1
0
VERTEX
8
Layer 1
10
85.677945
20
104.596140
70
0
0
VERTEX
8
Layer 1
10
85.221622
20
105.122010
70
0
0
VERTEX
8
Layer 1
10
85.119339
20
105.242910
70
0
0
VERTEX
8
Layer 1
10
83.900143
20
104.154600
70
0
0
VERTEX
8
Layer 1
10
82.610102
20
103.068750
70
0
0
VERTEX
8
Layer 1
10
82.571832
20
102.896830
70
0
0
VERTEX
8
Layer 1
10
82.658532
20
100.847660
70
0
0
VERTEX
8
Layer 1
10
84.333587
20
102.497750
70
0
0
VERTEX
8
Layer 1
10
86.031980
20
104.191170
70
0
0
VERTEX
8
Layer 1
10
85.677945
20
104.596140
70
0
0
SEQEND
8
Layer 1
0
POLYLINE
8
Layer 1
62
7
70
0
10
0.000000
20
0.000000
66
1
0
VERTEX
8
Layer 1
10
74.765599
20
102.852080
70
0
0
VERTEX
8
Layer 1
10
73.943676
20
103.414690
70
0
0
VERTEX
8
Layer 1
10
73.381056
20
103.501790
70
0
0
VERTEX
8
Layer 1
10
73.025790
20
103.506790
70
0
0
VERTEX
8
Layer 1
10
72.859872
20
104.119930
70
0
0
VERTEX
8
Layer 1
10
72.510755
20
105.394080
70
0
0
VERTEX
8
Layer 1
10
72.327559
20
106.098460
70
0
0
VERTEX
8
Layer 1
10
72.560851
20
106.012060
70
0
0
VERTEX
8
Layer 1
10
73.424283
20
105.418939
70
0
0
VERTEX
8
Layer 1
10
74.587514
20
104.938880
70
0
0
VERTEX
8
Layer 1
10
75.220266
20
104.726790
70
0
0
VERTEX
8
Layer 1
10
75.000945
20
102.838220
70
0
0
VERTEX
8
Layer 1
10
74.927018
20
102.735113
70
0
0
VERTEX
8
Layer 1
10
74.765599
20
102.852220
70
0
0
VERTEX
8
Layer 1
10
74.765599
20
102.852080
70
0
0
SEQEND
8
Layer 1
0
POLYLINE
8
Layer 1
62
7
70
0
10
0.000000
20
0.000000
66
1
0
VERTEX
8
Layer 1
10
75.021517
20
103.651630
70
0
0
VERTEX
8
Layer 1
10
75.133403
20
104.544050
70
0
0
VERTEX
8
Layer 1
10
75.099923
20
104.689600
70
0
0
VERTEX
8
Layer 1
10
74.569679
20
104.852540
70
0
0
VERTEX
8
Layer 1
10
73.525436
20
105.262554
70
0
0
VERTEX
8
Layer 1
10
72.668004
20
105.817370
70
0
0
VERTEX
8
Layer 1
10
72.416635
20
105.999430
70
0
0
VERTEX
8
Layer 1
10
73.028017
20
103.835840
70
0
0
VERTEX
8
Layer 1
10
73.088847
20
103.613300
70
0
0
VERTEX
8
Layer 1
10
73.433661
20
103.591000
70
0
0
VERTEX
8
Layer 1
10
73.984596
20
103.490340
70
0
0
VERTEX
8
Layer 1
10
74.764330
20
102.971830
70
0
0
VERTEX
8
Layer 1
10
74.885063
20
102.887730
70
0
0
VERTEX
8
Layer 1
10
75.021522
20
103.651630
70
0
0
VERTEX
8
Layer 1
10
75.021517
20
103.651630
70
0
0
SEQEND
8
Layer 1
0
POLYLINE
8
Layer 1
62
7
70
0
10
0.000000
20
0.000000
66
1
0
VERTEX
8
Layer 1
10
82.345654
20
103.949260
70
0
0
VERTEX
8
Layer 1
10
81.698532
20
106.337161
70
0
0
VERTEX
8
Layer 1
10
80.668178
20
108.553230
70
0
0
VERTEX
8
Layer 1
10
79.772616
20
109.728380
70
0
0
VERTEX
8
Layer 1
10
79.242755
20
109.874761
70
0
0
VERTEX
8
Layer 1
10
78.478500
20
109.899470
70
0
0
VERTEX
8
Layer 1
10
77.665731
20
109.805616
70
0
0
VERTEX
8
Layer 1
10
77.176029
20
109.451940
70
0
0
VERTEX
8
Layer 1
10
76.856365
20
109.157710
70
0
0
VERTEX
8
Layer 1
10
76.375209
20
109.615880
70
0
0
VERTEX
8
Layer 1
10
75.923168
20
110.074050
70
0
0
VERTEX
8
Layer 1
10
76.224982
20
110.375860
70
0
0
VERTEX
8
Layer 1
10
76.526793
20
110.677670
70
0
0
VERTEX
8
Layer 1
10
75.954990
20
111.253510
70
0
0
VERTEX
8
Layer 1
10
75.383189
20
111.872820
70
0
0
VERTEX
8
Layer 1
10
77.498510
20
113.953490
70
0
0
VERTEX
8
Layer 1
10
78.506160
20
112.866220
70
0
0
VERTEX
8
Layer 1
10
80.462677
20
110.645710
70
0
0
VERTEX
8
Layer 1
10
81.930966
20
108.980220
70
0
0
VERTEX
8
Layer 1
10
83.518308
20
107.178000
70
0
0
VERTEX
8
Layer 1
10
84.649286
20
105.817520
70
0
0
VERTEX
8
Layer 1
10
82.421496
20
103.800440
70
0
0
VERTEX
8
Layer 1
10
82.345656
20
103.949260
70
0
0
VERTEX
8
Layer 1
10
82.345654
20
103.949260
70
0
0
SEQEND
8
Layer 1
0
POLYLINE
8
Layer 1
62
7
70
0
10
0.000000
20
0.000000
66
1
0
VERTEX
8
Layer 1
10
83.591113
20
104.910140
70
0
0
VERTEX
8
Layer 1
10
84.580321
20
105.828650
70
0
0
VERTEX
8
Layer 1
10
83.022261
20
107.612820
70
0
0
VERTEX
8
Layer 1
10
80.546445
20
110.424550
70
0
0
VERTEX
8
Layer 1
10
79.093814
20
112.074450
70
0
0
VERTEX
8
Layer 1
10
78.045295
20
113.264960
70
0
0
VERTEX
8
Layer 1
10
77.493690
20
113.870200
70
0
0
VERTEX
8
Layer 1
10
76.461743
20
112.875230
70
0
0
VERTEX
8
Layer 1
10
75.457348
20
111.870250
70
0
0
VERTEX
8
Layer 1
10
76.035362
20
111.300470
70
0
0
VERTEX
8
Layer 1
10
76.613376
20
110.689200
70
0
0
VERTEX
8
Layer 1
10
76.326522
20
110.358930
70
0
0
VERTEX
8
Layer 1
10
76.039668
20
110.070150
70
0
0
VERTEX
8
Layer 1
10
76.447950
20
109.660470
70
0
0
VERTEX
8
Layer 1
10
76.856234
20
109.250800
70
0
0
VERTEX
8
Layer 1
10
77.141560
20
109.533680
70
0
0
VERTEX
8
Layer 1
10
77.630219
20
109.880690
70
0
0
VERTEX
8
Layer 1
10
78.406845
20
109.980020
70
0
0
VERTEX
8
Layer 1
10
79.208481
20
109.958740
70
0
0
VERTEX
8
Layer 1
10
79.776011
20
109.812480
70
0
0
VERTEX
8
Layer 1
10
80.174690
20
109.457520
70
0
0
VERTEX
8
Layer 1
10
81.143528
20
107.842930
70
0
0
VERTEX
8
Layer 1
10
81.930954
20
105.944060
70
0
0
VERTEX
8
Layer 1
10
82.388555
20
104.157590
70
0
0
VERTEX
8
Layer 1
10
82.437087
20
103.954196
70
0
0
VERTEX
8
Layer 1
10
82.521783
20
103.968670
70
0
0
VERTEX
8
Layer 1
10
83.591113
20
104.910140
70
0
0
VERTEX
8
Layer 1
10
83.591113
20
104.910140
70
0
0
SEQEND
8
Layer 1
0
POLYLINE
8
Layer 1
62
7
70
0
10
0.000000
20
0.000000
66
1
0
VERTEX
8
Layer 1
10
64.835314
20
103.967110
70
0
0
VERTEX
8
Layer 1
10
64.787694
20
104.051010
70
0
0
VERTEX
8
Layer 1
10
65.932697
20
105.308470
70
0
0
VERTEX
8
Layer 1
10
66.732186
20
104.509550
70
0
0
VERTEX
8
Layer 1
10
66.484164
20
104.396190
70
0
0
VERTEX
8
Layer 1
10
65.589158
20
104.132830
70
0
0
VERTEX
8
Layer 1
10
64.912555
20
103.919540
70
0
0
VERTEX
8
Layer 1
10
64.835315
20
103.967140
70
0
0
VERTEX
8
Layer 1
10
64.835314
20
103.967110
70
0
0
SEQEND
8
Layer 1
0
POLYLINE
8
Layer 1
62
7
70
0
10
0.000000
20
0.000000
66
1
0
VERTEX
8
Layer 1
10
65.424136
20
104.172880
70
0
0
VERTEX
8
Layer 1
10
66.289340
20
104.436350
70
0
0
VERTEX
8
Layer 1
10
66.660005
20
104.525750
70
0
0
VERTEX
8
Layer 1
10
66.310009
20
104.877370
70
0
0
VERTEX
8
Layer 1
10
65.932583
20
105.229000
70
0
0
VERTEX
8
Layer 1
10
64.913756
20
104.057680
70
0
0
VERTEX
8
Layer 1
10
64.915256
20
103.998780
70
0
0
VERTEX
8
Layer 1
10
65.424131
20
104.172800
70
0
0
VERTEX
8
Layer 1
10
65.424136
20
104.172880
70
0
0
SEQEND
8
Layer 1
0
POLYLINE
8
Layer 1
62
7
70
0
10
0.000000
20
0.000000
66
1
0
VERTEX
8
Layer 1
10
70.740219
20
104.026640
70
0
0
VERTEX
8
Layer 1
10
69.347368
20
104.451059
70
0
0
VERTEX
8
Layer 1
10
67.873620
20
104.587170
70
0
0
VERTEX
8
Layer 1
10
67.526923
20
104.574270
70
0
0
VERTEX
8
Layer 1
10
66.931137
20
105.169030
70
0
0
VERTEX
8
Layer 1
10
66.336653
20
105.803960
70
0
0
VERTEX
8
Layer 1
10
66.763250
20
106.323140
70
0
0
VERTEX
8
Layer 1
10
68.336244
20
108.098980
70
0
0
VERTEX
8
Layer 1
10
69.535561
20
109.395820
70
0
0
VERTEX
8
Layer 1
10
69.646232
20
109.187480
70
0
0
VERTEX
8
Layer 1
10
70.737855
20
105.237140
70
0
0
VERTEX
8
Layer 1
10
71.057687
20
103.997020
70
0
0
VERTEX
8
Layer 1
10
70.740219
20
104.026620
70
0
0
VERTEX
8
Layer 1
10
70.740219
20
104.026640
70
0
0
SEQEND
8
Layer 1
0
POLYLINE
8
Layer 1
62
7
70
0
10
0.000000
20
0.000000
66
1
0
VERTEX
8
Layer 1
10
70.962330
20
104.108040
70
0
0
VERTEX
8
Layer 1
10
69.639811
20
108.909340
70
0
0
VERTEX
8
Layer 1
10
69.528861
20
109.315700
70
0
0
VERTEX
8
Layer 1
10
67.972245
20
107.560100
70
0
0
VERTEX
8
Layer 1
10
66.415629
20
105.804510
70
0
0
VERTEX
8
Layer 1
10
66.982191
20
105.237660
70
0
0
VERTEX
8
Layer 1
10
67.548753
20
104.670810
70
0
0
VERTEX
8
Layer 1
10
68.182161
20
104.655710
70
0
0
VERTEX
8
Layer 1
10
69.451283
20
104.522010
70
0
0
VERTEX
8
Layer 1
10
70.584218
20
104.183860
70
0
0
VERTEX
8
Layer 1
10
70.962330
20
104.108060
70
0
0
VERTEX
8
Layer 1
10
70.962330
20
104.108040
70
0
0
SEQEND
8
Layer 1
0
POLYLINE
8
Layer 1
62
7
70
0
10
0.000000
20
0.000000
66
1
0
VERTEX
8
Layer 1
10
62.396605
20
106.409840
70
0
0
VERTEX
8
Layer 1
10
60.541560
20
108.364530
70
0
0
VERTEX
8
Layer 1
10
61.612797
20
109.534540
70
0
0
VERTEX
8
Layer 1
10
62.684034
20
110.605230
70
0
0
VERTEX
8
Layer 1
10
63.100928
20
110.189750
70
0
0
VERTEX
8
Layer 1
10
63.517822
20
109.733430
70
0
0
VERTEX
8
Layer 1
10
62.862917
20
109.038590
70
0
0
VERTEX
8
Layer 1
10
62.208011
20
108.384590
70
0
0
VERTEX
8
Layer 1
10
63.676429
20
106.915770
70
0
0
VERTEX
8
Layer 1
10
65.144846
20
105.386890
70
0
0
VERTEX
8
Layer 1
10
64.310624
20
104.554480
70
0
0
VERTEX
8
Layer 1
10
62.396605
20
106.409840
70
0
0
VERTEX
8
Layer 1
10
62.396605
20
106.409840
70
0
0
SEQEND
8
Layer 1
0
POLYLINE
8
Layer 1
62
7
70
0
10
0.000000
20
0.000000
66
1
0
VERTEX
8
Layer 1
10
64.708619
20
105.011130
70
0
0
VERTEX
8
Layer 1
10
65.084337
20
105.388420
70
0
0
VERTEX
8
Layer 1
10
63.606619
20
106.866530
70
0
0
VERTEX
8
Layer 1
10
62.128900
20
108.383710
70
0
0
VERTEX
8
Layer 1
10
62.783857
20
109.078580
70
0
0
VERTEX
8
Layer 1
10
63.438814
20
109.734390
70
0
0
VERTEX
8
Layer 1
10
63.061295
20
110.110340
70
0
0
VERTEX
8
Layer 1
10
62.683776
20
110.486280
70
0
0
VERTEX
8
Layer 1
10
61.622714
20
109.425220
70
0
0
VERTEX
8
Layer 1
10
60.561653
20
108.364160
70
0
0
VERTEX
8
Layer 1
10
62.426493
20
106.499010
70
0
0
VERTEX
8
Layer 1
10
64.312118
20
104.633840
70
0
0
VERTEX
8
Layer 1
10
64.708619
20
105.011130
70
0
0
VERTEX
8
Layer 1
10
64.708619
20
105.011130
70
0
0
SEQEND
8
Layer 1
0
POLYLINE
8
Layer 1
62
7
70
0
10
0.000000
20
0.000000
66
1
0
VERTEX
8
Layer 1
10
86.007701
20
104.942130
70
0
0
VERTEX
8
Layer 1
10
85.621532
20
105.388380
70
0
0
VERTEX
8
Layer 1
10
87.089964
20
106.915820
70
0
0
VERTEX
8
Layer 1
10
88.558394
20
108.384640
70
0
0
VERTEX
8
Layer 1
10
87.943160
20
108.998920
70
0
0
VERTEX
8
Layer 1
10
87.327923
20
109.654100
70
0
0
VERTEX
8
Layer 1
10
88.161699
20
110.467350
70
0
0
VERTEX
8
Layer 1
10
89.222523
20
109.465640
70
0
0
VERTEX
8
Layer 1
10
90.224818
20
108.364260
70
0
0
VERTEX
8
Layer 1
10
88.369458
20
106.409560
70
0
0
VERTEX
8
Layer 1
10
86.453984
20
104.554510
70
0
0
VERTEX
8
Layer 1
10
86.007701
20
104.942130
70
0
0
VERTEX
8
Layer 1
10
86.007701
20
104.942130
70
0
0
SEQEND
8
Layer 1
0
POLYLINE
8
Layer 1
62
7
70
0
10
0.000000
20
0.000000
66
1
0
VERTEX
8
Layer 1
10
88.339882
20
106.499030
70
0
0
VERTEX
8
Layer 1
10
90.204723
20
108.364190
70
0
0
VERTEX
8
Layer 1
10
89.183341
20
109.385570
70
0
0
VERTEX
8
Layer 1
10
88.161965
20
110.406940
70
0
0
VERTEX
8
Layer 1
10
87.784461
20
110.031010
70
0
0
VERTEX
8
Layer 1
10
87.406957
20
109.655070
70
0
0
VERTEX
8
Layer 1
10
88.022218
20
109.038910
70
0
0
VERTEX
8
Layer 1
10
88.637479
20
108.383710
70
0
0
VERTEX
8
Layer 1
10
87.160507
20
106.867310
70
0
0
VERTEX
8
Layer 1
10
85.683538
20
105.389950
70
0
0
VERTEX
8
Layer 1
10
86.059291
20
105.014640
70
0
0
VERTEX
8
Layer 1
10
86.455045
20
104.636600
70
0
0
VERTEX
8
Layer 1
10
88.339882
20
106.499030
70
0
0
VERTEX
8
Layer 1
10
88.339882
20
106.499030
70
0
0
SEQEND
8
Layer 1
0
POLYLINE
8
Layer 1
62
7
70
0
10
0.000000
20
0.000000
66
1
0
VERTEX
8
Layer 1
10
74.728410
20
105.280530
70
0
0
VERTEX
8
Layer 1
10
73.271754
20
106.275290
70
0
0
VERTEX
8
Layer 1
10
72.181839
20
107.657230
70
0
0
VERTEX
8
Layer 1
10
71.604610
20
109.031374
70
0
0
VERTEX
8
Layer 1
10
71.415224
20
110.645930
70
0
0
VERTEX
8
Layer 1
10
71.535127
20
111.854773
70
0
0
VERTEX
8
Layer 1
10
71.917180
20
112.888040
70
0
0
VERTEX
8
Layer 1
10
72.578565
20
113.752740
70
0
0
VERTEX
8
Layer 1
10
74.666101
20
111.934760
70
0
0
VERTEX
8
Layer 1
10
74.331251
20
111.538480
70
0
0
VERTEX
8
Layer 1
10
73.993613
20
111.202600
70
0
0
VERTEX
8
Layer 1
10
75.270741
20
109.925020
70
0
0
VERTEX
8
Layer 1
10
76.547870
20
108.647440
70
0
0
VERTEX
8
Layer 1
10
76.286301
20
108.118870
70
0
0
VERTEX
8
Layer 1
10
75.731853
20
106.772938
70
0
0
VERTEX
8
Layer 1
10
75.315596
20
105.212340
70
0
0
VERTEX
8
Layer 1
10
75.243526
20
105.044750
70
0
0
VERTEX
8
Layer 1
10
74.728408
20
105.280530
70
0
0
VERTEX
8
Layer 1
10
74.728410
20
105.280530
70
0
0
SEQEND
8
Layer 1
0
POLYLINE
8
Layer 1
62
7
70
0
10
0.000000
20
0.000000
66
1
0
VERTEX
8
Layer 1
10
75.284626
20
105.457310
70
0
0
VERTEX
8
Layer 1
10
75.671950
20
106.880385
70
0
0
VERTEX
8
Layer 1
10
76.214795
20
108.165430
70
0
0
VERTEX
8
Layer 1
10
76.447641
20
108.629530
70
0
0
VERTEX
8
Layer 1
10
75.181271
20
109.895440
70
0
0
VERTEX
8
Layer 1
10
73.914900
20
111.200480
70
0
0
VERTEX
8
Layer 1
10
74.257052
20
111.583350
70
0
0
VERTEX
8
Layer 1
10
74.599204
20
111.927100
70
0
0
VERTEX
8
Layer 1
10
74.445548
20
112.064590
70
0
0
VERTEX
8
Layer 1
10
72.567402
20
113.681710
70
0
0
VERTEX
8
Layer 1
10
71.856393
20
112.573020
70
0
0
VERTEX
8
Layer 1
10
71.600795
20
111.793255
70
0
0
VERTEX
8
Layer 1
10
71.504914
20
110.871170
70
0
0
VERTEX
8
Layer 1
10
71.562522
20
109.676155
70
0
0
VERTEX
8
Layer 1
10
71.827344
20
108.595974
70
0
0
VERTEX
8
Layer 1
10
72.313289
20
107.592013
70
0
0
VERTEX
8
Layer 1
10
73.034265
20
106.625660
70
0
0
VERTEX
8
Layer 1
10
74.113317
20
105.723700
70
0
0
VERTEX
8
Layer 1
10
75.191986
20
105.150700
70
0
0
VERTEX
8
Layer 1
10
75.284626
20
105.457310
70
0
0
VERTEX
8
Layer 1
10
75.284626
20
105.457310
70
0
0
SEQEND
8
Layer 1
0
POLYLINE
8
Layer 1
62
7
70
0
10
0.000000
20
0.000000
66
1
0
VERTEX
8
Layer 1
10
64.906574
20
109.456000
70
0
0
VERTEX
8
Layer 1
10
63.180512
20
111.182820
70
0
0
VERTEX
8
Layer 1
10
63.716240
20
111.708950
70
0
0
VERTEX
8
Layer 1
10
65.432422
20
113.394920
70
0
0
VERTEX
8
Layer 1
10
66.689672
20
114.554750
70
0
0
VERTEX
8
Layer 1
10
68.397859
20
113.609130
70
0
0
VERTEX
8
Layer 1
10
67.449382
20
112.610260
70
0
0
VERTEX
8
Layer 1
10
67.069556
20
112.927670
70
0
0
VERTEX
8
Layer 1
10
66.750490
20
113.245080
70
0
0
VERTEX
8
Layer 1
10
66.344629
20
112.837830
70
0
0
VERTEX
8
Layer 1
10
65.938768
20
112.430580
70
0
0
VERTEX
8
Layer 1
10
66.633083
20
111.737120
70
0
0
VERTEX
8
Layer 1
10
67.327398
20
111.043650
70
0
0
VERTEX
8
Layer 1
10
67.952885
20
111.668220
70
0
0
VERTEX
8
Layer 1
10
68.622072
20
112.292790
70
0
0
VERTEX
8
Layer 1
10
69.181110
20
110.795030
70
0
0
VERTEX
8
Layer 1
10
69.331455
20
110.348880
70
0
0
VERTEX
8
Layer 1
10
68.022125
20
109.039030
70
0
0
VERTEX
8
Layer 1
10
66.672715
20
107.729190
70
0
0
VERTEX
8
Layer 1
10
64.906574
20
109.456000
70
0
0
VERTEX
8
Layer 1
10
64.906574
20
109.456000
70
0
0
SEQEND
8
Layer 1
0
POLYLINE
8
Layer 1
62
7
70
0
10
0.000000
20
0.000000
66
1
0
VERTEX
8
Layer 1
10
68.922885
20
111.289200
70
0
0
VERTEX
8
Layer 1
10
68.611912
20
112.208490
70
0
0
VERTEX
8
Layer 1
10
67.969800
20
111.566380
70
0
0
VERTEX
8
Layer 1
10
67.327688
20
110.924270
70
0
0
VERTEX
8
Layer 1
10
66.593418
20
111.657730
70
0
0
VERTEX
8
Layer 1
10
65.859149
20
112.426920
70
0
0
VERTEX
8
Layer 1
10
66.704631
20
113.290840
70
0
0
VERTEX
8
Layer 1
10
67.112886
20
113.001170
70
0
0
VERTEX
8
Layer 1
10
67.449487
20
112.672620
70
0
0
VERTEX
8
Layer 1
10
67.880816
20
113.127560
70
0
0
VERTEX
8
Layer 1
10
68.286073
20
113.608760
70
0
0
VERTEX
8
Layer 1
10
66.701491
20
114.475380
70
0
0
VERTEX
8
Layer 1
10
63.874974
20
111.748980
70
0
0
VERTEX
8
Layer 1
10
63.299563
20
111.182900
70
0
0
VERTEX
8
Layer 1
10
64.985986
20
109.495680
70
0
0
VERTEX
8
Layer 1
10
66.672410
20
107.808460
70
0
0
VERTEX
8
Layer 1
10
67.953134
20
109.089180
70
0
0
VERTEX
8
Layer 1
10
69.233859
20
110.369900
70
0
0
VERTEX
8
Layer 1
10
68.922885
20
111.289200
70
0
0
SEQEND
8
Layer 1
0
POLYLINE
8
Layer 1
62
7
70
0
10
0.000000
20
0.000000
66
1
0
VERTEX
8
Layer 1
10
84.738137
20
109.664190
70
0
0
VERTEX
8
Layer 1
10
84.073876
20
110.369440
70
0
0
VERTEX
8
Layer 1
10
84.768232
20
111.062600
70
0
0
VERTEX
8
Layer 1
10
85.089036
20
110.781610
70
0
0
VERTEX
8
Layer 1
10
85.371916
20
110.500610
70
0
0
VERTEX
8
Layer 1
10
85.685219
20
110.823330
70
0
0
VERTEX
8
Layer 1
10
86.008584
20
111.174190
70
0
0
VERTEX
8
Layer 1
10
85.491342
20
111.728540
70
0
0
VERTEX
8
Layer 1
10
84.964038
20
112.254750
70
0
0
VERTEX
8
Layer 1
10
84.291789
20
111.579310
70
0
0
VERTEX
8
Layer 1
10
83.558816
20
110.903870
70
0
0
VERTEX
8
Layer 1
10
80.343625
20
114.118130
70
0
0
VERTEX
8
Layer 1
10
82.406994
20
116.181780
70
0
0
VERTEX
8
Layer 1
10
87.526339
20
111.082120
70
0
0
VERTEX
8
Layer 1
10
85.440803
20
108.999060
70
0
0
VERTEX
8
Layer 1
10
84.738137
20
109.664190
70
0
0
VERTEX
8
Layer 1
10
84.738137
20
109.664190
70
0
0
SEQEND
8
Layer 1
0
POLYLINE
8
Layer 1
62
7
70
0
10
0.000000
20
0.000000
66
1
0
VERTEX
8
Layer 1
10
87.407005
20
111.082560
70
0
0
VERTEX
8
Layer 1
10
84.907588
20
113.621830
70
0
0
VERTEX
8
Layer 1
10
82.407886
20
116.121290
70
0
0
VERTEX
8
Layer 1
10
81.406016
20
115.119330
70
0
0
VERTEX
8
Layer 1
10
80.404146
20
114.117360
70
0
0
VERTEX
8
Layer 1
10
81.980885
20
112.540620
70
0
0
VERTEX
8
Layer 1
10
83.557628
20
110.963880
70
0
0
VERTEX
8
Layer 1
10
84.242762
20
111.648180
70
0
0
VERTEX
8
Layer 1
10
84.966670
20
112.332470
70
0
0
VERTEX
8
Layer 1
10
86.137417
20
111.176230
70
0
0
VERTEX
8
Layer 1
10
85.365700
20
110.427670
70
0
0
VERTEX
8
Layer 1
10
85.046027
20
110.705540
70
0
0
VERTEX
8
Layer 1
10
84.770280
20
110.983420
70
0
0
VERTEX
8
Layer 1
10
84.461515
20
110.676470
70
0
0
VERTEX
8
Layer 1
10
84.152748
20
110.369510
70
0
0
VERTEX
8
Layer 1
10
84.797258
20
109.724110
70
0
0
VERTEX
8
Layer 1
10
85.441771
20
109.078710
70
0
0
VERTEX
8
Layer 1
10
86.424246
20
110.060740
70
0
0
VERTEX
8
Layer 1
10
87.407005
20
111.082560
70
0
0
VERTEX
8
Layer 1
10
87.407005
20
111.082560
70
0
0
SEQEND
8
Layer 1
0
POLYLINE
8
Layer 1
62
7
70
0
10
0.000000
20
0.000000
66
1
0
VERTEX
8
Layer 1
10
81.233084
20
110.635360
70
0
0
VERTEX
8
Layer 1
10
78.937636
20
113.180070
70
0
0
VERTEX
8
Layer 1
10
78.376665
20
113.708504
70
0
0
VERTEX
8
Layer 1
10
77.790437
20
114.062030
70
0
0
VERTEX
8
Layer 1
10
77.486435
20
114.251610
70
0
0
VERTEX
8
Layer 1
10
77.690141
20
114.472220
70
0
0
VERTEX
8
Layer 1
10
77.992319
20
114.862770
70
0
0
VERTEX
8
Layer 1
10
78.074489
20
115.451270
70
0
0
VERTEX
8
Layer 1
10
78.104629
20
115.824620
70
0
0
VERTEX
8
Layer 1
10
78.798312
20
115.060710
70
0
0
VERTEX
8
Layer 1
10
81.054013
20
112.679050
70
0
0
VERTEX
8
Layer 1
10
82.662504
20
111.061290
70
0
0
VERTEX
8
Layer 1
10
82.208094
20
110.605590
70
0
0
VERTEX
8
Layer 1
10
81.709929
20
110.149880
70
0
0
VERTEX
8
Layer 1
10
81.233079
20
110.635360
70
0
0
VERTEX
8
Layer 1
10
81.233084
20
110.635360
70
0
0
SEQEND
8
Layer 1
0
POLYLINE
8
Layer 1
62
7
70
0
10
0.000000
20
0.000000
66
1
0
VERTEX
8
Layer 1
10
80.975564
20
112.639140
70
0
0
VERTEX
8
Layer 1
10
78.317246
20
115.507150
70
0
0
VERTEX
8
Layer 1
10
78.141193
20
115.725420
70
0
0
VERTEX
8
Layer 1
10
78.155103
20
115.376840
70
0
0
VERTEX
8
Layer 1
10
78.063813
20
114.813230
70
0
0
VERTEX
8
Layer 1
10
77.764807
20
114.423960
70
0
0
VERTEX
8
Layer 1
10
77.571009
20
114.249710
70
0
0
VERTEX
8
Layer 1
10
77.780397
20
114.162910
70
0
0
VERTEX
8
Layer 1
10
78.295265
20
113.875580
70
0
0
VERTEX
8
Layer 1
10
80.937693
20
111.090970
70
0
0
VERTEX
8
Layer 1
10
81.709484
20
110.226480
70
0
0
VERTEX
8
Layer 1
10
82.126647
20
110.643650
70
0
0
VERTEX
8
Layer 1
10
82.543813
20
111.060810
70
0
0
VERTEX
8
Layer 1
10
80.975564
20
112.639140
70
0
0
SEQEND
8
Layer 1
0
POLYLINE
8
Layer 1
62
7
70
0
10
0.000000
20
0.000000
66
1
0
VERTEX
8
Layer 1
10
75.154360
20
110.835040
70
0
0
VERTEX
8
Layer 1
10
74.708571
20
111.341140
70
0
0
VERTEX
8
Layer 1
10
74.993356
20
111.618170
70
0
0
VERTEX
8
Layer 1
10
75.938758
20
110.682850
70
0
0
VERTEX
8
Layer 1
10
75.638594
20
110.387980
70
0
0
VERTEX
8
Layer 1
10
75.154360
20
110.835040
70
0
0
VERTEX
8
Layer 1
10
75.154360
20
110.835040
70
0
0
SEQEND
8
Layer 1
0
POLYLINE
8
Layer 1
62
7
70
0
10
0.000000
20
0.000000
66
1
0
VERTEX
8
Layer 1
10
75.425914
20
111.118650
70
0
0
VERTEX
8
Layer 1
10
74.990110
20
111.554450
70
0
0
VERTEX
8
Layer 1
10
74.885551
20
111.441630
70
0
0
VERTEX
8
Layer 1
10
74.780994
20
111.328810
70
0
0
VERTEX
8
Layer 1
10
75.209655
20
110.898810
70
0
0
VERTEX
8
Layer 1
10
75.638319
20
110.468820
70
0
0
VERTEX
8
Layer 1
10
75.750018
20
110.575830
70
0
0
VERTEX
8
Layer 1
10
75.861714
20
110.682840
70
0
0
VERTEX
8
Layer 1
10
75.425914
20
111.118650
70
0
0
SEQEND
8
Layer 1
0
POLYLINE
8
Layer 1
62
7
70
0
10
0.000000
20
0.000000
66
1
0
VERTEX
8
Layer 1
10
70.589370
20
112.486340
70
0
0
VERTEX
8
Layer 1
10
70.304764
20
113.357270
70
0
0
VERTEX
8
Layer 1
10
70.064067
20
114.201060
70
0
0
VERTEX
8
Layer 1
10
70.822546
20
115.171580
70
0
0
VERTEX
8
Layer 1
10
71.631367
20
116.142090
70
0
0
VERTEX
8
Layer 1
10
71.709767
20
115.794860
70
0
0
VERTEX
8
Layer 1
10
71.968555
20
114.593070
70
0
0
VERTEX
8
Layer 1
10
72.089461
20
114.199140
70
0
0
VERTEX
8
Layer 1
10
71.708878
20
113.760300
70
0
0
VERTEX
8
Layer 1
10
70.980789
20
112.921640
70
0
0
VERTEX
8
Layer 1
10
70.589373
20
112.486340
70
0
0
VERTEX
8
Layer 1
10
70.589370
20
112.486340
70
0
0
SEQEND
8
Layer 1
0
POLYLINE
8
Layer 1
62
7
70
0
10
0.000000
20
0.000000
66
1
0
VERTEX
8
Layer 1
10
70.899372
20
112.957490
70
0
0
VERTEX
8
Layer 1
10
71.590169
20
113.753100
70
0
0
VERTEX
8
Layer 1
10
72.024521
20
114.201480
70
0
0
VERTEX
8
Layer 1
10
71.932071
20
114.447560
70
0
0
VERTEX
8
Layer 1
10
71.654395
20
115.611290
70
0
0
VERTEX
8
Layer 1
10
71.601045
20
116.008790
70
0
0
VERTEX
8
Layer 1
10
70.164804
20
114.168280
70
0
0
VERTEX
8
Layer 1
10
70.620081
20
112.610260
70
0
0
VERTEX
8
Layer 1
10
70.899368
20
112.957490
70
0
0
VERTEX
8
Layer 1
10
70.899372
20
112.957490
70
0
0
SEQEND
8
Layer 1
0
POLYLINE
8
Layer 1
62
7
70
0
10
0.000000
20
0.000000
66
1
0
VERTEX
8
Layer 1
10
75.003995
20
112.956490
70
0
0
VERTEX
8
Layer 1
10
73.962119
20
114.107989
70
0
0
VERTEX
8
Layer 1
10
73.734957
20
114.672946
70
0
0
VERTEX
8
Layer 1
10
73.693455
20
115.248530
70
0
0
VERTEX
8
Layer 1
10
73.864726
20
116.045614
70
0
0
VERTEX
8
Layer 1
10
74.258440
20
116.658160
70
0
0
VERTEX
8
Layer 1
10
74.524188
20
116.888053
70
0
0
VERTEX
8
Layer 1
10
74.589519
20
116.726160
70
0
0
VERTEX
8
Layer 1
10
74.317781
20
115.721950
70
0
0
VERTEX
8
Layer 1
10
74.169397
20
115.319760
70
0
0
VERTEX
8
Layer 1
10
75.130267
20
115.687180
70
0
0
VERTEX
8
Layer 1
10
75.652200
20
116.042130
70
0
0
VERTEX
8
Layer 1
10
76.080644
20
116.526530
70
0
0
VERTEX
8
Layer 1
10
76.268269
20
116.737520
70
0
0
VERTEX
8
Layer 1
10
76.449028
20
116.479620
70
0
0
VERTEX
8
Layer 1
10
76.806181
20
116.017300
70
0
0
VERTEX
8
Layer 1
10
77.030053
20
115.812720
70
0
0
VERTEX
8
Layer 1
10
77.053163
20
115.412080
70
0
0
VERTEX
8
Layer 1
10
77.082933
20
115.117520
70
0
0
VERTEX
8
Layer 1
10
77.404437
20
115.467790
70
0
0
VERTEX
8
Layer 1
10
77.573132
20
115.393386
70
0
0
VERTEX
8
Layer 1
10
77.659135
20
115.166860
70
0
0
VERTEX
8
Layer 1
10
77.559349
20
114.762326
70
0
0
VERTEX
8
Layer 1
10
77.076714
20
114.192680
70
0
0
VERTEX
8
Layer 1
10
75.341315
20
112.729700
70
0
0
VERTEX
8
Layer 1
10
75.004007
20
112.956480
70
0
0
VERTEX
8
Layer 1
10
75.003995
20
112.956490
70
0
0
SEQEND
8
Layer 1
0
POLYLINE
8
Layer 1
62
7
70
0
10
0.000000
20
0.000000
66
1
0
VERTEX
8
Layer 1
10
75.516372
20
112.936390
70
0
0
VERTEX
8
Layer 1
10
76.794724
20
114.038630
70
0
0
VERTEX
8
Layer 1
10
77.525598
20
114.851640
70
0
0
VERTEX
8
Layer 1
10
77.580637
20
115.216924
70
0
0
VERTEX
8
Layer 1
10
77.404207
20
115.388400
70
0
0
VERTEX
8
Layer 1
10
77.129264
20
115.057270
70
0
0
VERTEX
8
Layer 1
10
77.075134
20
114.991570
70
0
0
VERTEX
8
Layer 1
10
76.970531
20
115.553010
70
0
0
VERTEX
8
Layer 1
10
76.721747
20
115.993910
70
0
0
VERTEX
8
Layer 1
10
76.372125
20
116.451300
70
0
0
VERTEX
8
Layer 1
10
76.271285
20
116.660990
70
0
0
VERTEX
8
Layer 1
10
76.122907
20
116.445550
70
0
0
VERTEX
8
Layer 1
10
75.494427
20
115.815453
70
0
0
VERTEX
8
Layer 1
10
74.536754
20
115.353310
70
0
0
VERTEX
8
Layer 1
10
74.073636
20
115.285610
70
0
0
VERTEX
8
Layer 1
10
74.270879
20
115.834140
70
0
0
VERTEX
8
Layer 1
10
74.494128
20
116.561960
70
0
0
VERTEX
8
Layer 1
10
74.520138
20
116.797180
70
0
0
VERTEX
8
Layer 1
10
74.337758
20
116.621430
70
0
0
VERTEX
8
Layer 1
10
74.021894
20
116.184280
70
0
0
VERTEX
8
Layer 1
10
73.825110
20
115.635538
70
0
0
VERTEX
8
Layer 1
10
73.764484
20
115.050424
70
0
0
VERTEX
8
Layer 1
10
73.857091
20
114.504160
70
0
0
VERTEX
8
Layer 1
10
74.556707
20
113.474940
70
0
0
VERTEX
8
Layer 1
10
75.329943
20
112.808990
70
0
0
VERTEX
8
Layer 1
10
75.516379
20
112.936410
70
0
0
VERTEX
8
Layer 1
10
75.516372
20
112.936390
70
0
0
SEQEND
8
Layer 1
0
POLYLINE
8
Layer 1
62
7
70
0
10
0.000000
20
0.000000
66
1
0
VERTEX
8
Layer 1
10
73.567162
20
113.441540
70
0
0
VERTEX
8
Layer 1
10
72.821164
20
114.149265
70
0
0
VERTEX
8
Layer 1
10
72.335766
20
114.924610
70
0
0
VERTEX
8
Layer 1
10
72.210614
20
115.816470
70
0
0
VERTEX
8
Layer 1
10
72.157030
20
116.442600
70
0
0
VERTEX
8
Layer 1
10
71.940645
20
116.538540
70
0
0
VERTEX
8
Layer 1
10
71.811674
20
116.601440
70
0
0
VERTEX
8
Layer 1
10
72.272346
20
117.281780
70
0
0
VERTEX
8
Layer 1
10
72.504051
20
117.615353
70
0
0
VERTEX
8
Layer 1
10
72.431787
20
117.794920
70
0
0
VERTEX
8
Layer 1
10
71.841436
20
117.967520
70
0
0
VERTEX
8
Layer 1
10
71.652940
20
118.043020
70
0
0
VERTEX
8
Layer 1
10
72.088249
20
118.379650
70
0
0
VERTEX
8
Layer 1
10
72.436977
20
118.513061
70
0
0
VERTEX
8
Layer 1
10
72.942655
20
118.949210
70
0
0
VERTEX
8
Layer 1
10
73.642479
20
119.533891
70
0
0
VERTEX
8
Layer 1
10
74.234362
20
119.835290
70
0
0
VERTEX
8
Layer 1
10
75.164929
20
119.931090
70
0
0
VERTEX
8
Layer 1
10
76.077649
20
119.839490
70
0
0
VERTEX
8
Layer 1
10
76.682825
20
119.775790
70
0
0
VERTEX
8
Layer 1
10
77.010211
20
119.755290
70
0
0
VERTEX
8
Layer 1
10
76.908139
20
119.403920
70
0
0
VERTEX
8
Layer 1
10
76.231676
20
118.209421
70
0
0
VERTEX
8
Layer 1
10
75.770885
20
117.817792
70
0
0
VERTEX
8
Layer 1
10
75.249518
20
117.586400
70
0
0
VERTEX
8
Layer 1
10
74.221196
20
117.614000
70
0
0
VERTEX
8
Layer 1
10
73.597432
20
117.952720
70
0
0
VERTEX
8
Layer 1
10
73.766085
20
118.048620
70
0
0
VERTEX
8
Layer 1
10
74.942259
20
118.447443
70
0
0
VERTEX
8
Layer 1
10
75.720497
20
118.979780
70
0
0
VERTEX
8
Layer 1
10
75.840222
20
119.098483
70
0
0
VERTEX
8
Layer 1
10
75.780027
20
119.066480
70
0
0
VERTEX
8
Layer 1
10
74.855897
20
118.624110
70
0
0
VERTEX
8
Layer 1
10
73.279965
20
118.324390
70
0
0
VERTEX
8
Layer 1
10
73.112209
20
118.259576
70
0
0
VERTEX
8
Layer 1
10
73.257835
20
117.971180
70
0
0
VERTEX
8
Layer 1
10
73.575484
20
117.589670
70
0
0
VERTEX
8
Layer 1
10
74.375854
20
117.293140
70
0
0
VERTEX
8
Layer 1
10
74.470923
20
117.213341
70
0
0
VERTEX
8
Layer 1
10
74.204004
20
116.905550
70
0
0
VERTEX
8
Layer 1
10
73.505837
20
115.940931
70
0
0
VERTEX
8
Layer 1
10
73.337104
20
114.951810
70
0
0
VERTEX
8
Layer 1
10
73.497873
20
114.179636
70
0
0
VERTEX
8
Layer 1
10
73.822872
20
113.493450
70
0
0
VERTEX
8
Layer 1
10
73.912052
20
113.285110
70
0
0
VERTEX
8
Layer 1
10
73.895062
20
113.245410
70
0
0
VERTEX
8
Layer 1
10
73.567165
20
113.441540
70
0
0
VERTEX
8
Layer 1
10
73.567162
20
113.441540
70
0
0
SEQEND
8
Layer 1
0
POLYLINE
8
Layer 1
62
7
70
0
10
0.000000
20
0.000000
66
1
0
VERTEX
8
Layer 1
10
73.779408
20
113.416040
70
0
0
VERTEX
8
Layer 1
10
73.455155
20
114.075070
70
0
0
VERTEX
8
Layer 1
10
73.261875
20
114.936420
70
0
0
VERTEX
8
Layer 1
10
73.457216
20
116.004779
70
0
0
VERTEX
8
Layer 1
10
74.181543
20
116.999900
70
0
0
VERTEX
8
Layer 1
10
74.404459
20
117.202680
70
0
0
VERTEX
8
Layer 1
10
74.189443
20
117.253980
70
0
0
VERTEX
8
Layer 1
10
73.603170
20
117.479730
70
0
0
VERTEX
8
Layer 1
10
73.202626
20
117.912870
70
0
0
VERTEX
8
Layer 1
10
73.008256
20
118.281778
70
0
0
VERTEX
8
Layer 1
10
73.210526
20
118.384060
70
0
0
VERTEX
8
Layer 1
10
74.865330
20
118.706110
70
0
0
VERTEX
8
Layer 1
10
75.524798
20
119.003320
70
0
0
VERTEX
8
Layer 1
10
75.926049
20
119.164650
70
0
0
VERTEX
8
Layer 1
10
75.679493
20
118.839786
70
0
0
VERTEX
8
Layer 1
10
75.064757
20
118.414970
70
0
0
VERTEX
8
Layer 1
10
73.724106
20
117.965970
70
0
0
VERTEX
8
Layer 1
10
74.270527
20
117.682960
70
0
0
VERTEX
8
Layer 1
10
74.926477
20
117.612973
70
0
0
VERTEX
8
Layer 1
10
75.601459
20
117.800610
70
0
0
VERTEX
8
Layer 1
10
76.545721
20
118.762460
70
0
0
VERTEX
8
Layer 1
10
76.833979
20
119.411441
70
0
0
VERTEX
8
Layer 1
10
76.896070
20
119.736760
70
0
0
VERTEX
8
Layer 1
10
75.938767
20
119.787360
70
0
0
VERTEX
8
Layer 1
10
74.688739
20
119.858960
70
0
0
VERTEX
8
Layer 1
10
73.850542
20
119.573978
70
0
0
VERTEX
8
Layer 1
10
72.989331
20
118.882150
70
0
0
VERTEX
8
Layer 1
10
72.188677
20
118.324990
70
0
0
VERTEX
8
Layer 1
10
71.800579
20
118.136230
70
0
0
VERTEX
8
Layer 1
10
71.774258
20
118.065105
70
0
0
VERTEX
8
Layer 1
10
71.994292
20
118.031330
70
0
0
VERTEX
8
Layer 1
10
72.547265
20
117.792640
70
0
0
VERTEX
8
Layer 1
10
72.575231
20
117.584876
70
0
0
VERTEX
8
Layer 1
10
72.380153
20
117.289400
70
0
0
VERTEX
8
Layer 1
10
72.044775
20
116.849330
70
0
0
VERTEX
8
Layer 1
10
71.888093
20
116.618600
70
0
0
VERTEX
8
Layer 1
10
72.001038
20
116.618600
70
0
0
VERTEX
8
Layer 1
10
72.225848
20
116.506679
70
0
0
VERTEX
8
Layer 1
10
72.290175
20
115.859430
70
0
0
VERTEX
8
Layer 1
10
72.356425
20
115.089660
70
0
0
VERTEX
8
Layer 1
10
72.665040
20
114.494611
70
0
0
VERTEX
8
Layer 1
10
73.147555
20
113.914330
70
0
0
VERTEX
8
Layer 1
10
73.867321
20
113.287610
70
0
0
VERTEX
8
Layer 1
10
73.779411
20
113.416090
70
0
0
VERTEX
8
Layer 1
10
73.779408
20
113.416040
70
0
0
SEQEND
8
Layer 1
0
POLYLINE
8
Layer 1
62
7
70
0
10
0.000000
20
0.000000
66
1
0
VERTEX
8
Layer 1
10
77.459573
20
115.596700
70
0
0
VERTEX
8
Layer 1
10
76.639807
20
116.689050
70
0
0
VERTEX
8
Layer 1
10
76.342280
20
117.537080
70
0
0
VERTEX
8
Layer 1
10
76.449713
20
117.352690
70
0
0
VERTEX
8
Layer 1
10
76.825855
20
116.537906
70
0
0
VERTEX
8
Layer 1
10
77.413202
20
115.770800
70
0
0
VERTEX
8
Layer 1
10
77.625308
20
115.538160
70
0
0
VERTEX
8
Layer 1
10
77.637468
20
116.126900
70
0
0
VERTEX
8
Layer 1
10
77.661578
20
116.727590
70
0
0
VERTEX
8
Layer 1
10
77.907349
20
116.677190
70
0
0
VERTEX
8
Layer 1
10
78.934807
20
116.641890
70
0
0
VERTEX
8
Layer 1
10
78.804620
20
116.846790
70
0
0
VERTEX
8
Layer 1
10
78.093909
20
117.515516
70
0
0
VERTEX
8
Layer 1
10
77.311825
20
118.533240
70
0
0
VERTEX
8
Layer 1
10
77.096000
20
118.800760
70
0
0
VERTEX
8
Layer 1
10
76.897725
20
118.521630
70
0
0
VERTEX
8
Layer 1
10
76.463950
20
117.964084
70
0
0
VERTEX
8
Layer 1
10
75.933551
20
117.590220
70
0
0
VERTEX
8
Layer 1
10
75.313332
20
117.316480
70
0
0
VERTEX
8
Layer 1
10
75.053328
20
117.228780
70
0
0
VERTEX
8
Layer 1
10
74.985208
20
116.893890
70
0
0
VERTEX
8
Layer 1
10
74.719067
20
116.117500
70
0
0
VERTEX
8
Layer 1
10
74.521054
20
115.676010
70
0
0
VERTEX
8
Layer 1
10
74.743777
20
115.809510
70
0
0
VERTEX
8
Layer 1
10
75.425904
20
116.338388
70
0
0
VERTEX
8
Layer 1
10
76.010386
20
117.163530
70
0
0
VERTEX
8
Layer 1
10
76.289660
20
117.546430
70
0
0
VERTEX
8
Layer 1
10
75.677400
20
116.513180
70
0
0
VERTEX
8
Layer 1
10
74.764878
20
115.728590
70
0
0
VERTEX
8
Layer 1
10
74.443266
20
115.616778
70
0
0
VERTEX
8
Layer 1
10
74.664998
20
116.210190
70
0
0
VERTEX
8
Layer 1
10
74.919272
20
116.961720
70
0
0
VERTEX
8
Layer 1
10
74.971062
20
117.268380
70
0
0
VERTEX
8
Layer 1
10
75.388039
20
117.432380
70
0
0
VERTEX
8
Layer 1
10
76.027259
20
117.723540
70
0
0
VERTEX
8
Layer 1
10
76.871102
20
118.620140
70
0
0
VERTEX
8
Layer 1
10
77.091508
20
118.920160
70
0
0
VERTEX
8
Layer 1
10
77.533843
20
118.355750
70
0
0
VERTEX
8
Layer 1
10
78.813958
20
116.946650
70
0
0
VERTEX
8
Layer 1
10
79.137075
20
116.640250
70
0
0
VERTEX
8
Layer 1
10
78.904911
20
116.564250
70
0
0
VERTEX
8
Layer 1
10
77.774107
20
116.634950
70
0
0
VERTEX
8
Layer 1
10
77.684817
20
116.663550
70
0
0
VERTEX
8
Layer 1
10
77.684817
20
116.045780
70
0
0
VERTEX
8
Layer 1
10
77.653397
20
115.428010
70
0
0
VERTEX
8
Layer 1
10
77.459556
20
115.596670
70
0
0
VERTEX
8
Layer 1
10
77.459573
20
115.596700
70
0
0
SEQEND
8
Layer 1
0
POLYLINE
8
Layer 1
62
7
70
0
10
0.000000
20
0.000000
66
1
0
VERTEX
8
Layer 1
10
80.551369
20
116.390940
70
0
0
VERTEX
8
Layer 1
10
80.065842
20
116.937340
70
0
0
VERTEX
8
Layer 1
10
80.880638
20
117.769370
70
0
0
VERTEX
8
Layer 1
10
81.930966
20
116.716460
70
0
0
VERTEX
8
Layer 1
10
81.096307
20
115.904250
70
0
0
VERTEX
8
Layer 1
10
80.551369
20
116.390940
70
0
0
VERTEX
8
Layer 1
10
80.551369
20
116.390940
70
0
0
SEQEND
8
Layer 1
0
POLYLINE
8
Layer 1
62
7
70
0
10
0.000000
20
0.000000
66
1
0
VERTEX
8
Layer 1
10
81.488142
20
116.354240
70
0
0
VERTEX
8
Layer 1
10
81.857260
20
116.724910
70
0
0
VERTEX
8
Layer 1
10
81.368665
20
117.207540
70
0
0
VERTEX
8
Layer 1
10
80.880070
20
117.690180
70
0
0
VERTEX
8
Layer 1
10
80.503158
20
117.313270
70
0
0
VERTEX
8
Layer 1
10
80.126241
20
116.936350
70
0
0
VERTEX
8
Layer 1
10
80.601385
20
116.459970
70
0
0
VERTEX
8
Layer 1
10
81.097777
20
115.983580
70
0
0
VERTEX
8
Layer 1
10
81.488142
20
116.354240
70
0
0
VERTEX
8
Layer 1
10
81.488142
20
116.354240
70
0
0
SEQEND
8
Layer 1
0
POLYLINE
8
Layer 1
62
7
70
0
10
0.000000
20
0.000000
66
1
0
VERTEX
8
Layer 1
10
78.970167
20
117.191240
70
0
0
VERTEX
8
Layer 1
10
78.740687
20
117.358340
70
0
0
VERTEX
8
Layer 1
10
77.631304
20
118.914700
70
0
0
VERTEX
8
Layer 1
10
77.486413
20
119.127490
70
0
0
VERTEX
8
Layer 1
10
77.486413
20
119.738130
70
0
0
VERTEX
8
Layer 1
10
77.486413
20
120.348770
70
0
0
VERTEX
8
Layer 1
10
76.514168
20
120.348770
70
0
0
VERTEX
8
Layer 1
10
75.541922
20
120.400370
70
0
0
VERTEX
8
Layer 1
10
76.008203
20
120.853600
70
0
0
VERTEX
8
Layer 1
10
76.602844
20
121.388560
70
0
0
VERTEX
8
Layer 1
10
76.731203
20
121.521920
70
0
0
VERTEX
8
Layer 1
10
76.275423
20
121.976410
70
0
0
VERTEX
8
Layer 1
10
75.819644
20
122.430890
70
0
0
VERTEX
8
Layer 1
10
75.652060
20
122.263310
70
0
0
VERTEX
8
Layer 1
10
75.484479
20
122.095730
70
0
0
VERTEX
8
Layer 1
10
75.671935
20
121.905410
70
0
0
VERTEX
8
Layer 1
10
75.859391
20
121.671330
70
0
0
VERTEX
8
Layer 1
10
75.215346
20
121.023360
70
0
0
VERTEX
8
Layer 1
10
74.193869
20
122.075470
70
0
0
VERTEX
8
Layer 1
10
74.788124
20
122.710100
70
0
0
VERTEX
8
Layer 1
10
75.383565
20
123.304540
70
0
0
VERTEX
8
Layer 1
10
77.863597
20
120.824750
70
0
0
VERTEX
8
Layer 1
10
80.343625
20
118.302280
70
0
0
VERTEX
8
Layer 1
10
79.147589
20
117.135930
70
0
0
VERTEX
8
Layer 1
10
78.970167
20
117.191230
70
0
0
VERTEX
8
Layer 1
10
78.970167
20
117.191240
70
0
0
SEQEND
8
Layer 1
0
POLYLINE
8
Layer 1
62
7
70
0
10
0.000000
20
0.000000
66
1
0
VERTEX
8
Layer 1
10
79.720603
20
117.763140
70
0
0
VERTEX
8
Layer 1
10
80.273831
20
118.312500
70
0
0
VERTEX
8
Layer 1
10
77.828907
20
120.768130
70
0
0
VERTEX
8
Layer 1
10
75.383987
20
123.223760
70
0
0
VERTEX
8
Layer 1
10
74.828018
20
122.669230
70
0
0
VERTEX
8
Layer 1
10
74.272050
20
122.074390
70
0
0
VERTEX
8
Layer 1
10
74.747549
20
121.559820
70
0
0
VERTEX
8
Layer 1
10
75.223048
20
121.085560
70
0
0
VERTEX
8
Layer 1
10
75.501264
20
121.362020
70
0
0
VERTEX
8
Layer 1
10
75.779756
20
121.676800
70
0
0
VERTEX
8
Layer 1
10
75.593018
20
121.904980
70
0
0
VERTEX
8
Layer 1
10
75.406014
20
122.094840
70
0
0
VERTEX
8
Layer 1
10
75.601450
20
122.293260
70
0
0
VERTEX
8
Layer 1
10
75.837462
20
122.491680
70
0
0
VERTEX
8
Layer 1
10
76.811795
20
121.512570
70
0
0
VERTEX
8
Layer 1
10
76.285989
20
120.999510
70
0
0
VERTEX
8
Layer 1
10
75.683913
20
120.463340
70
0
0
VERTEX
8
Layer 1
10
75.747580
20
120.402640
70
0
0
VERTEX
8
Layer 1
10
76.537105
20
120.394740
70
0
0
VERTEX
8
Layer 1
10
77.516176
20
120.392740
70
0
0
VERTEX
8
Layer 1
10
77.565786
20
119.768280
70
0
0
VERTEX
8
Layer 1
10
77.565786
20
119.148080
70
0
0
VERTEX
8
Layer 1
10
77.730320
20
118.905160
70
0
0
VERTEX
8
Layer 1
10
78.767551
20
117.447000
70
0
0
VERTEX
8
Layer 1
10
79.130489
20
117.213950
70
0
0
VERTEX
8
Layer 1
10
79.720606
20
117.763160
70
0
0
VERTEX
8
Layer 1
10
79.720603
20
117.763140
70
0
0
SEQEND
8
Layer 1
0
POLYLINE
8
Layer 1
62
7
70
0
10
0.000000
20
0.000000
66
1
0
VERTEX
8
Layer 1
10
70.919191
20
118.765890
70
0
0
VERTEX
8
Layer 1
10
72.307663
20
120.230310
70
0
0
VERTEX
8
Layer 1
10
73.754636
20
121.650960
70
0
0
VERTEX
8
Layer 1
10
74.946671
20
120.462040
70
0
0
VERTEX
8
Layer 1
10
74.619281
20
120.399340
70
0
0
VERTEX
8
Layer 1
10
73.750273
20
120.188231
70
0
0
VERTEX
8
Layer 1
10
72.594721
20
119.258990
70
0
0
VERTEX
8
Layer 1
10
72.048370
20
118.757020
70
0
0
VERTEX
8
Layer 1
10
71.494580
20
118.733320
70
0
0
VERTEX
8
Layer 1
10
70.919191
20
118.765920
70
0
0
VERTEX
8
Layer 1
10
70.919191
20
118.765890
70
0
0
SEQEND
8
Layer 1
0
POLYLINE
8
Layer 1
62
7
70
0
10
0.000000
20
0.000000
66
1
0
VERTEX
8
Layer 1
10
72.518715
20
119.294540
70
0
0
VERTEX
8
Layer 1
10
73.720633
20
120.266061
70
0
0
VERTEX
8
Layer 1
10
74.586823
20
120.467310
70
0
0
VERTEX
8
Layer 1
10
74.881755
20
120.467920
70
0
0
VERTEX
8
Layer 1
10
74.320810
20
121.032520
70
0
0
VERTEX
8
Layer 1
10
73.759866
20
121.597110
70
0
0
VERTEX
8
Layer 1
10
72.367246
20
120.199160
70
0
0
VERTEX
8
Layer 1
10
70.974626
20
118.801210
70
0
0
VERTEX
8
Layer 1
10
71.475176
20
118.801210
70
0
0
VERTEX
8
Layer 1
10
71.975726
20
118.801210
70
0
0
VERTEX
8
Layer 1
10
72.518715
20
119.294540
70
0
0
SEQEND
8
Layer 1
 0 
ENDSEC
 0 
EOF